<svg width="128" height="269" viewBox="0 0 128 269" fill="none" xmlns="http://www.w3.org/2000/svg">
<path d="M127 130.292C127 133.627 123.563 142.026 123.563 142.026C112.557 149.196 89.6575 155.952 64.9685 155.952C34.6162 155.952 6.73445 151.117 0.436296 141.99C-0.546346 140.566 0.437971 133.32 0.437971 131.801C4.93973 124.631 29.3862 115.952 64.4741 115.952C99.562 115.952 125.999 126.896 127 130.292Z" fill="#A3FC9F"/>
<g filter="url(#filter0_d_0_1)">
<path d="M25.5 189.74V151.952C30.7333 153.231 33.7314 153.602 39 153.88V189.74H44V216.732H39C39.1667 224.701 39 242.952 39 242.952H25.5V216.732H21V189.74H25.5Z" fill="url(#paint0_linear_0_1)"/>
</g>
<g filter="url(#filter1_i_0_1)">
<path d="M44.8686 75.9521H27V103.452V130.952H39.9051V106.126H54.7956L67.2044 94.2855L67.7647 75.9521H65.283C57.0414 82.9181 54.2091 84.627 44.8686 75.9521Z" fill="#D9D9D9"/>
<path d="M75.6423 94.2855L63.7299 106.126H81.1022C80.6058 114.401 79.9109 130.952 81.1022 130.952H95V75.9521H75.6423V94.2855Z" fill="#D9D9D9"/>
</g>
<path d="M44.8686 75.9521H27V103.452V130.952H39.9051V106.126H54.7956L67.2044 94.2855L67.7647 75.9521H65.283C57.0414 82.9181 54.2091 84.627 44.8686 75.9521Z" stroke="black"/>
<path d="M75.6423 94.2855L63.7299 106.126H81.1022C80.6058 114.401 79.9109 130.952 81.1022 130.952H95V75.9521H75.6423V94.2855Z" stroke="black"/>
<g filter="url(#filter2_d_0_1)">
<path d="M81.5 188.826V153.489C81.5 153.489 89.818 153.031 95 151.952V188.826H100V215.714H95C95.1667 223.652 95 267.952 95 267.952H81.5V215.714H77V188.826H81.5Z" fill="url(#paint1_linear_0_1)"/>
</g>
<ellipse cx="56.5" cy="75.4521" rx="11.5" ry="1.5" fill="#A5FEA4"/>
<path d="M57 73.7814C68.0407 69.6562 75.2543 70.0385 87 74.9521" stroke="black"/>
<path d="M13 23.4664V132.02C51.7979 144.633 79.717 143.905 109 129.726V23.4664C82.1399 -7.87535 37.3731 -5.20005 13 23.4664Z" fill="url(#paint2_linear_0_1)" fill-opacity="0.54"/>
<path d="M17 30.3918C22.7196 25.9006 26.2567 25.7115 33 30.3918V128.202C26.755 130.754 23.241 130.306 17 128.202V30.3918Z" fill="white" fill-opacity="0.58"/>
<path d="M97.4479 16.1518C68.2699 8.93199 26.0123 18.4318 24 18.8118C24 18.8118 76.8162 13.1119 103.479 19.9521C103.479 19.9521 104.651 19.0307 103.479 17.6718C101.144 14.9665 95.2738 10.3155 90.908 8.17201C80.8466 3.2321 65.2515 0.952148 65.2515 0.952148C80.8525 5.51169 97.4479 16.1518 97.4479 16.1518Z" fill="#31F825"/>
<path d="M3.57989 144.204C-0.86184 140.427 1.95823 137.57 1.16268 132.836C51.8637 152.341 83.8819 149.793 128 130.952C127.499 135.851 127.419 140.805 123.472 144.959C89.4278 162.71 27.2625 159.311 3.57989 144.204Z" fill="#57D559"/>
<defs>
<filter id="filter0_d_0_1" x="21" y="151.952" width="25" height="92" filterUnits="userSpaceOnUse" color-interpolation-filters="sRGB">
<feFlood flood-opacity="0" result="BackgroundImageFix"/>
<feColorMatrix in="SourceAlpha" type="matrix" values="0 0 0 0 0 0 0 0 0 0 0 0 0 0 0 0 0 0 127 0" result="hardAlpha"/>
<feOffset dx="2" dy="1"/>
<feComposite in2="hardAlpha" operator="out"/>
<feColorMatrix type="matrix" values="0 0 0 0 0 0 0 0 0 0 0 0 0 0 0 0 0 0 0.7 0"/>
<feBlend mode="normal" in2="BackgroundImageFix" result="effect1_dropShadow_0_1"/>
<feBlend mode="normal" in="SourceGraphic" in2="effect1_dropShadow_0_1" result="shape"/>
</filter>
<filter id="filter1_i_0_1" x="26.5" y="75.4521" width="69" height="60" filterUnits="userSpaceOnUse" color-interpolation-filters="sRGB">
<feFlood flood-opacity="0" result="BackgroundImageFix"/>
<feBlend mode="normal" in="SourceGraphic" in2="BackgroundImageFix" result="shape"/>
<feColorMatrix in="SourceAlpha" type="matrix" values="0 0 0 0 0 0 0 0 0 0 0 0 0 0 0 0 0 0 127 0" result="hardAlpha"/>
<feOffset dy="4"/>
<feGaussianBlur stdDeviation="2"/>
<feComposite in2="hardAlpha" operator="arithmetic" k2="-1" k3="1"/>
<feColorMatrix type="matrix" values="0 0 0 0 0 0 0 0 0 0 0 0 0 0 0 0 0 0 0.25 0"/>
<feBlend mode="normal" in2="shape" result="effect1_innerShadow_0_1"/>
</filter>
<filter id="filter2_d_0_1" x="77" y="151.952" width="25" height="117" filterUnits="userSpaceOnUse" color-interpolation-filters="sRGB">
<feFlood flood-opacity="0" result="BackgroundImageFix"/>
<feColorMatrix in="SourceAlpha" type="matrix" values="0 0 0 0 0 0 0 0 0 0 0 0 0 0 0 0 0 0 127 0" result="hardAlpha"/>
<feOffset dx="2" dy="1"/>
<feComposite in2="hardAlpha" operator="out"/>
<feColorMatrix type="matrix" values="0 0 0 0 0 0 0 0 0 0 0 0 0 0 0 0 0 0 0.7 0"/>
<feBlend mode="normal" in2="BackgroundImageFix" result="effect1_dropShadow_0_1"/>
<feBlend mode="normal" in="SourceGraphic" in2="effect1_dropShadow_0_1" result="shape"/>
</filter>
<linearGradient id="paint0_linear_0_1" x1="20.5" y1="152.338" x2="34.3657" y2="249.271" gradientUnits="userSpaceOnUse">
<stop stop-color="#717171"/>
<stop offset="0.28" stop-color="#F7F7F7"/>
<stop offset="0.615" stop-color="#8C8C8E"/>
<stop offset="0.93" stop-color="white"/>
</linearGradient>
<linearGradient id="paint1_linear_0_1" x1="77.0645" y1="135.856" x2="98.9005" y2="289.66" gradientUnits="userSpaceOnUse">
<stop offset="0.00782172" stop-color="#737373"/>
<stop offset="0.19" stop-color="#D9D9D9"/>
<stop offset="0.480584" stop-color="#D9D9D9"/>
<stop offset="0.615775" stop-color="#A1A1A1"/>
<stop offset="0.730932" stop-color="#D9D9D9"/>
</linearGradient>
<linearGradient id="paint2_linear_0_1" x1="75.1762" y1="99.1847" x2="61.527" y2="-12.4083" gradientUnits="userSpaceOnUse">
<stop stop-color="#5FEC5F"/>
<stop offset="1" stop-color="#2DFE03"/>
</linearGradient>
</defs>
</svg>
