<svg width="919" height="656" viewBox="0 0 919 656" fill="none" xmlns="http://www.w3.org/2000/svg">
<path d="M0 214.042C0 197.473 13.4315 184.042 30 184.042H541.929C553.538 184.042 562.95 174.63 562.95 163.021C562.95 151.411 572.361 142 583.971 142H889C905.568 142 919 155.431 919 172V479C919 495.569 905.569 509 889 509H817.136C813.546 509 810.636 511.91 810.636 515.5C810.636 519.09 807.726 522 804.136 522H665.055C661.465 522 658.555 519.09 658.555 515.5C658.555 511.91 655.645 509 652.055 509H225.553C221.963 509 219.053 511.91 219.053 515.5C219.053 519.09 216.143 522 212.553 522H97.6559C94.066 522 91.1559 519.09 91.1559 515.5C91.1559 511.91 88.2457 509 84.6559 509H30C13.4315 509 0 495.569 0 479V214.042Z" fill="#515151"/>
<path d="M118.379 4.84507L775.507 101.154C787.145 106.921 794.712 92.5594 801.801 105.5L801.801 143L772.995 143L772.995 120.971L115.867 24.6616L118.379 4.84507Z" fill="url(#paint0_linear_732_10297)"/>
<rect x="607" y="108" width="52" height="35" fill="#DF4848"/>
<rect x="136" y="522" width="42" height="134" fill="#D9D9D9"/>
<rect x="423" y="506" width="43" height="150" fill="#D9D9D9"/>
<rect x="711" y="522" width="42" height="134" fill="#D9D9D9"/>
<path d="M95 429C95 401.386 117.386 379 145 379H167C194.614 379 217 401.386 217 429V522H95V429Z" fill="#757474"/>
<path d="M672 429C672 401.386 694.386 379 722 379H744C771.614 379 794 401.386 794 429V522H672V429Z" fill="#757474"/>
<ellipse cx="157" cy="442" rx="47" ry="50" fill="white"/>
<ellipse cx="732" cy="442" rx="47" ry="50" fill="white"/>
<defs>
<linearGradient id="paint0_linear_732_10297" x1="104.178" y1="59" x2="934.555" y2="25.6814" gradientUnits="userSpaceOnUse">
<stop offset="0.172636" stop-color="#CFCFCF"/>
<stop offset="1" stop-color="#D2D1CE"/>
</linearGradient>
</defs>
</svg>
