<svg width="491" height="968" viewBox="0 0 491 968" fill="none" xmlns="http://www.w3.org/2000/svg">
<path d="M10 311.5H481C486.247 311.5 490.5 315.753 490.5 321V804C490.5 809.247 486.247 813.5 481 813.5H371.5C366.253 813.5 362 809.247 362 804V786.5C362 780.701 357.299 776 351.5 776H154.5C148.701 776 144 780.701 144 786.5V804C144 809.247 139.747 813.5 134.5 813.5H10C4.7533 813.5 0.5 809.247 0.5 804V321C0.5 315.753 4.75329 311.5 10 311.5Z" fill="#242222" stroke="black"/>
<path d="M10 311.5H481C486.247 311.5 490.5 315.753 490.5 321V552.5H0.5V321C0.5 315.753 4.75329 311.5 10 311.5Z" fill="#C5D9DA" stroke="black"/>
<path d="M363.5 559.5V759C363.5 767.008 357.008 773.5 349 773.5H156C147.992 773.5 141.5 767.008 141.5 759V559.5H363.5Z" fill="#C5D9DA" stroke="black"/>
<rect x="197.5" y="560.5" width="33" height="160" fill="#242222" stroke="#242222"/>
<rect x="275.5" y="560.5" width="33" height="160" fill="#242222" stroke="black"/>
<rect x="100.5" y="144.5" width="297" height="166" fill="url(#paint0_linear_0_1)" stroke="black"/>
<rect x="150.5" y="93.5" width="201" height="50" fill="url(#paint1_linear_0_1)" stroke="black"/>
<rect x="138.5" y="220.5" width="226" height="90" fill="#2C2C2C" stroke="black"/>
<rect x="156.5" y="5.5" width="191" height="88" fill="url(#paint2_linear_0_1)" stroke="black"/>
<rect x="150.5" y="0.5" width="201" height="28" fill="url(#paint3_linear_0_1)" stroke="black"/>
<rect x="52.5" y="814.5" width="48" height="153" fill="#D9D9D9" stroke="black"/>
<rect x="386.5" y="814.5" width="48" height="153" fill="#D9D9D9" stroke="black"/>
<defs>
<linearGradient id="paint0_linear_0_1" x1="249" y1="144" x2="249" y2="311" gradientUnits="userSpaceOnUse">
<stop stop-color="#5DB4F3"/>
<stop offset="1" stop-color="#36698D"/>
</linearGradient>
<linearGradient id="paint1_linear_0_1" x1="362.946" y1="139.539" x2="80.0543" y2="110.461" gradientUnits="userSpaceOnUse">
<stop stop-color="#5DB4F3"/>
<stop offset="1" stop-color="#36698D"/>
</linearGradient>
<linearGradient id="paint2_linear_0_1" x1="252" y1="5" x2="252" y2="94" gradientUnits="userSpaceOnUse">
<stop stop-color="#5DB4F3"/>
<stop offset="1" stop-color="#36698D"/>
</linearGradient>
<linearGradient id="paint3_linear_0_1" x1="431.527" y1="-48.0972" x2="40" y2="5" gradientUnits="userSpaceOnUse">
<stop stop-color="#5DB4F3"/>
<stop offset="1" stop-color="#36698D"/>
</linearGradient>
</defs>
</svg>
