<svg width="832" height="182" viewBox="0 0 832 182" fill="none" xmlns="http://www.w3.org/2000/svg">
<path d="M509 95.5H119.5" stroke="#FA1414" stroke-width="15"/>
<path d="M506.5 86.1959H119.5" stroke="#6F5959" stroke-width="15"/>
<path d="M560.976 178.495C552.692 178.54 545.939 171.862 545.894 163.578L545.098 19.5798C545.052 11.2957 551.731 4.54294 560.015 4.49717L816.011 3.08281C824.295 3.03704 831.048 9.71556 831.094 17.9997L831.889 161.998C831.935 170.282 825.257 177.034 816.972 177.08L560.976 178.495Z" fill="#152020"/>
<path d="M624.976 178.141L624.014 4.14365L816.011 3.08287C824.295 3.0371 831.048 9.71563 831.094 17.9998L831.89 161.998C831.935 170.282 825.257 177.034 816.973 177.08L624.976 178.141Z" fill="#B56E1A"/>
<path d="M664.73 154.716C664.732 153.822 664.898 152.926 665.227 152.029C665.555 151.132 666.105 150.312 666.875 149.57C667.638 148.827 668.682 148.228 670.008 147.773C671.333 147.318 672.998 147.085 675 147.074C676.939 147.064 678.663 147.239 680.17 147.6C681.671 147.954 682.938 148.472 683.972 149.155C685.005 149.832 685.791 150.658 686.329 151.635C686.867 152.605 687.14 153.705 687.146 154.933C687.153 156.155 686.918 157.247 686.44 158.208C685.955 159.162 685.281 159.947 684.418 160.563C683.548 161.172 682.538 161.564 681.388 161.741L681.374 159.142C682.374 158.902 683.199 158.432 683.849 157.732C684.491 157.026 684.809 156.097 684.803 154.946C684.793 153.263 684.051 151.939 682.575 150.974C681.1 150.002 679.02 149.524 676.335 149.539L676.336 149.709C676.935 150.103 677.452 150.573 677.889 151.117C678.325 151.662 678.662 152.267 678.9 152.934C679.138 153.6 679.259 154.309 679.263 155.062C679.27 156.312 678.968 157.461 678.356 158.508C677.736 159.549 676.885 160.384 675.802 161.015C674.712 161.639 673.463 161.955 672.057 161.963C670.722 161.97 669.499 161.679 668.387 161.088C667.269 160.491 666.377 159.651 665.71 158.568C665.044 157.478 664.717 156.194 664.73 154.716ZM667.074 154.703C667.079 155.598 667.307 156.403 667.758 157.118C668.203 157.826 668.802 158.387 669.557 158.802C670.305 159.21 671.134 159.411 672.043 159.406C672.952 159.401 673.778 159.198 674.522 158.796C675.258 158.387 675.845 157.833 676.281 157.135C676.711 156.429 676.923 155.629 676.918 154.734C676.914 154.06 676.779 153.432 676.513 152.851C676.24 152.27 675.872 151.764 675.408 151.334C674.936 150.896 674.405 150.554 673.814 150.309C673.217 150.064 672.594 149.943 671.948 149.946C671.096 149.951 670.298 150.161 669.555 150.577C668.811 150.986 668.21 151.551 667.753 152.271C667.295 152.983 667.069 153.794 667.074 154.703ZM670.344 129.487L686.74 135.448L686.755 138.004L670.425 144.146L670.409 141.419L683.424 136.83L683.423 136.659L670.359 132.214L670.344 129.487Z" fill="black"/>
<path d="M653.886 161.829L632.068 161.949L632.022 153.597C632.013 152.021 632.255 150.709 632.746 149.662C633.23 148.608 633.897 147.82 634.747 147.297C635.596 146.766 636.56 146.498 637.64 146.492C638.528 146.487 639.289 146.654 639.923 146.991C640.549 147.329 641.06 147.784 641.454 148.357C641.847 148.93 642.131 149.571 642.306 150.281L642.519 150.279C642.557 149.505 642.791 148.761 643.22 148.049C643.642 147.329 644.243 146.74 645.022 146.281C645.8 145.822 646.744 145.59 647.852 145.584C648.981 145.577 649.998 145.845 650.903 146.387C651.801 146.929 652.512 147.749 653.037 148.847C653.561 149.945 653.828 151.328 653.837 152.997L653.886 161.829ZM650.562 157.895L650.538 153.644C650.53 152.21 650.251 151.178 649.701 150.549C649.143 149.912 648.431 149.597 647.565 149.602C646.919 149.605 646.337 149.768 645.82 150.091C645.297 150.413 644.887 150.87 644.592 151.461C644.29 152.052 644.141 152.756 644.146 153.573L644.17 157.93L650.562 157.895ZM641.325 157.946L641.304 154.036C641.3 153.354 641.172 152.741 640.921 152.195C640.662 151.65 640.301 151.222 639.838 150.912C639.367 150.595 638.812 150.438 638.173 150.442C637.328 150.447 636.634 150.749 636.09 151.348C635.546 151.941 635.278 152.819 635.284 153.984L635.306 157.979L641.325 157.946ZM654.082 137.572C654.088 138.609 653.909 139.544 653.544 140.377C653.172 141.203 652.622 141.86 651.893 142.347C651.164 142.826 650.263 143.069 649.191 143.075C648.268 143.08 647.503 142.914 646.898 142.577C646.292 142.239 645.806 141.777 645.441 141.189C645.076 140.602 644.798 139.939 644.61 139.201C644.414 138.457 644.271 137.687 644.181 136.892C644.077 135.934 643.984 135.156 643.902 134.56C643.814 133.964 643.683 133.532 643.512 133.263C643.332 132.987 643.058 132.85 642.689 132.852L642.625 132.852C641.822 132.857 641.202 133.098 640.765 133.576C640.327 134.055 640.111 134.741 640.115 135.636C640.121 136.581 640.331 137.329 640.746 137.88C641.161 138.425 641.649 138.792 642.211 138.98L641.72 142.584C640.724 142.305 639.891 141.841 639.219 141.191C638.541 140.542 638.032 139.746 637.693 138.803C637.347 137.86 637.171 136.817 637.165 135.674C637.16 134.885 637.248 134.1 637.429 133.318C637.609 132.535 637.91 131.82 638.333 131.171C638.748 130.523 639.317 130.001 640.04 129.606C640.762 129.205 641.666 129.001 642.753 128.995L653.704 128.934L653.725 132.642L651.477 132.654L651.478 132.782C651.934 133.014 652.362 133.342 652.762 133.766C653.155 134.183 653.473 134.71 653.718 135.348C653.956 135.979 654.078 136.72 654.082 137.572ZM651.243 136.587C651.239 135.812 651.082 135.142 650.774 134.576C650.458 134.009 650.044 133.575 649.531 133.272C649.018 132.962 648.459 132.809 647.856 132.813L645.927 132.823C646.028 132.943 646.121 133.149 646.208 133.44C646.295 133.723 646.371 134.042 646.437 134.397C646.503 134.752 646.561 135.103 646.613 135.451C646.665 135.799 646.709 136.1 646.746 136.356C646.827 136.931 646.958 137.445 647.138 137.898C647.318 138.352 647.569 138.709 647.89 138.97C648.204 139.231 648.609 139.36 649.106 139.358C649.817 139.354 650.351 139.092 650.711 138.571C651.07 138.051 651.247 137.389 651.243 136.587ZM637.274 116.976L640.257 116.959L640.309 126.366L637.326 126.383L637.274 116.976ZM633.393 124.082L633.372 120.226L648.734 120.141C649.252 120.138 649.65 120.057 649.926 119.9C650.195 119.735 650.378 119.521 650.476 119.257C650.574 118.994 650.622 118.703 650.62 118.383C650.619 118.142 650.6 117.922 650.564 117.723C650.527 117.517 650.494 117.361 650.465 117.255L653.476 116.588C653.549 116.794 653.628 117.088 653.716 117.471C653.803 117.847 653.855 118.308 653.872 118.855C653.906 119.821 653.765 120.692 653.45 121.468C653.128 122.244 652.627 122.861 651.947 123.319C651.268 123.77 650.417 123.995 649.394 123.994L633.393 124.082ZM637.211 105.58L640.194 105.563L640.246 114.97L637.263 114.986L637.211 105.58ZM633.33 112.686L633.309 108.829L648.671 108.744C649.189 108.742 649.587 108.661 649.863 108.503C650.132 108.339 650.315 108.124 650.413 107.861C650.511 107.598 650.559 107.306 650.557 106.987C650.556 106.745 650.537 106.525 650.501 106.327C650.464 106.121 650.431 105.965 650.402 105.858L653.413 105.192C653.486 105.397 653.565 105.692 653.653 106.075C653.74 106.451 653.792 106.912 653.809 107.459C653.843 108.425 653.702 109.295 653.387 110.071C653.065 110.847 652.564 111.464 651.884 111.923C651.205 112.374 650.354 112.599 649.331 112.597L633.33 112.686ZM653.838 95.1938C653.847 96.8344 653.514 98.2531 652.838 99.4501C652.156 100.64 651.188 101.558 649.934 102.204C648.674 102.85 647.188 103.178 645.476 103.188C643.793 103.197 642.314 102.885 641.039 102.253C639.757 101.614 638.758 100.718 638.041 99.5638C637.317 98.4101 636.951 97.052 636.943 95.4895C636.937 94.481 637.095 93.5284 637.417 92.6318C637.732 91.728 638.224 90.9298 638.895 90.2372C639.566 89.5375 640.422 88.9858 641.464 88.5823C642.499 88.1789 643.734 87.9732 645.168 87.9653L646.351 87.9588L646.425 101.371L643.825 101.386L643.772 91.6698C643.033 91.681 642.377 91.8444 641.804 92.1601C641.223 92.4758 640.767 92.9151 640.437 93.478C640.106 94.0338 639.942 94.681 639.947 95.4197C639.951 96.208 640.146 96.8994 640.533 97.4939C640.913 98.0884 641.413 98.5508 642.032 98.8812C642.645 99.2045 643.317 99.3677 644.049 99.3708L646.318 99.3583C647.27 99.353 648.085 99.1745 648.765 98.8227C649.438 98.471 649.954 97.9816 650.313 97.3546C650.664 96.7277 650.838 95.9952 650.833 95.1571C650.83 94.596 650.749 94.0887 650.59 93.635C650.424 93.1814 650.184 92.7885 649.87 92.4564C649.556 92.1243 649.167 91.8744 648.705 91.7065L649.09 88.1034C650.042 88.3254 650.876 88.7541 651.59 89.3893C652.296 90.0176 652.847 90.8242 653.244 91.8092C653.633 92.7943 653.831 93.9225 653.838 95.1938ZM653.46 84.6568L637.096 84.7472L637.076 81.0079L639.803 80.9929L639.802 80.8224C638.856 80.5293 638.125 80.022 637.61 79.3004C637.087 78.5718 636.823 77.7387 636.818 76.8012C636.817 76.5881 636.826 76.3502 636.846 76.0873C636.859 75.8173 636.882 75.5934 636.917 75.4157L640.464 75.3961C640.409 75.5598 640.36 75.8193 640.32 76.1746C640.272 76.5229 640.249 76.8604 640.251 77.1871C640.255 77.8902 640.411 78.5214 640.719 79.0808C641.021 79.6331 641.438 80.0676 641.973 80.3843C642.507 80.7009 643.123 80.8573 643.819 80.8535L653.438 80.8003L653.46 84.6568ZM659.514 69.8335C659.517 70.3591 659.477 70.8458 659.395 71.2937C659.319 71.7345 659.228 72.0866 659.123 72.3499L656.114 71.4717C656.274 70.9097 656.35 70.4086 656.34 69.9683C656.331 69.528 656.19 69.1417 655.918 68.8094C655.654 68.4699 655.212 68.1847 654.593 67.9537L653.707 67.6284L637.035 73.6545L637.012 69.5637L649.349 65.7242L649.348 65.5537L636.97 61.8401L636.947 57.7386L655.328 64.189C656.196 64.4896 656.941 64.8903 657.561 65.3911C658.189 65.8919 658.668 66.5072 658.999 67.2369C659.337 67.9595 659.509 68.825 659.514 69.8335Z" fill="black"/>
<rect x="520.822" y="150.716" width="33" height="25" transform="rotate(-90.3166 520.822 150.716)" fill="#7D7D7D"/>
<rect x="520.386" y="71.7172" width="46" height="25" transform="rotate(-90.3166 520.386 71.7172)" fill="#7D7D7D"/>
<rect x="520.386" y="71.7172" width="13" height="25" transform="rotate(-90.3166 520.386 71.7172)" fill="#D9D9D9" fill-opacity="0.44"/>
<rect x="519.209" y="39.7231" width="14" height="25" transform="rotate(-90.3166 519.209 39.7231)" fill="#D9D9D9" fill-opacity="0.45"/>
<rect x="504.994" y="181.804" width="180" height="16" rx="8" transform="rotate(-90.3166 504.994 181.804)" fill="#211D1D"/>
<path d="M497.187 102.203C493.621 95.089 493.631 90.8703 497.08 82.8176L504.436 80.8055L504.563 103.805L497.187 102.203Z" fill="#211D1D"/>
<path d="M557.972 177.511C551.896 177.545 546.944 172.647 546.911 166.572V166.572L829.907 165.009V165.009C829.94 171.084 825.043 176.036 818.968 176.069L557.972 177.511Z" fill="#D9D9D9" fill-opacity="0.35"/>
<path d="M556.01 3.5193C549.935 3.55287 545.037 8.50487 545.071 14.5799V14.5799L828.066 13.0164V13.0164C828.033 6.94134 823.081 2.04375 817.006 2.07732L556.01 3.5193Z" fill="#D9D9D9" fill-opacity="0.35"/>
<path d="M46.0713 66.1364H80.7229L100.714 69.3182V110.682L80.7229 113.864H46.0713V66.1364Z" fill="url(#paint0_linear_1160_12125)"/>
<path d="M0 72.2727C0 69.5113 2.23858 67.2727 5 67.2727H46.0714V112.727H5C2.23858 112.727 0 110.489 0 107.727V72.2727Z" fill="url(#paint1_linear_1160_12125)"/>
<path d="M99.6426 74.0909L120 77.3158V106.339L99.6426 108.182V74.0909Z" fill="url(#paint2_linear_1160_12125)"/>
<rect x="51.4287" y="65" width="2.14286" height="50" fill="#495352"/>
<rect x="54.6426" y="65" width="2.14286" height="50" fill="#495352"/>
<rect x="57.8574" y="65" width="2.14286" height="50" fill="#495352"/>
<rect x="61.0713" y="65" width="2.14286" height="50" fill="#495352"/>
<rect x="101.786" y="72.9546" width="2.14286" height="36.3636" fill="#495352"/>
<rect x="107.143" y="74.0909" width="2.14286" height="34.0909" fill="#495352"/>
<rect x="114.643" y="75.2273" width="1.07143" height="31.8182" fill="#495352"/>
<path d="M0 71.5584C0 69.1915 1.91878 67.2727 4.28571 67.2727V67.2727V112.727V112.727C1.91878 112.727 0 110.808 0 108.442V71.5584Z" fill="#383737"/>
<defs>
<linearGradient id="paint0_linear_1160_12125" x1="73.3927" y1="66.1364" x2="73.3927" y2="113.864" gradientUnits="userSpaceOnUse">
<stop stop-color="#152020"/>
<stop offset="0.432292" stop-color="#152020" stop-opacity="0.74"/>
<stop offset="0.963542" stop-color="#0B1515" stop-opacity="0.99"/>
</linearGradient>
<linearGradient id="paint1_linear_1160_12125" x1="23.0357" y1="67.2727" x2="23.0357" y2="112.727" gradientUnits="userSpaceOnUse">
<stop stop-color="#CBC9C9"/>
<stop offset="0.469523" stop-color="#CBC9C9" stop-opacity="0"/>
<stop offset="0.963542" stop-color="#5C5B5B" stop-opacity="0.75"/>
</linearGradient>
<linearGradient id="paint2_linear_1160_12125" x1="109.821" y1="74.0909" x2="109.821" y2="108.182" gradientUnits="userSpaceOnUse">
<stop stop-color="#152020"/>
<stop offset="0.526042" stop-color="#212727" stop-opacity="0.84"/>
<stop offset="0.973958" stop-color="#1C2E2E" stop-opacity="0.95"/>
</linearGradient>
</defs>
</svg>
