<svg width="460" height="576" viewBox="0 0 460 576" fill="none" xmlns="http://www.w3.org/2000/svg">
<path d="M250.471 232C250.471 223.716 257.187 217 265.471 217H436.972C445.256 217 451.972 223.716 451.972 232V520C451.972 528.284 445.256 535 436.972 535H265.471C257.187 535 250.471 528.284 250.471 520V232Z" fill="#152020"/>
<path d="M250.471 305H451.972V520C451.972 528.284 445.256 535 436.972 535H265.471C257.187 535 250.471 528.284 250.471 520V305Z" fill="#B56E1A"/>
<path d="M299.392 283.06V235.759H313.71V283.06H299.392ZM282.9 266.568V252.25H330.202V266.568H282.9Z" fill="#F7F7F7"/>
<path d="M414.003 254.273V267.568H383.321V254.273H414.003Z" fill="#F7F7F7"/>
<path d="M295.341 369.139C296.832 369.151 298.324 369.435 299.815 369.991C301.307 370.548 302.668 371.471 303.899 372.761C305.13 374.04 306.119 375.786 306.864 377.999C307.61 380.213 307.983 382.989 307.983 386.327C307.983 389.558 307.675 392.429 307.06 394.938C306.456 397.436 305.58 399.543 304.432 401.259C303.295 402.976 301.911 404.278 300.277 405.165C298.655 406.053 296.821 406.497 294.773 406.497C292.737 406.497 290.92 406.095 289.322 405.29C287.736 404.473 286.433 403.343 285.415 401.898C284.409 400.442 283.764 398.756 283.48 396.838H287.812C288.203 398.507 288.978 399.886 290.138 400.975C291.31 402.052 292.855 402.591 294.773 402.591C297.578 402.591 299.792 401.366 301.413 398.915C303.047 396.465 303.864 393.003 303.864 388.528H303.58C302.917 389.523 302.129 390.381 301.218 391.103C300.307 391.825 299.295 392.381 298.182 392.772C297.069 393.163 295.885 393.358 294.631 393.358C292.547 393.358 290.636 392.843 288.896 391.813C287.167 390.772 285.782 389.345 284.741 387.534C283.711 385.711 283.196 383.628 283.196 381.284C283.196 379.059 283.693 377.023 284.688 375.176C285.694 373.318 287.102 371.838 288.913 370.737C290.736 369.636 292.879 369.104 295.341 369.139ZM295.341 373.045C293.849 373.045 292.506 373.418 291.31 374.164C290.127 374.898 289.186 375.892 288.487 377.147C287.801 378.39 287.457 379.769 287.457 381.284C287.457 382.799 287.789 384.178 288.452 385.421C289.126 386.652 290.044 387.635 291.204 388.369C292.376 389.091 293.707 389.452 295.199 389.452C296.323 389.452 297.371 389.233 298.342 388.795C299.312 388.345 300.159 387.735 300.881 386.966C301.615 386.185 302.189 385.303 302.603 384.32C303.017 383.326 303.224 382.29 303.224 381.213C303.224 379.793 302.881 378.461 302.195 377.218C301.52 375.975 300.585 374.969 299.389 374.2C298.205 373.43 296.856 373.045 295.341 373.045ZM337.338 378.727L327.252 406H322.991L312.906 378.727H317.451L324.98 400.46H325.264L332.792 378.727H337.338Z" fill="black"/>
<path d="M268.944 348V311.636H282.865C285.493 311.636 287.677 312.051 289.417 312.879C291.169 313.696 292.477 314.815 293.341 316.235C294.217 317.656 294.655 319.265 294.655 321.065C294.655 322.544 294.371 323.811 293.802 324.864C293.234 325.906 292.471 326.752 291.512 327.403C290.553 328.054 289.482 328.522 288.298 328.806V329.161C289.588 329.232 290.825 329.629 292.009 330.351C293.205 331.061 294.181 332.067 294.939 333.369C295.696 334.671 296.075 336.246 296.075 338.092C296.075 339.974 295.619 341.667 294.708 343.17C293.796 344.662 292.423 345.84 290.589 346.704C288.754 347.568 286.446 348 283.664 348H268.944ZM275.532 342.496H282.616C285.007 342.496 286.73 342.04 287.783 341.129C288.849 340.205 289.381 339.022 289.381 337.577C289.381 336.5 289.115 335.53 288.582 334.665C288.05 333.79 287.292 333.103 286.309 332.606C285.327 332.097 284.155 331.842 282.794 331.842H275.532V342.496ZM275.532 327.102H282.048C283.184 327.102 284.208 326.894 285.12 326.48C286.031 326.054 286.747 325.456 287.268 324.687C287.801 323.906 288.067 322.982 288.067 321.917C288.067 320.508 287.57 319.348 286.576 318.437C285.593 317.525 284.131 317.07 282.19 317.07H275.532V327.102ZM309.37 348.55C307.641 348.55 306.085 348.243 304.7 347.627C303.327 347 302.238 346.076 301.433 344.857C300.64 343.638 300.243 342.135 300.243 340.347C300.243 338.808 300.527 337.536 301.096 336.53C301.664 335.524 302.439 334.719 303.422 334.115C304.404 333.511 305.511 333.056 306.742 332.748C307.985 332.428 309.269 332.197 310.595 332.055C312.193 331.89 313.489 331.742 314.483 331.612C315.478 331.469 316.2 331.256 316.65 330.972C317.111 330.676 317.342 330.221 317.342 329.605V329.499C317.342 328.161 316.945 327.125 316.152 326.391C315.359 325.657 314.217 325.29 312.726 325.29C311.151 325.29 309.902 325.634 308.979 326.32C308.068 327.007 307.452 327.818 307.132 328.753L301.131 327.901C301.605 326.243 302.386 324.858 303.475 323.746C304.564 322.621 305.895 321.781 307.47 321.224C309.044 320.656 310.784 320.372 312.69 320.372C314.004 320.372 315.312 320.526 316.614 320.834C317.916 321.142 319.106 321.651 320.183 322.361C321.26 323.059 322.124 324.012 322.775 325.219C323.438 326.427 323.77 327.936 323.77 329.747V348H317.591V344.254H317.377C316.987 345.011 316.436 345.721 315.726 346.384C315.028 347.035 314.146 347.562 313.081 347.964C312.027 348.355 310.79 348.55 309.37 348.55ZM311.039 343.827C312.329 343.827 313.448 343.573 314.395 343.064C315.342 342.543 316.069 341.857 316.578 341.004C317.099 340.152 317.36 339.223 317.36 338.217V335.003C317.159 335.169 316.815 335.322 316.33 335.464C315.856 335.607 315.324 335.731 314.732 335.837C314.14 335.944 313.554 336.039 312.974 336.121C312.394 336.204 311.891 336.275 311.465 336.335C310.506 336.465 309.648 336.678 308.89 336.974C308.133 337.27 307.535 337.684 307.097 338.217C306.659 338.737 306.44 339.412 306.44 340.241C306.44 341.424 306.872 342.318 307.736 342.922C308.6 343.526 309.701 343.827 311.039 343.827ZM343.851 320.727V325.699H328.173V320.727H343.851ZM332.044 314.193H338.471V339.797C338.471 340.661 338.601 341.324 338.862 341.786C339.134 342.235 339.489 342.543 339.927 342.709C340.365 342.875 340.851 342.957 341.383 342.957C341.786 342.957 342.153 342.928 342.484 342.869C342.827 342.809 343.088 342.756 343.265 342.709L344.348 347.734C344.005 347.852 343.514 347.982 342.875 348.124C342.247 348.266 341.478 348.349 340.566 348.373C338.957 348.42 337.507 348.178 336.216 347.645C334.926 347.1 333.902 346.26 333.145 345.124C332.399 343.987 332.032 342.567 332.044 340.862V314.193ZM362.845 320.727V325.699H347.167V320.727H362.845ZM351.038 314.193H357.465V339.797C357.465 340.661 357.596 341.324 357.856 341.786C358.128 342.235 358.483 342.543 358.921 342.709C359.359 342.875 359.845 342.957 360.377 342.957C360.78 342.957 361.147 342.928 361.478 342.869C361.821 342.809 362.082 342.756 362.259 342.709L363.343 347.734C362.999 347.852 362.508 347.982 361.869 348.124C361.241 348.266 360.472 348.349 359.561 348.373C357.951 348.42 356.501 348.178 355.21 347.645C353.92 347.1 352.896 346.26 352.139 345.124C351.393 343.987 351.026 342.567 351.038 340.862V314.193ZM380.002 348.533C377.267 348.533 374.906 347.964 372.917 346.828C370.94 345.68 369.419 344.058 368.354 341.963C367.289 339.856 366.756 337.376 366.756 334.523C366.756 331.718 367.289 329.256 368.354 327.137C369.431 325.006 370.935 323.349 372.864 322.165C374.793 320.97 377.06 320.372 379.664 320.372C381.345 320.372 382.931 320.644 384.423 321.189C385.926 321.722 387.252 322.55 388.4 323.675C389.56 324.799 390.472 326.232 391.135 327.972C391.797 329.7 392.129 331.759 392.129 334.151V336.121H369.775V331.789H385.968C385.956 330.558 385.69 329.463 385.169 328.504C384.648 327.534 383.92 326.77 382.985 326.214C382.061 325.657 380.984 325.379 379.753 325.379C378.439 325.379 377.285 325.699 376.291 326.338C375.297 326.965 374.521 327.794 373.965 328.824C373.42 329.842 373.142 330.96 373.13 332.18V335.962C373.13 337.548 373.42 338.909 374 340.045C374.58 341.17 375.391 342.034 376.433 342.638C377.475 343.23 378.694 343.526 380.091 343.526C381.026 343.526 381.872 343.395 382.63 343.135C383.387 342.863 384.044 342.466 384.601 341.945C385.157 341.424 385.577 340.779 385.861 340.01L391.863 340.685C391.484 342.271 390.762 343.656 389.696 344.839C388.643 346.011 387.293 346.923 385.648 347.574C384.003 348.213 382.121 348.533 380.002 348.533ZM397.567 348V320.727H403.799V325.273H404.083C404.58 323.698 405.432 322.485 406.64 321.633C407.859 320.769 409.25 320.337 410.812 320.337C411.167 320.337 411.564 320.354 412.002 320.39C412.452 320.414 412.825 320.455 413.121 320.514V326.427C412.848 326.332 412.416 326.249 411.824 326.178C411.244 326.095 410.682 326.054 410.138 326.054C408.966 326.054 407.912 326.308 406.977 326.817C406.054 327.315 405.326 328.007 404.793 328.895C404.26 329.783 403.994 330.807 403.994 331.967V348H397.567ZM422.216 358.227C421.34 358.227 420.529 358.156 419.783 358.014C419.049 357.884 418.464 357.73 418.026 357.553L419.517 352.545C420.452 352.818 421.287 352.948 422.021 352.936C422.755 352.924 423.4 352.693 423.956 352.244C424.524 351.806 425.004 351.072 425.394 350.042L425.945 348.568L416.055 320.727H422.873L429.158 341.324H429.442L435.746 320.727H442.582L431.662 351.303C431.153 352.747 430.478 353.984 429.638 355.013C428.797 356.055 427.768 356.848 426.548 357.393C425.341 357.949 423.897 358.227 422.216 358.227Z" fill="black"/>
<path d="M256.091 229.042C256.091 222.391 261.482 217 268.133 217V535C261.482 535 256.091 529.609 256.091 522.958V229.042Z" fill="#D9D9D9" fill-opacity="0.35"/>
<path d="M445.55 229.042C445.55 222.391 440.158 217 433.508 217V535C440.158 535 445.55 529.609 445.55 522.958V229.042Z" fill="#D9D9D9" fill-opacity="0.35"/>
<rect x="275.358" y="189" width="39.3368" height="29" fill="#7D7D7D"/>
<rect x="371.693" y="189" width="56.1955" height="29" fill="#7D7D7D"/>
<rect x="371.693" y="189" width="16.8586" height="29" fill="#D9D9D9" fill-opacity="0.44"/>
<rect x="411.03" y="189" width="16.8586" height="29" fill="#D9D9D9" fill-opacity="0.45"/>
<path d="M341.989 162.5C339.194 62.9502 332.757 61.5 135.672 43" stroke="#FA1414" stroke-width="15"/>
<path d="M354.031 161.5C350.419 58.4032 328.743 41.5 132.059 29" stroke="#6F5959" stroke-width="15"/>
<rect x="236.824" y="170" width="220.768" height="19" rx="9.5" fill="#211D1D"/>
<path d="M56.1954 7H97.9406L122.024 10.5333V56.4667L97.9406 60H56.1954V7Z" fill="url(#paint0_linear_598_8896)"/>
<path d="M0 14C0 11.2386 2.23858 9 5 9H56.1955V58H5C2.23858 58 0 55.7614 0 53V14Z" fill="url(#paint1_linear_598_8896)"/>
<path d="M122.024 18L146.108 21.5V53L122.024 55V18Z" fill="url(#paint2_linear_598_8896)"/>
<rect x="62.6178" y="6" width="2.40838" height="55" fill="#495352"/>
<rect x="66.6317" y="6" width="2.40838" height="55" fill="#495352"/>
<rect x="70.6458" y="6" width="2.40838" height="55" fill="#495352"/>
<rect x="74.6597" y="6" width="2.40838" height="55" fill="#495352"/>
<rect x="124.433" y="17" width="2.40838" height="39" fill="#495352"/>
<rect x="130.855" y="18" width="2.40838" height="37" fill="#495352"/>
<rect x="137.277" y="19" width="2.40838" height="36" fill="#495352"/>
<path d="M0 14C0 11.2386 2.23858 9 5 9H5.61955V58H5C2.23858 58 0 55.7614 0 53V14Z" fill="#383737"/>
<path d="M335.166 163C343.88 158.692 349.034 158.732 358.848 163L361.257 172H333.159L335.166 163Z" fill="#211D1D"/>
<defs>
<linearGradient id="paint0_linear_598_8896" x1="89.1099" y1="7" x2="89.1099" y2="60" gradientUnits="userSpaceOnUse">
<stop stop-color="#152020"/>
<stop offset="0.432292" stop-color="#152020" stop-opacity="0.74"/>
<stop offset="0.963542" stop-color="#0B1515" stop-opacity="0.99"/>
</linearGradient>
<linearGradient id="paint1_linear_598_8896" x1="28.0977" y1="9" x2="28.0977" y2="58" gradientUnits="userSpaceOnUse">
<stop stop-color="#CBC9C9"/>
<stop offset="0.469523" stop-color="#CBC9C9" stop-opacity="0"/>
<stop offset="0.963542" stop-color="#5C5B5B" stop-opacity="0.75"/>
</linearGradient>
<linearGradient id="paint2_linear_598_8896" x1="134.066" y1="18" x2="134.066" y2="55" gradientUnits="userSpaceOnUse">
<stop stop-color="#152020"/>
<stop offset="0.526042" stop-color="#212727" stop-opacity="0.84"/>
<stop offset="0.973958" stop-color="#1C2E2E" stop-opacity="0.95"/>
</linearGradient>
</defs>
</svg>
