<svg width="95" height="145" viewBox="0 0 95 145" fill="none" xmlns="http://www.w3.org/2000/svg">
<path d="M89.8259 138.15C89.8259 141.584 70.0079 144.368 45.5619 144.368C21.1159 144.368 1.29785 141.584 1.29785 138.15C1.29785 134.716 21.1159 131.932 45.5619 131.932C70.0079 131.932 89.8259 134.716 89.8259 138.15Z" fill="#C6C5CA"/>
<path d="M85.82 43.8741C85.82 43.8741 84.605 47.2411 78.534 55.7961C78.331 43.1921 61.452 41.0821 68.706 21.0001C54.068 26.5251 45.562 43.6141 47.06 66.1891C43.308 40.6601 27.907 21.8831 0 19.4141C19.889 56.4841 1.299 76.5861 1.299 96.6071C1.299 123.923 25.449 136.657 45.47 136.657C101.749 136.656 99.85 78.3431 85.82 43.8741Z" fill="#EF470C"/>
<path d="M85 93.491C85 93.491 65.311 105.182 53.695 101.64C44.202 98.745 43.417 89.806 40.282 80.149C38.297 74.036 30.665 66.156 24.409 64.686C24.396 64.683 24.383 64.68 24.37 64.677C34.583 82.33 23.922 88.977 27.685 107.664C25.678 97.897 16.413 92.114 16.413 92.114C11.632 108.542 28.387 131.117 45.563 131.117C62.739 131.117 79.105 118.198 85 93.491Z" fill="#EDCA58"/>
<path d="M60.617 55.6641C60.617 55.6641 60.617 64.6621 69.614 75.1591C78.611 85.6561 60.617 96.6531 60.617 96.6531C60.617 96.6531 64.616 91.6541 58.118 80.1581C51.62 68.6611 60.617 55.6641 60.617 55.6641Z" fill="#EDCA58"/>
<path d="M40.3411 0C40.3411 0 40.3411 6 46.3411 13C52.3411 20 40.3411 27.333 40.3411 27.333C40.3411 27.333 43.0081 24 38.6741 16.333C34.3411 8.66701 40.3411 0 40.3411 0Z" fill="#EF470C"/>
</svg>
