<svg width="309" height="108" viewBox="0 0 309 108" fill="none" xmlns="http://www.w3.org/2000/svg">
<g filter="url(#filter0_d_49_1344)">
<rect x="38.125" y="100" width="100" height="218.16" transform="rotate(-90 38.125 100)" fill="#0E26FF"/>
<rect x="232.927" y="17" width="20" height="20" rx="4" fill="#2E2E2E"/>
<rect x="232.927" y="39" width="20" height="20" rx="4" fill="#2E2E2E"/>
<rect x="242.427" y="31.5" width="8" height="51" transform="rotate(-90 242.427 31.5)" fill="#D9D9D9"/>
<rect x="242.427" y="53.5" width="8" height="51" transform="rotate(-90 242.427 53.5)" fill="#D9D9D9"/>
<rect x="232.927" y="61" width="20" height="20" rx="4" fill="#2E2E2E"/>
<rect x="242.427" y="74.5" width="8" height="51" transform="rotate(-90 242.427 74.5)" fill="#D9D9D9"/>
<rect x="107.838" y="43.5" width="39" height="38.9318" transform="rotate(-90 107.838 43.5)" fill="#3BB0D6" stroke="black"/>
<rect x="111.331" y="95" width="42" height="31.9454" transform="rotate(-90 111.331 95)" fill="#434343"/>
<rect x="181.211" y="34" width="8.98465" height="22" transform="rotate(-180 181.211 34)" fill="#D9D9D9"/>
<rect x="60.9169" y="81.5" width="8" height="21.9625" transform="rotate(-90 60.9169 81.5)" fill="#D9D9D9"/>
<rect x="60.9169" y="67.5" width="8" height="21.9625" transform="rotate(-90 60.9169 67.5)" fill="#D9D9D9"/>
<rect x="180.711" y="28.5" width="7.98465" height="11" transform="rotate(-180 180.711 28.5)" fill="#1F1F1F" stroke="black"/>
<rect x="66.9075" y="81.5" width="8" height="10.9795" transform="rotate(-90 66.9075 81.5)" fill="#1F1F1F" stroke="black"/>
<rect x="66.9075" y="67.5" width="8" height="10.9795" transform="rotate(-90 66.9075 67.5)" fill="#1F1F1F" stroke="black"/>
<rect x="181.711" y="92.5" width="7.98636" height="22" transform="rotate(-180 181.711 92.5)" fill="#D9D9D9"/>
<rect x="181.71" y="86.5" width="7.98465" height="10" transform="rotate(-180 181.71 86.5)" fill="white" stroke="black"/>
<g clip-path="url(#clip0_49_1344)">
<rect x="62.5413" y="22" width="9" height="25" rx="4" transform="rotate(-90 62.5413 22)" fill="#D9D9D9"/>
<rect x="71.5413" y="22" width="9" height="7" transform="rotate(-90 71.5413 22)" fill="#FFBD12"/>
</g>
<g clip-path="url(#clip1_49_1344)">
<rect x="62.416" y="37" width="9" height="25" rx="4" transform="rotate(-90 62.416 37)" fill="#D9D9D9"/>
<rect x="71.416" y="37" width="9" height="7" transform="rotate(-90 71.416 37)" fill="#FFBD12"/>
</g>
<rect x="190.196" y="87" width="9" height="23.2986" transform="rotate(-90 190.196 87)" fill="#D9D9D9"/>
<rect x="190.196" y="21" width="9" height="23.2986" transform="rotate(-90 190.196 21)" fill="#D9D9D9"/>
<rect x="196.436" y="86.75" width="8.5" height="11.1493" transform="rotate(-90 196.436 86.75)" fill="white" stroke="black" stroke-width="0.5"/>
<rect x="196.436" y="20.75" width="8.5" height="11.1493" transform="rotate(-90 196.436 20.75)" fill="#FCFCFC" stroke="black" stroke-width="0.5"/>
<path d="M221.946 33.5426L227.074 32.0511V31.9943L221.946 30.5028V28.2727L229.219 30.6733V33.3722L221.946 35.7727V33.5426ZM224.673 21.2415V23.2443C224.508 23.2585 224.357 23.2964 224.222 23.358C224.087 23.4171 223.971 23.5 223.874 23.6065C223.775 23.7107 223.699 23.8374 223.647 23.9865C223.593 24.1357 223.565 24.3049 223.565 24.4943C223.565 24.8258 223.646 25.1063 223.807 25.3359C223.968 25.5632 224.199 25.736 224.499 25.8544C224.8 25.9704 225.161 26.0284 225.582 26.0284C226.027 26.0284 226.4 25.9692 226.701 25.8509C226.999 25.7301 227.224 25.5561 227.376 25.3288C227.525 25.1016 227.599 24.8281 227.599 24.5085C227.599 24.3262 227.577 24.1629 227.532 24.0185C227.485 23.8741 227.417 23.7486 227.33 23.642C227.242 23.5355 227.137 23.4491 227.014 23.3828C226.888 23.3142 226.747 23.268 226.591 23.2443L226.605 21.2415C226.913 21.2652 227.227 21.3516 227.546 21.5007C227.863 21.6499 228.157 21.8617 228.427 22.1364C228.694 22.4086 228.91 22.746 229.073 23.1484C229.237 23.5509 229.318 24.0185 229.318 24.5511C229.318 25.2188 229.175 25.8177 228.889 26.348C228.602 26.8759 228.181 27.2938 227.624 27.6016C227.068 27.907 226.387 28.0597 225.582 28.0597C224.773 28.0597 224.091 27.9034 223.537 27.5909C222.981 27.2784 222.56 26.857 222.276 26.3267C221.99 25.7964 221.847 25.2045 221.847 24.5511C221.847 24.0919 221.909 23.6693 222.035 23.2834C222.16 22.8975 222.344 22.5589 222.585 22.2678C222.824 21.9766 223.119 21.7422 223.469 21.5646C223.82 21.3871 224.221 21.2794 224.673 21.2415ZM224.673 13.5559V15.5588C224.508 15.573 224.357 15.6109 224.222 15.6724C224.087 15.7316 223.971 15.8145 223.874 15.921C223.775 16.0252 223.699 16.1518 223.647 16.301C223.593 16.4501 223.565 16.6194 223.565 16.8088C223.565 17.1402 223.646 17.4208 223.807 17.6504C223.968 17.8777 224.199 18.0505 224.499 18.1689C224.8 18.2849 225.161 18.3429 225.582 18.3429C226.027 18.3429 226.4 18.2837 226.701 18.1653C226.999 18.0446 227.224 17.8706 227.376 17.6433C227.525 17.416 227.599 17.1426 227.599 16.823C227.599 16.6407 227.577 16.4773 227.532 16.3329C227.485 16.1885 227.417 16.063 227.33 15.9565C227.242 15.85 227.137 15.7636 227.014 15.6973C226.888 15.6286 226.747 15.5824 226.591 15.5588L226.605 13.5559C226.913 13.5796 227.227 13.666 227.546 13.8152C227.863 13.9643 228.157 14.1762 228.427 14.4508C228.694 14.7231 228.91 15.0604 229.073 15.4629C229.237 15.8654 229.318 16.3329 229.318 16.8656C229.318 17.5332 229.175 18.1322 228.889 18.6625C228.602 19.1904 228.181 19.6083 227.624 19.916C227.068 20.2214 226.387 20.3741 225.582 20.3741C224.773 20.3741 224.091 20.2179 223.537 19.9054C222.981 19.5929 222.56 19.1715 222.276 18.6412C221.99 18.1109 221.847 17.519 221.847 16.8656C221.847 16.4063 221.909 15.9837 222.035 15.5978C222.16 15.2119 222.344 14.8734 222.585 14.5822C222.824 14.291 223.119 14.0566 223.469 13.8791C223.82 13.7015 224.221 13.5938 224.673 13.5559Z" fill="white"/>
<path d="M224.347 53.8082C224.221 53.839 224.111 53.8875 224.016 53.9538C223.919 54.0201 223.838 54.103 223.771 54.2024C223.703 54.2995 223.652 54.4131 223.619 54.5433C223.583 54.6712 223.565 54.812 223.565 54.9659C223.565 55.2973 223.645 55.5803 223.803 55.8146C223.962 56.0466 224.19 56.2242 224.489 56.3473C224.787 56.468 225.147 56.5284 225.568 56.5284C225.994 56.5284 226.359 56.4704 226.662 56.3544C226.965 56.2384 227.197 56.0656 227.358 55.8359C227.519 55.6063 227.599 55.321 227.599 54.9801C227.599 54.6795 227.556 54.4297 227.468 54.2308C227.38 54.0296 227.256 53.8793 227.095 53.7798C226.934 53.6804 226.745 53.6307 226.527 53.6307L226.563 53.2898V54.9517H225.156V51.7273H226.165C226.828 51.7273 227.395 51.8681 227.866 52.1499C228.335 52.4292 228.694 52.8151 228.945 53.3075C229.194 53.7976 229.318 54.3598 229.318 54.9943C229.318 55.7022 229.168 56.3236 228.867 56.8587C228.567 57.3937 228.138 57.8116 227.582 58.1122C227.025 58.4105 226.364 58.5597 225.597 58.5597C224.995 58.5597 224.463 58.4685 223.999 58.2862C223.535 58.1016 223.143 57.8459 222.823 57.5192C222.501 57.1925 222.259 56.8149 222.095 56.3864C221.929 55.9579 221.847 55.4986 221.847 55.0085C221.847 54.5777 221.908 54.1776 222.031 53.8082C222.152 53.4366 222.325 53.1087 222.55 52.8246C222.772 52.5381 223.036 52.3073 223.342 52.1321C223.647 51.9569 223.982 51.8504 224.347 51.8125V53.8082ZM221.946 44.514H229.219V46.1618L225.398 48.7896V48.8322H229.219V50.8066H221.946V49.1305L225.753 46.5453V46.4885H221.946V44.514ZM229.219 40.7818V43.5801H221.946V40.8102C221.946 40.0621 222.092 39.4158 222.383 38.8713C222.672 38.3244 223.088 37.903 223.633 37.6071C224.175 37.3088 224.825 37.1596 225.582 37.1596C226.34 37.1596 226.991 37.3076 227.536 37.6035C228.078 37.8994 228.494 38.3185 228.786 38.8606C229.074 39.4028 229.219 40.0431 229.219 40.7818ZM227.543 41.6056V40.8528C227.543 40.493 227.485 40.1864 227.369 39.9331C227.253 39.6774 227.053 39.4833 226.768 39.3507C226.484 39.2157 226.089 39.1483 225.582 39.1483C225.076 39.1483 224.68 39.2169 224.396 39.3542C224.112 39.4892 223.912 39.688 223.796 39.9508C223.68 40.2112 223.622 40.5308 223.622 40.9096V41.6056H227.543Z" fill="white"/>
<path d="M225.51 75.4858C226.32 75.4858 227.003 75.6432 227.559 75.9581C228.113 76.273 228.533 76.6979 228.82 77.233C229.104 77.768 229.246 78.3646 229.246 79.0227C229.246 79.6856 229.103 80.2846 228.816 80.8196C228.528 81.3523 228.106 81.776 227.552 82.0909C226.996 82.4034 226.315 82.5597 225.51 82.5597C224.701 82.5597 224.019 82.4034 223.465 82.0909C222.908 81.776 222.488 81.3523 222.204 80.8196C221.918 80.2846 221.774 79.6856 221.774 79.0227C221.774 78.3646 221.918 77.768 222.204 77.233C222.488 76.6979 222.908 76.273 223.465 75.9581C224.019 75.6432 224.701 75.4858 225.51 75.4858ZM225.51 77.517C225.075 77.517 224.708 77.575 224.409 77.6911C224.109 77.8047 223.881 77.974 223.728 78.1989C223.571 78.4214 223.493 78.696 223.493 79.0227C223.493 79.3494 223.571 79.6252 223.728 79.8501C223.881 80.0727 224.109 80.242 224.409 80.358C224.708 80.4716 225.075 80.5284 225.51 80.5284C225.946 80.5284 226.314 80.4716 226.615 80.358C226.913 80.242 227.14 80.0727 227.296 79.8501C227.45 79.6252 227.527 79.3494 227.527 79.0227C227.527 78.696 227.45 78.4214 227.296 78.1989C227.14 77.974 226.913 77.8047 226.615 77.6911C226.314 77.575 225.946 77.517 225.51 77.517ZM221.874 70.2683V68.2939H226.533C227.087 68.2939 227.566 68.4264 227.971 68.6916C228.374 68.9544 228.685 69.3213 228.905 69.7924C229.123 70.2636 229.232 70.8104 229.232 71.4331C229.232 72.0604 229.123 72.6097 228.905 73.0808C228.685 73.5519 228.374 73.9189 227.971 74.1816C227.566 74.4421 227.087 74.5723 226.533 74.5723H221.874V72.5978H226.363C226.587 72.5978 226.789 72.5481 226.966 72.4487C227.141 72.3493 227.279 72.2119 227.378 72.0368C227.478 71.8592 227.527 71.658 227.527 71.4331C227.527 71.2058 227.478 71.0046 227.378 70.8294C227.279 70.6542 227.141 70.5169 226.966 70.4174C226.789 70.318 226.587 70.2683 226.363 70.2683H221.874ZM223.465 67.5543H221.874V61.2333H223.465V63.4208H229.147V65.3668H223.465V67.5543Z" fill="white"/>
<ellipse cx="128.319" cy="23.5" rx="8.5" ry="9.00174" transform="rotate(-90 128.319 23.5)" fill="#D9D9D9"/>
<path d="M128.655 15.5V32" stroke="black"/>
<path d="M137.392 23.75L119.918 23.75" stroke="black"/>
<rect x="143.276" y="61" width="3" height="7.4132" transform="rotate(-90 143.276 61)" fill="#D9D9D9"/>
<rect x="143.276" y="70" width="3" height="7.4132" transform="rotate(-90 143.276 70)" fill="#D9D9D9"/>
<rect x="143.276" y="80" width="3" height="7.4132" transform="rotate(-90 143.276 80)" fill="#D9D9D9"/>
<rect x="143.276" y="90" width="3" height="7.4132" transform="rotate(-90 143.276 90)" fill="#D9D9D9"/>
<rect x="104.343" y="90" width="3" height="7.41319" transform="rotate(-90 104.343 90)" fill="#D9D9D9"/>
<rect x="104.343" y="80" width="3" height="7.41319" transform="rotate(-90 104.343 80)" fill="#D9D9D9"/>
<rect x="104.343" y="70" width="3" height="7.41319" transform="rotate(-90 104.343 70)" fill="#D9D9D9"/>
<rect x="104.343" y="61" width="3" height="7.41319" transform="rotate(-90 104.343 61)" fill="#D9D9D9"/>
<rect x="26.4757" y="43" width="4" height="30.7118" transform="rotate(-90 26.4757 43)" fill="#D9D9D9"/>
<path d="M26.4757 59V55H57.1875V59H26.4757Z" fill="#D9D9D9"/>
<ellipse cx="199.181" cy="48" rx="9" ry="8.98466" transform="rotate(-90 199.181 48)" fill="#D9D9D9"/>
<ellipse cx="44.445" cy="6" rx="3" ry="2.99488" transform="rotate(-90 44.445 6)" fill="#D9D9D9"/>
<ellipse cx="44.445" cy="93" rx="3" ry="2.99488" transform="rotate(-90 44.445 93)" fill="#D9D9D9"/>
</g>
<path d="M14 63C6.26801 63 0 56.732 0 49C0 41.268 6.26802 35 14 35H34.9479V63H14Z" fill="#1C1717"/>
<defs>
<filter id="filter0_d_49_1344" x="22.4757" y="0" width="286.524" height="108" filterUnits="userSpaceOnUse" color-interpolation-filters="sRGB">
<feFlood flood-opacity="0" result="BackgroundImageFix"/>
<feColorMatrix in="SourceAlpha" type="matrix" values="0 0 0 0 0 0 0 0 0 0 0 0 0 0 0 0 0 0 127 0" result="hardAlpha"/>
<feOffset dy="4"/>
<feGaussianBlur stdDeviation="2"/>
<feComposite in2="hardAlpha" operator="out"/>
<feColorMatrix type="matrix" values="0 0 0 0 0 0 0 0 0 0 0 0 0 0 0 0 0 0 0.25 0"/>
<feBlend mode="normal" in2="BackgroundImageFix" result="effect1_dropShadow_49_1344"/>
<feBlend mode="normal" in="SourceGraphic" in2="effect1_dropShadow_49_1344" result="shape"/>
</filter>
<clipPath id="clip0_49_1344">
<rect width="15" height="29.6528" fill="white" transform="matrix(0 -1 1 0 61.5413 22)"/>
</clipPath>
<clipPath id="clip1_49_1344">
<rect width="15" height="29.6528" fill="white" transform="matrix(0 -1 1 0 61.416 41)"/>
</clipPath>
</defs>
</svg>
