<svg width="240" height="93" viewBox="0 0 240 93" fill="none" xmlns="http://www.w3.org/2000/svg">
<rect x="0.718384" y="92.0906" width="90.809" height="207.736" transform="rotate(-90 0.718384 92.0906)" fill="url(#paint0_linear_127_954)" stroke="black"/>
<path d="M92.6499 88.1715V83.1322H94.3526C94.7463 83.1322 95.0695 83.1995 95.3221 83.334C95.5747 83.4668 95.7617 83.6497 95.8831 83.8827C96.0045 84.1156 96.0652 84.3805 96.0652 84.6774C96.0652 84.9744 96.0045 85.2376 95.8831 85.4673C95.7617 85.6969 95.5755 85.8774 95.3245 86.0086C95.0736 86.1382 94.7529 86.203 94.3625 86.203H92.9845V85.6518H94.3428C94.6118 85.6518 94.8283 85.6125 94.9924 85.5337C95.1581 85.455 95.2778 85.3434 95.3516 85.1991C95.4271 85.0531 95.4648 84.8792 95.4648 84.6774C95.4648 84.4757 95.4271 84.2993 95.3516 84.1484C95.2762 83.9975 95.1556 83.881 94.9899 83.799C94.8242 83.7154 94.6052 83.6735 94.3329 83.6735H93.2601V88.1715H92.6499ZM95.0219 85.9077L96.262 88.1715H95.5534L94.3329 85.9077H95.0219Z" fill="#FDEEEE"/>
<path d="M91.6238 85.6518C91.6238 86.1832 91.5278 86.6425 91.3359 87.0297C91.144 87.4168 90.8807 87.7154 90.546 87.9253C90.2114 88.1353 89.8292 88.2403 89.3994 88.2403C88.9696 88.2403 88.5874 88.1353 88.2528 87.9253C87.9181 87.7154 87.6549 87.4168 87.4629 87.0297C87.271 86.6425 87.175 86.1832 87.175 85.6518C87.175 85.1203 87.271 84.661 87.4629 84.2738C87.6549 83.8867 87.9181 83.5882 88.2528 83.3782C88.5874 83.1682 88.9696 83.0632 89.3994 83.0632C89.8292 83.0632 90.2114 83.1682 90.546 83.3782C90.8807 83.5882 91.144 83.8867 91.3359 84.2738C91.5278 84.661 91.6238 85.1203 91.6238 85.6518ZM91.0332 85.6518C91.0332 85.2154 90.9602 84.8471 90.8142 84.547C90.6699 84.2468 90.4739 84.0196 90.2262 83.8654C89.9801 83.7112 89.7045 83.6341 89.3994 83.6341C89.0943 83.6341 88.8179 83.7112 88.5702 83.8654C88.3241 84.0196 88.1281 84.2468 87.9821 84.547C87.8378 84.8471 87.7656 85.2154 87.7656 85.6518C87.7656 86.0881 87.8378 86.4564 87.9821 86.7566C88.1281 87.0567 88.3241 87.2839 88.5702 87.4381C88.8179 87.5923 89.0943 87.6694 89.3994 87.6694C89.7045 87.6694 89.9801 87.5923 90.2262 87.4381C90.4739 87.2839 90.6699 87.0567 90.8142 86.7566C90.9602 86.4564 91.0332 86.0881 91.0332 85.6518Z" fill="#FDEEEE"/>
<path d="M85.7092 84.3919C85.6797 84.1426 85.5599 83.949 85.3499 83.8112C85.14 83.6735 84.8824 83.6046 84.5773 83.6046C84.3542 83.6046 84.159 83.6406 83.9917 83.7128C83.826 83.785 83.6964 83.8842 83.6029 84.0106C83.5111 84.1369 83.4651 84.2804 83.4651 84.4412C83.4651 84.5757 83.4971 84.6913 83.5611 84.7881C83.6267 84.8832 83.7104 84.9628 83.8121 85.0268C83.9138 85.0891 84.0204 85.1408 84.132 85.1818C84.2435 85.2212 84.346 85.2531 84.4395 85.2778L84.9513 85.4155C85.0826 85.45 85.2286 85.4976 85.3893 85.5583C85.5517 85.619 85.7067 85.7018 85.8544 85.8068C86.0036 85.9101 86.1267 86.043 86.2235 86.2054C86.3202 86.3678 86.3686 86.5671 86.3686 86.8033C86.3686 87.0756 86.2973 87.3217 86.1546 87.5415C86.0135 87.7613 85.8068 87.936 85.5345 88.0656C85.2638 88.1952 84.9349 88.26 84.5478 88.26C84.1869 88.26 83.8744 88.2017 83.6103 88.0853C83.3479 87.9688 83.1412 87.8064 82.9903 87.5981C82.841 87.3897 82.7565 87.1478 82.7368 86.8722H83.3667C83.3831 87.0625 83.4471 87.22 83.5586 87.3446C83.6718 87.4677 83.8146 87.5595 83.9868 87.6202C84.1607 87.6793 84.3477 87.7088 84.5478 87.7088C84.7807 87.7088 84.9899 87.6711 85.1752 87.5956C85.3606 87.5185 85.5074 87.4119 85.6157 87.2757C85.724 87.1379 85.7781 86.9772 85.7781 86.7935C85.7781 86.6261 85.7313 86.49 85.6378 86.385C85.5443 86.28 85.4213 86.1947 85.2688 86.1291C85.1162 86.0635 84.9513 86.0061 84.7742 85.9569L84.1541 85.7797C83.7604 85.6665 83.4487 85.5049 83.2191 85.295C82.9894 85.085 82.8746 84.8102 82.8746 84.4707C82.8746 84.1885 82.9509 83.9425 83.1034 83.7325C83.2576 83.5209 83.4643 83.3569 83.7235 83.2404C83.9843 83.1223 84.2755 83.0632 84.597 83.0632C84.9218 83.0632 85.2105 83.1215 85.4631 83.2379C85.7158 83.3528 85.9159 83.5102 86.0635 83.7104C86.2128 83.9105 86.2915 84.1377 86.2997 84.3919H85.7092Z" fill="#FDEEEE"/>
<path d="M81.7323 83.1322V88.1715H81.1418L78.3958 84.2149H78.3466V88.1715H77.7363V83.1322H78.3269L81.0827 87.0986H81.1319V83.1322H81.7323Z" fill="#FDEEEE"/>
<path d="M73.5952 88.1715V83.1322H76.6365V83.6735H74.2054V85.3762H76.479V85.9176H74.2054V87.6301H76.6759V88.1715H73.5952Z" fill="#FDEEEE"/>
<path d="M71.9325 84.3919C71.9029 84.1426 71.7832 83.949 71.5732 83.8112C71.3632 83.6735 71.1057 83.6046 70.8006 83.6046C70.5775 83.6046 70.3823 83.6406 70.215 83.7128C70.0493 83.785 69.9197 83.8842 69.8262 84.0106C69.7343 84.1369 69.6884 84.2804 69.6884 84.4412C69.6884 84.5757 69.7204 84.6913 69.7844 84.7881C69.85 84.8832 69.9336 84.9628 70.0354 85.0268C70.1371 85.0891 70.2437 85.1408 70.3552 85.1818C70.4668 85.2212 70.5693 85.2531 70.6628 85.2778L71.1746 85.4155C71.3058 85.45 71.4518 85.4976 71.6126 85.5583C71.775 85.619 71.93 85.7018 72.0776 85.8068C72.2269 85.9101 72.3499 86.043 72.4467 86.2054C72.5435 86.3678 72.5919 86.5671 72.5919 86.8033C72.5919 87.0756 72.5205 87.3217 72.3778 87.5415C72.2367 87.7613 72.0301 87.936 71.7578 88.0656C71.4871 88.1952 71.1582 88.26 70.7711 88.26C70.4102 88.26 70.0977 88.2017 69.8336 88.0853C69.5711 87.9688 69.3644 87.8064 69.2135 87.5981C69.0642 87.3897 68.9798 87.1478 68.9601 86.8722H69.59C69.6064 87.0625 69.6704 87.22 69.7819 87.3446C69.8951 87.4677 70.0378 87.5595 70.2101 87.6202C70.3839 87.6793 70.5709 87.7088 70.7711 87.7088C71.004 87.7088 71.2131 87.6711 71.3985 87.5956C71.5839 87.5185 71.7307 87.4119 71.839 87.2757C71.9472 87.1379 72.0014 86.9772 72.0014 86.7935C72.0014 86.6261 71.9546 86.49 71.8611 86.385C71.7676 86.28 71.6446 86.1947 71.492 86.1291C71.3395 86.0635 71.1746 86.0061 70.9974 85.9569L70.3774 85.7797C69.9837 85.6665 69.672 85.5049 69.4424 85.295C69.2127 85.085 69.0979 84.8102 69.0979 84.4707C69.0979 84.1885 69.1742 83.9425 69.3267 83.7325C69.4809 83.5209 69.6876 83.3569 69.9468 83.2404C70.2076 83.1223 70.4988 83.0632 70.8203 83.0632C71.1451 83.0632 71.4338 83.1215 71.6864 83.2379C71.939 83.3528 72.1391 83.5102 72.2868 83.7104C72.4361 83.9105 72.5148 84.1377 72.523 84.3919H71.9325Z" fill="#FDEEEE"/>
<path d="M62.7958 88.1715V83.1322H64.4985C64.8922 83.1322 65.2153 83.1995 65.468 83.334C65.7206 83.4668 65.9076 83.6497 66.029 83.8827C66.1504 84.1156 66.2111 84.3805 66.2111 84.6774C66.2111 84.9744 66.1504 85.2376 66.029 85.4673C65.9076 85.6969 65.7214 85.8774 65.4704 86.0086C65.2194 86.1382 64.8987 86.203 64.5083 86.203H63.1304V85.6518H64.4887C64.7577 85.6518 64.9742 85.6125 65.1382 85.5337C65.3039 85.455 65.4237 85.3434 65.4975 85.1991C65.5729 85.0531 65.6107 84.8792 65.6107 84.6774C65.6107 84.4757 65.5729 84.2993 65.4975 84.1484C65.422 83.9975 65.3015 83.881 65.1358 83.799C64.9701 83.7154 64.7511 83.6735 64.4788 83.6735H63.406V88.1715H62.7958ZM65.1678 85.9077L66.4079 88.1715H65.6993L64.4788 85.9077H65.1678Z" fill="#FDEEEE"/>
<path d="M59.3706 88.1715H57.8156V83.1322H59.4395C59.9284 83.1322 60.3467 83.2331 60.6944 83.4349C61.0422 83.635 61.3087 83.9229 61.4941 84.2985C61.6795 84.6725 61.7722 85.1203 61.7722 85.642C61.7722 86.1669 61.6787 86.6188 61.4917 86.9978C61.3046 87.3751 61.0323 87.6654 60.6747 87.8688C60.3171 88.0706 59.8824 88.1715 59.3706 88.1715ZM58.4258 87.6301H59.3313C59.7479 87.6301 60.0932 87.5498 60.3672 87.389C60.6411 87.2282 60.8453 86.9994 60.9799 86.7025C61.1144 86.4056 61.1816 86.0521 61.1816 85.642C61.1816 85.2352 61.1152 84.885 60.9823 84.5913C60.8494 84.2961 60.651 84.0697 60.3869 83.9122C60.1228 83.7531 59.7939 83.6735 59.4002 83.6735H58.4258V87.6301Z" fill="#FDEEEE"/>
<path d="M53.918 88.1715V83.1322H54.5282V87.6301H56.8707V88.1715H53.918Z" fill="#FDEEEE"/>
<path d="M108.051 70.9375C112.117 70.9375 115.413 74.2336 115.413 78.2996C115.413 82.3655 112.117 85.6616 108.051 85.6616C103.985 85.6616 100.689 82.3655 100.689 78.2996C100.689 74.2336 103.985 70.9375 108.051 70.9375Z" fill="#B72F2F"/>
<path fill-rule="evenodd" clip-rule="evenodd" d="M115.159 78.2996C115.159 74.3738 111.976 71.1914 108.051 71.1914C104.125 71.1914 100.942 74.3738 100.942 78.2996C100.942 82.2253 104.125 85.4078 108.051 85.4078C111.976 85.4078 115.159 82.2253 115.159 78.2996ZM115.413 78.2996C115.413 74.2336 112.117 70.9375 108.051 70.9375C103.985 70.9375 100.689 74.2336 100.689 78.2996C100.689 82.3655 103.985 85.6616 108.051 85.6616C112.117 85.6616 115.413 82.3655 115.413 78.2996Z" fill="black"/>
<g filter="url(#filter0_i_127_954)">
<path d="M108.051 71.9529C111.556 71.9529 114.397 74.7944 114.397 78.2995C114.397 81.8047 111.556 84.6461 108.051 84.6461C104.546 84.6461 101.704 81.8047 101.704 78.2995C101.704 74.7944 104.546 71.9529 108.051 71.9529Z" fill="url(#paint1_linear_127_954)"/>
</g>
<path d="M12.3441 59.678C7.56062 59.678 3.68286 55.8002 3.68286 51.0168L3.68286 41.4894C3.68286 36.7059 7.56062 32.8282 12.3441 32.8282V32.8282C17.1275 32.8282 21.0053 36.7059 21.0053 41.4894V51.0168C21.0053 55.8002 17.1275 59.678 12.3441 59.678V59.678Z" fill="#EBE782"/>
<path fill-rule="evenodd" clip-rule="evenodd" d="M4.54898 41.4894V51.0168C4.54898 55.3219 8.03897 58.8119 12.3441 58.8119C16.6492 58.8119 20.1392 55.3219 20.1392 51.0168V41.4894C20.1392 37.1843 16.6492 33.6943 12.3441 33.6943C8.03897 33.6943 4.54898 37.1843 4.54898 41.4894ZM3.68286 51.0168C3.68286 55.8002 7.56062 59.678 12.3441 59.678C17.1275 59.678 21.0053 55.8002 21.0053 51.0168V41.4894C21.0053 36.7059 17.1275 32.8282 12.3441 32.8282C7.56062 32.8282 3.68286 36.7059 3.68286 41.4894L3.68286 51.0168Z" fill="#E48125"/>
<path fill-rule="evenodd" clip-rule="evenodd" d="M6.71427 41.7005V56.6465H5.84814V41.2818L6.00988 41.1518C6.62839 40.6546 7.19599 40.3293 7.81436 40.3301C8.43518 40.3308 8.99207 40.6599 9.58941 41.1563L9.7457 41.2861V50.3624C10.1761 50.6615 10.4801 50.7747 10.7641 50.777C11.0562 50.7794 11.4006 50.6652 11.911 50.3477V41.2645L12.095 41.1351C12.6775 40.7255 13.2027 40.4489 13.7425 40.4474C14.3053 40.4457 14.7715 40.7399 15.237 41.1719L15.3755 41.3004V50.3716C15.8437 50.7235 16.1582 50.8554 16.4361 50.8601C16.7122 50.8648 17.0416 50.7445 17.5408 50.3712V35.8595H18.4069V50.7921L18.244 50.9221C17.6121 51.4264 17.0396 51.7365 16.4215 51.7261C15.8073 51.7158 15.258 51.3897 14.6723 50.9221L14.5094 50.792V41.6835C14.1736 41.3983 13.9477 41.3129 13.745 41.3135C13.5213 41.3141 13.2335 41.4177 12.7771 41.7182V50.8154L12.5842 50.944C11.9277 51.3815 11.3526 51.6479 10.7571 51.6431C10.1547 51.6382 9.62294 51.3572 9.05298 50.9302L8.87957 50.8003V41.6963C8.40343 41.3244 8.0868 41.1965 7.81327 41.1962C7.53731 41.1958 7.21054 41.3249 6.71427 41.7005Z" fill="#E48125"/>
<path d="M12.3441 55.3473C12.8225 55.3473 13.2103 55.7351 13.2103 56.2135C13.2103 56.6918 12.8225 57.0796 12.3441 57.0796C11.8658 57.0796 11.478 56.6918 11.478 56.2135C11.478 55.7351 11.8658 55.3473 12.3441 55.3473Z" fill="#9A9797"/>
<path d="M12.3441 34.5604C12.8225 34.5604 13.2103 34.9481 13.2103 35.4265C13.2103 35.9048 12.8225 36.2926 12.3441 36.2926C11.8658 36.2926 11.478 35.9048 11.478 35.4265C11.478 34.9481 11.8658 34.5604 12.3441 34.5604Z" fill="#9A9797"/>
<path d="M108.051 7.71054C112.595 7.71054 116.279 11.3944 116.279 15.9387C116.279 20.483 112.595 24.1669 108.051 24.1669C103.506 24.1669 99.8225 20.483 99.8225 15.9387C99.8225 11.3944 103.506 7.71054 108.051 7.71054Z" fill="#2FB79E"/>
<path fill-rule="evenodd" clip-rule="evenodd" d="M115.995 15.9387C115.995 11.5511 112.438 7.99427 108.051 7.99427C103.663 7.99427 100.106 11.5511 100.106 15.9387C100.106 20.3263 103.663 23.8831 108.051 23.8831C112.438 23.8831 115.995 20.3263 115.995 15.9387ZM116.279 15.9387C116.279 11.3944 112.595 7.71054 108.051 7.71054C103.506 7.71054 99.8225 11.3944 99.8225 15.9387C99.8225 20.483 103.506 24.1669 108.051 24.1669C112.595 24.1669 116.279 20.483 116.279 15.9387Z" fill="black"/>
<g filter="url(#filter1_i_127_954)">
<path d="M108.051 8.5767C112.117 8.5767 115.413 11.8728 115.413 15.9387C115.413 20.0047 112.117 23.3008 108.051 23.3008C103.985 23.3008 100.689 20.0047 100.689 15.9387C100.689 11.8728 103.985 8.5767 108.051 8.5767Z" fill="url(#paint2_linear_127_954)"/>
</g>
<path d="M124.94 82.1971V75.2682H150.924V82.1971H124.94Z" fill="#3BB0D6"/>
<path d="M126.672 73.5359C129.542 73.5359 131.869 75.8625 131.869 78.7326C131.869 81.6027 129.542 83.9293 126.672 83.9293C123.802 83.9293 121.476 81.6027 121.476 78.7326C121.476 75.8625 123.802 73.5359 126.672 73.5359Z" fill="#3BB0D6"/>
<path d="M146.593 73.5359C149.463 73.5359 151.79 75.8625 151.79 78.7326C151.79 81.6027 149.463 83.9293 146.593 83.9293C143.723 83.9293 141.396 81.6027 141.396 78.7326C141.396 75.8625 143.723 73.5359 146.593 73.5359Z" fill="#3BB0D6"/>
<path d="M132.735 82.1971V75.2682H134.467V82.1971H132.735Z" fill="#291C0F"/>
<path d="M125.806 83.9293V73.5359H127.538V83.9293H125.806Z" fill="#FFBD12"/>
<path d="M146.593 83.9293V73.5359H148.325V83.9293H146.593Z" fill="#F92828"/>
<path d="M137.066 82.1971V75.2682H138.798V82.1971H137.066Z" fill="#291C0F"/>
<path d="M141.396 82.1971V75.2682H143.129V82.1971H141.396Z" fill="#EF2121"/>
<path d="M119.743 80.4648V77.8665H121.476V80.4648H119.743Z" fill="#D9D9D9"/>
<path d="M151.79 80.4648V77.8665H154.388V80.4648H151.79Z" fill="#D9D9D9"/>
<path d="M129.271 17.2379V10.3089H155.254V17.2379H129.271Z" fill="#3BB0D6"/>
<path d="M131.003 8.57674C133.873 8.57674 136.2 10.9034 136.2 13.7735C136.2 16.6436 133.873 18.9702 131.003 18.9702C128.133 18.9702 125.806 16.6436 125.806 13.7735C125.806 10.9034 128.133 8.57674 131.003 8.57674Z" fill="#3BB0D6"/>
<path d="M150.924 8.57674C153.794 8.57674 156.12 10.9034 156.12 13.7735C156.12 16.6436 153.794 18.9702 150.924 18.9702C148.054 18.9702 145.727 16.6436 145.727 13.7735C145.727 10.9034 148.054 8.57674 150.924 8.57674Z" fill="#3BB0D6"/>
<path d="M137.066 17.2379V10.3089H138.798V17.2379H137.066Z" fill="#291C0F"/>
<path d="M130.137 18.9702V8.57674H131.869V18.9702H130.137Z" fill="#FFBD12"/>
<path d="M150.924 18.9702V8.57674H152.656V18.9702H150.924Z" fill="#F92828"/>
<path d="M141.396 17.2379V10.3089H143.128V17.2379H141.396Z" fill="#291C0F"/>
<path d="M145.727 17.2379V10.3089H147.459V17.2379H145.727Z" fill="#EF2121"/>
<path d="M124.074 15.5057V12.9074H125.806V15.5057H124.074Z" fill="#D9D9D9"/>
<path d="M156.12 15.5057V12.9074H158.719V15.5057H156.12Z" fill="#D9D9D9"/>
<path d="M126.672 57.0796V32.8282H157.853V57.0796H126.672Z" fill="#434343"/>
<path d="M129.271 64.0085V57.0796H134.467V64.0085H129.271Z" fill="#D9D9D9"/>
<path d="M129.271 32.8281V25.8991H134.467V32.8281H129.271Z" fill="#D9D9D9"/>
<path d="M137.066 64.0085V57.0796H141.396V64.0085H137.066Z" fill="#D9D9D9"/>
<path d="M137.066 32.8281V25.8991H141.396V32.8281H137.066Z" fill="#D9D9D9"/>
<path d="M143.995 64.0085V57.0796H148.325V64.0085H143.995Z" fill="#D9D9D9"/>
<path d="M143.995 32.8281V25.033H148.325V32.8281H143.995Z" fill="#D9D9D9"/>
<path d="M150.924 64.0085V57.0796H155.254V64.0085H150.924Z" fill="#D9D9D9"/>
<path d="M150.924 32.8281V25.8991H155.254V32.8281H150.924Z" fill="#D9D9D9"/>
<path d="M133.978 47.4466C134.247 47.4466 134.484 47.4941 134.69 47.5892C134.894 47.6856 135.054 47.8178 135.168 47.9859C135.283 48.1552 135.34 48.348 135.338 48.5642C135.34 48.7336 135.307 48.8899 135.239 49.0332C135.171 49.1778 135.079 49.2983 134.961 49.3947C134.843 49.4924 134.711 49.5543 134.565 49.5803V49.6038C134.756 49.6533 134.909 49.7607 135.022 49.9262C135.135 50.0929 135.191 50.2824 135.19 50.4948C135.191 50.698 135.14 50.8797 135.036 51.0399C134.931 51.2002 134.788 51.3265 134.606 51.419C134.422 51.5115 134.213 51.5577 133.978 51.5577C133.747 51.5577 133.539 51.5115 133.357 51.419C133.175 51.3265 133.031 51.2002 132.927 51.0399C132.822 50.8797 132.768 50.698 132.767 50.4948C132.768 50.2824 132.826 50.0929 132.941 49.9262C133.054 49.7607 133.205 49.6533 133.392 49.6038V49.5803C133.248 49.5543 133.117 49.4924 133.001 49.3947C132.886 49.2983 132.793 49.1778 132.724 49.0332C132.655 48.8899 132.62 48.7336 132.619 48.5642C132.62 48.348 132.678 48.1552 132.794 47.9859C132.909 47.8178 133.069 47.6856 133.273 47.5892C133.476 47.4941 133.711 47.4466 133.978 47.4466ZM133.978 47.8764C133.797 47.8764 133.641 47.9057 133.51 47.9644C133.378 48.023 133.276 48.1057 133.205 48.2125C133.133 48.3193 133.097 48.4444 133.095 48.5877C133.097 48.7388 133.136 48.8723 133.213 48.9882C133.289 49.1042 133.394 49.1954 133.527 49.2618C133.659 49.3282 133.809 49.3615 133.978 49.3615C134.149 49.3615 134.302 49.3282 134.436 49.2618C134.569 49.1954 134.673 49.1042 134.75 48.9882C134.826 48.8723 134.863 48.7388 134.862 48.5877C134.863 48.4444 134.828 48.3193 134.758 48.2125C134.686 48.1057 134.584 48.023 134.451 47.9644C134.318 47.9057 134.161 47.8764 133.978 47.8764ZM133.978 49.7757C133.835 49.7757 133.708 49.8044 133.597 49.8617C133.485 49.919 133.398 49.9991 133.334 50.102C133.27 50.2049 133.237 50.3254 133.236 50.4635C133.237 50.599 133.269 50.7169 133.332 50.8172C133.394 50.9188 133.481 50.9969 133.592 51.0517C133.702 51.1077 133.831 51.1357 133.978 51.1357C134.128 51.1357 134.259 51.1077 134.371 51.0517C134.483 50.9969 134.57 50.9188 134.631 50.8172C134.692 50.7169 134.722 50.599 134.721 50.4635C134.722 50.3254 134.692 50.2049 134.629 50.102C134.565 49.9991 134.477 49.919 134.365 49.8617C134.253 49.8044 134.124 49.7757 133.978 49.7757Z" fill="black"/>
<path d="M137.357 47.4466C137.587 47.4466 137.793 47.4922 137.977 47.5834C138.161 47.6745 138.308 47.7996 138.418 47.9585C138.529 48.1174 138.59 48.2985 138.6 48.5017H138.131C138.113 48.3207 138.031 48.1709 137.885 48.0523C137.738 47.9351 137.562 47.8765 137.357 47.8765C137.193 47.8765 137.047 47.9149 136.92 47.9917C136.791 48.0686 136.69 48.1741 136.617 48.3083C136.543 48.4438 136.506 48.5968 136.506 48.7675C136.506 48.942 136.544 49.0977 136.621 49.2345C136.696 49.3726 136.801 49.4813 136.933 49.5608C137.066 49.6403 137.218 49.6806 137.389 49.6819C137.511 49.6832 137.637 49.6644 137.766 49.6253C137.895 49.5875 138.001 49.5386 138.084 49.4787L138.538 49.5334L138.295 51.5031H136.216V51.0732H137.889L138.03 49.893H138.006C137.924 49.9581 137.821 50.0122 137.697 50.0551C137.574 50.0981 137.445 50.1196 137.311 50.1196C137.066 50.1196 136.847 50.061 136.656 49.9438C136.463 49.8278 136.312 49.6689 136.203 49.467C136.092 49.2651 136.037 49.0345 136.037 48.7753C136.037 48.52 136.094 48.292 136.209 48.0914C136.322 47.8921 136.478 47.7345 136.677 47.6185C136.877 47.5039 137.103 47.4466 137.357 47.4466Z" fill="black"/>
<path d="M140.759 47.4466C141.017 47.4466 141.247 47.4908 141.449 47.5794C141.65 47.668 141.809 47.7911 141.928 47.9487C142.045 48.1077 142.109 48.292 142.119 48.5017H141.627C141.616 48.3727 141.572 48.2614 141.494 48.1676C141.416 48.0751 141.314 48.0034 141.187 47.9526C141.061 47.9018 140.921 47.8764 140.767 47.8764C140.595 47.8764 140.443 47.9064 140.31 47.9663C140.177 48.0262 140.073 48.1096 139.997 48.2164C139.922 48.3232 139.884 48.447 139.884 48.5877C139.884 48.7349 139.92 48.8645 139.993 48.9765C140.066 49.0899 140.173 49.1784 140.314 49.2423C140.454 49.3061 140.626 49.338 140.83 49.338H141.15V49.7679H140.83C140.671 49.7679 140.531 49.7965 140.411 49.8539C140.29 49.9112 140.196 49.9919 140.128 50.0962C140.059 50.2004 140.025 50.3228 140.025 50.4635C140.025 50.599 140.055 50.7169 140.114 50.8172C140.174 50.9175 140.259 50.9956 140.368 51.0517C140.477 51.1077 140.604 51.1357 140.751 51.1357C140.89 51.1357 141.02 51.1103 141.142 51.0595C141.263 51.01 141.362 50.9377 141.439 50.8426C141.516 50.7488 141.558 50.6355 141.564 50.5026H142.033C142.025 50.7123 141.962 50.896 141.844 51.0536C141.725 51.2125 141.57 51.3363 141.379 51.4249C141.186 51.5134 140.974 51.5577 140.744 51.5577C140.496 51.5577 140.284 51.5076 140.107 51.4073C139.929 51.3083 139.793 51.1774 139.698 51.0145C139.603 50.8517 139.556 50.6758 139.556 50.487C139.556 50.2616 139.615 50.0695 139.733 49.9105C139.851 49.7516 140.01 49.6415 140.212 49.5803V49.549C139.959 49.5074 139.762 49.3999 139.62 49.2266C139.478 49.0547 139.407 48.8417 139.407 48.5877C139.407 48.3701 139.466 48.1747 139.585 48.0015C139.702 47.8295 139.862 47.6941 140.066 47.5951C140.269 47.4961 140.5 47.4466 140.759 47.4466Z" fill="black"/>
<path d="M146.936 51.5031H146.358L144.998 48.1813H144.951L143.591 51.5031H143.013V47.5013H143.466V50.5417H143.505L144.756 47.5013H145.193L146.444 50.5417H146.483V47.5013H146.936V51.5031Z" fill="black"/>
<path d="M150.031 47.5013V51.5031H149.547V47.9312H147.687V47.5013H150.031Z" fill="black"/>
<path d="M157.203 48.4183C155.648 48.4183 154.388 47.0611 154.388 45.3869V45.3869C154.388 43.7127 155.648 42.3555 157.203 42.3555H157.853V48.4183H157.203Z" fill="#1A1818"/>
<rect x="42.1422" y="50.6667" width="31.3465" height="31.3465" transform="rotate(-90 42.1422 50.6667)" fill="#3BB0D6" stroke="black" stroke-width="0.7"/>
<circle cx="57.8156" cy="34.1273" r="4.26367" transform="rotate(-90 57.8156 34.1273)" fill="#D9D9D9" stroke="black"/>
<line x1="53.0519" y1="34.0603" x2="62.5792" y2="34.0603" stroke="black"/>
<path d="M191.954 72.3203C190.04 72.3203 188.489 70.7692 188.489 68.8558V58.4624C188.489 56.549 190.04 54.9979 191.954 54.9979H202.347C204.261 54.9979 205.812 56.549 205.812 58.4624V68.8558C205.812 70.7692 204.261 72.3203 202.347 72.3203H191.954Z" fill="#2E2E2E"/>
<path d="M191.954 54.1317C190.04 54.1317 188.489 52.5806 188.489 50.6672V40.2738C188.489 38.3604 190.04 36.8093 191.954 36.8093H202.347C204.261 36.8093 205.812 38.3604 205.812 40.2738V50.6672C205.812 52.5806 204.261 54.1317 202.347 54.1317H191.954Z" fill="#2E2E2E"/>
<path d="M191.954 35.9432C190.04 35.9432 188.489 34.3921 188.489 32.4787V22.0853C188.489 20.1719 190.04 18.6208 191.954 18.6208H202.347C204.261 18.6208 205.812 20.1719 205.812 22.0853V32.4787C205.812 34.3921 204.261 35.9432 202.347 35.9432H191.954Z" fill="#2E2E2E"/>
<path d="M195.418 67.1235V60.1946H239.591V67.1235H195.418Z" fill="#D9D9D9"/>
<path d="M195.418 48.9351V42.0061H239.591V48.9351H195.418Z" fill="#D9D9D9"/>
<path d="M195.418 30.7465V23.8175H239.591V30.7465H195.418Z" fill="#D9D9D9"/>
<path d="M184.159 58.3879V60.3318H177.86V58.3018C177.86 57.6908 177.986 57.1679 178.238 56.7332C178.488 56.2985 178.848 55.9653 179.318 55.7336C179.785 55.5019 180.345 55.386 180.997 55.386C181.653 55.386 182.218 55.5029 182.692 55.7367C183.163 55.9704 183.526 56.3108 183.781 56.7578C184.033 57.2048 184.159 57.7482 184.159 58.3879ZM183.482 59.569V58.4371C183.482 57.9163 183.382 57.4847 183.181 57.1423C182.98 56.7998 182.694 56.5446 182.323 56.3764C181.951 56.2083 181.51 56.1242 180.997 56.1242C180.488 56.1242 180.051 56.2072 179.684 56.3733C179.315 56.5394 179.032 56.7875 178.835 57.1177C178.636 57.4478 178.536 57.8589 178.536 58.351V59.569H183.482Z" fill="#FFFBFB"/>
<path d="M177.86 61.8581H184.159V62.5962L179.213 66.0287V66.0902H184.159V66.853H177.86V66.1149L182.818 62.67V62.6085H177.86V61.8581Z" fill="#FFFBFB"/>
<path d="M179.828 68.9838C179.621 69.0515 179.435 69.1407 179.271 69.2514C179.105 69.3601 178.964 69.4903 178.847 69.642C178.73 69.7917 178.641 69.9619 178.579 70.1526C178.518 70.3433 178.487 70.5524 178.487 70.78C178.487 71.1532 178.583 71.4926 178.776 71.7981C178.969 72.1036 179.253 72.3466 179.628 72.5271C180.003 72.7075 180.464 72.7977 181.009 72.7977C181.555 72.7977 182.015 72.7065 182.39 72.524C182.765 72.3415 183.049 72.0944 183.242 71.7827C183.435 71.4711 183.531 71.1204 183.531 70.7308C183.531 70.3699 183.454 70.0521 183.301 69.7774C183.145 69.5005 182.925 69.2852 182.642 69.1315C182.357 68.9756 182.022 68.8977 181.637 68.8977L181.686 68.6639V70.5586H181.009V68.1595H181.686C182.205 68.1595 182.656 68.2703 183.039 68.4917C183.423 68.7111 183.72 69.0146 183.931 69.4021C184.14 69.7876 184.245 70.2305 184.245 70.7308C184.245 71.2886 184.114 71.7786 183.851 72.201C183.589 72.6214 183.216 72.9495 182.732 73.1853C182.248 73.419 181.674 73.5359 181.009 73.5359C180.511 73.5359 180.063 73.4692 179.665 73.336C179.265 73.2006 178.925 73.0099 178.644 72.7639C178.363 72.5178 178.148 72.2267 177.998 71.8904C177.848 71.5541 177.774 71.184 177.774 70.78C177.774 70.4479 177.824 70.1382 177.924 69.8512C178.023 69.5621 178.163 69.3047 178.346 69.0792C178.526 68.8516 178.742 68.6619 178.995 68.5102C179.245 68.3584 179.523 68.2539 179.828 68.1964V68.9838Z" fill="#FFFBFB"/>
<path d="M184.159 42.4409H177.86V40.3125C177.86 39.8184 177.949 39.4144 178.127 39.1007C178.304 38.7849 178.543 38.5512 178.844 38.3994C179.145 38.2477 179.482 38.1718 179.853 38.1718C180.224 38.1718 180.561 38.2477 180.865 38.3994C181.168 38.5491 181.41 38.7808 181.591 39.0945C181.769 39.4083 181.858 39.8102 181.858 40.3002V41.8258H181.182V40.3248C181.182 39.9865 181.123 39.7148 181.006 39.5098C180.889 39.3047 180.731 39.156 180.533 39.0638C180.332 38.9695 180.105 38.9223 179.853 38.9223C179.601 38.9223 179.375 38.9695 179.176 39.0638C178.977 39.156 178.821 39.3057 178.709 39.5128C178.594 39.7199 178.536 39.9947 178.536 40.3371V41.6781H184.159V42.4409Z" fill="white"/>
<path d="M181.009 43.7235C181.674 43.7235 182.248 43.8435 182.732 44.0834C183.216 44.3233 183.589 44.6524 183.851 45.0707C184.114 45.489 184.245 45.9667 184.245 46.504C184.245 47.0412 184.114 47.519 183.851 47.9373C183.589 48.3556 183.216 48.6847 182.732 48.9246C182.248 49.1645 181.674 49.2844 181.009 49.2844C180.345 49.2844 179.771 49.1645 179.287 48.9246C178.803 48.6847 178.43 48.3556 178.167 47.9373C177.905 47.519 177.774 47.0412 177.774 46.504C177.774 45.9667 177.905 45.489 178.167 45.0707C178.43 44.6524 178.803 44.3233 179.287 44.0834C179.771 43.8435 180.345 43.7235 181.009 43.7235ZM181.009 44.4617C180.464 44.4617 180.003 44.5529 179.628 44.7354C179.253 44.9159 178.969 45.1609 178.776 45.4705C178.583 45.7781 178.487 46.1226 178.487 46.504C178.487 46.8854 178.583 47.2309 178.776 47.5405C178.969 47.8481 179.253 48.0931 179.628 48.2756C180.003 48.456 180.464 48.5463 181.009 48.5463C181.555 48.5463 182.015 48.456 182.39 48.2756C182.765 48.0931 183.049 47.8481 183.242 47.5405C183.435 47.2309 183.531 46.8854 183.531 46.504C183.531 46.1226 183.435 45.7781 183.242 45.4705C183.049 45.1609 182.765 44.9159 182.39 44.7354C182.015 44.5529 181.555 44.4617 181.009 44.4617Z" fill="white"/>
<path d="M177.86 26.1882L183.162 24.3182V24.2444L177.86 22.3743V21.5746L184.159 23.8876V24.675L177.86 26.9879V26.1882Z" fill="white"/>
<path d="M184.245 29.8583C184.245 30.2192 184.173 30.5442 184.03 30.8333C183.886 31.1224 183.689 31.3541 183.439 31.5284C183.189 31.7027 182.904 31.798 182.584 31.8145V31.0763C182.869 31.0476 183.105 30.9184 183.291 30.6887C183.476 30.457 183.568 30.1802 183.568 29.8583C183.568 29.5999 183.508 29.3703 183.387 29.1693C183.266 28.9663 183.1 28.8074 182.888 28.6926C182.675 28.5757 182.434 28.5173 182.166 28.5173C181.891 28.5173 181.646 28.5778 181.431 28.6987C181.213 28.8177 181.042 28.9817 180.917 29.1909C180.792 29.4 180.728 29.6389 180.726 29.9075C180.724 30.1003 180.754 30.2981 180.815 30.5011C180.875 30.7041 180.952 30.8712 181.046 31.0025L180.96 31.716L177.86 31.3346V28.0621H178.536V30.6949L180.394 30.9163V30.8794C180.291 30.7503 180.206 30.5883 180.139 30.3935C180.071 30.1987 180.037 29.9957 180.037 29.7845C180.037 29.399 180.13 29.0555 180.314 28.7541C180.497 28.4506 180.747 28.2128 181.065 28.0405C181.382 27.8663 181.745 27.7791 182.153 27.7791C182.555 27.7791 182.914 27.8693 183.23 28.0498C183.544 28.2282 183.792 28.4742 183.974 28.7879C184.155 29.1017 184.245 29.4585 184.245 29.8583Z" fill="white"/>
<path d="M27.0682 75.2681V66.6068H58.2487V75.2681H27.0682Z" fill="#EDDF5F"/>
<path d="M29.2336 64.8747C32.8212 64.8747 35.7295 67.5891 35.7295 70.9375C35.7295 74.2859 32.8212 77.0004 29.2336 77.0004C25.646 77.0004 22.7377 74.2859 22.7377 70.9375C22.7377 67.5891 25.646 64.8747 29.2336 64.8747Z" fill="#EDDF5F"/>
<path d="M53.4849 64.8747C57.0725 64.8747 59.9809 67.5891 59.9809 70.9375C59.9809 74.2859 57.0725 77.0004 53.4849 77.0004C49.8973 77.0004 46.989 74.2859 46.989 70.9375C46.989 67.5891 49.8973 64.8747 53.4849 64.8747Z" fill="#EDDF5F"/>
<path d="M36.5956 75.2681V66.6068H39.1939V75.2681H36.5956Z" fill="#291C0F"/>
<path d="M27.9343 77.0004V64.8747H30.5327V77.0004H27.9343Z" fill="#714B27"/>
<path d="M53.0519 77.0004V64.8747H55.6502V77.0004H53.0519Z" fill="#DEFF11"/>
<path d="M45.2568 75.2681V66.6068H46.9891V75.2681H45.2568Z" fill="#FF7A00"/>
<path d="M21.0054 72.6698V70.0714H22.7376V72.6698H21.0054Z" fill="#D9D9D9"/>
<path d="M59.9808 72.6698V70.0714H62.5792V72.6698H59.9808Z" fill="#D9D9D9"/>
<circle cx="107.185" cy="47.1192" r="6.14592" transform="rotate(-90 107.185 47.1192)" fill="#D9D9D9" stroke="black" stroke-width="0.7"/>
<defs>
<filter id="filter0_i_127_954" x="101.704" y="71.953" width="12.6931" height="16.6931" filterUnits="userSpaceOnUse" color-interpolation-filters="sRGB">
<feFlood flood-opacity="0" result="BackgroundImageFix"/>
<feBlend mode="normal" in="SourceGraphic" in2="BackgroundImageFix" result="shape"/>
<feColorMatrix in="SourceAlpha" type="matrix" values="0 0 0 0 0 0 0 0 0 0 0 0 0 0 0 0 0 0 127 0" result="hardAlpha"/>
<feOffset dy="4"/>
<feGaussianBlur stdDeviation="2"/>
<feComposite in2="hardAlpha" operator="arithmetic" k2="-1" k3="1"/>
<feColorMatrix type="matrix" values="0 0 0 0 0 0 0 0 0 0 0 0 0 0 0 0 0 0 0.25 0"/>
<feBlend mode="normal" in2="shape" result="effect1_innerShadow_127_954"/>
</filter>
<filter id="filter1_i_127_954" x="100.689" y="8.57666" width="14.7241" height="18.7241" filterUnits="userSpaceOnUse" color-interpolation-filters="sRGB">
<feFlood flood-opacity="0" result="BackgroundImageFix"/>
<feBlend mode="normal" in="SourceGraphic" in2="BackgroundImageFix" result="shape"/>
<feColorMatrix in="SourceAlpha" type="matrix" values="0 0 0 0 0 0 0 0 0 0 0 0 0 0 0 0 0 0 127 0" result="hardAlpha"/>
<feOffset dy="4"/>
<feGaussianBlur stdDeviation="2"/>
<feComposite in2="hardAlpha" operator="arithmetic" k2="-1" k3="1"/>
<feColorMatrix type="matrix" values="0 0 0 0 0 0 0 0 0 0 0 0 0 0 0 0 0 0 0.25 0"/>
<feBlend mode="normal" in2="shape" result="effect1_innerShadow_127_954"/>
</filter>
<linearGradient id="paint0_linear_127_954" x1="0.218384" y1="92.5906" x2="92.0274" y2="301.326" gradientUnits="userSpaceOnUse">
<stop stop-color="#1ED025"/>
<stop offset="0.497968" stop-color="#18A21D"/>
<stop offset="1" stop-color="#16C01C"/>
</linearGradient>
<linearGradient id="paint1_linear_127_954" x1="101.704" y1="78.2995" x2="114.397" y2="78.2995" gradientUnits="userSpaceOnUse">
<stop offset="0.362063" stop-color="#FF0C0C"/>
<stop offset="0.939224" stop-color="white" stop-opacity="0.83"/>
</linearGradient>
<linearGradient id="paint2_linear_127_954" x1="100.689" y1="15.9387" x2="115.413" y2="15.9387" gradientUnits="userSpaceOnUse">
<stop offset="0.362063" stop-color="#0CE2FF"/>
<stop offset="0.939224" stop-color="white" stop-opacity="0.83"/>
</linearGradient>
</defs>
</svg>
