<svg width="151" height="57" viewBox="0 0 151 57" fill="none" xmlns="http://www.w3.org/2000/svg">
<rect x="0.25" y="4.25" width="112.5" height="47.5" fill="#22B928" stroke="black" stroke-width="0.5"/>
<rect x="92" y="9" width="20" height="20" rx="4" fill="#2E2E2E"/>
<rect x="92" y="30" width="20" height="20" rx="4" fill="#2E2E2E"/>
<rect x="100" y="22" width="8" height="51" transform="rotate(-90 100 22)" fill="#D9D9D9"/>
<rect x="100" y="44" width="8" height="51" transform="rotate(-90 100 44)" fill="#D9D9D9"/>
<path d="M31 18L28.5 19" stroke="#76FF0A" stroke-width="5"/>
<path d="M86.2045 49.608V43.3011H88.1136V49.608H86.2045ZM84.0057 47.4091V45.5H90.3125V47.4091H84.0057Z" fill="white"/>
<path d="M88.892 7.63636V9.40909H84.8011V7.63636H88.892Z" fill="white"/>
<circle cx="21.5" cy="28.5" r="14.25" fill="#2FB79E" stroke="black" stroke-width="0.5"/>
<g filter="url(#filter0_i_574_8792)">
<circle cx="21.5" cy="28.5" r="12.5" fill="url(#paint0_linear_574_8792)"/>
</g>
<defs>
<filter id="filter0_i_574_8792" x="9" y="16" width="25" height="29" filterUnits="userSpaceOnUse" color-interpolation-filters="sRGB">
<feFlood flood-opacity="0" result="BackgroundImageFix"/>
<feBlend mode="normal" in="SourceGraphic" in2="BackgroundImageFix" result="shape"/>
<feColorMatrix in="SourceAlpha" type="matrix" values="0 0 0 0 0 0 0 0 0 0 0 0 0 0 0 0 0 0 127 0" result="hardAlpha"/>
<feOffset dy="4"/>
<feGaussianBlur stdDeviation="2"/>
<feComposite in2="hardAlpha" operator="arithmetic" k2="-1" k3="1"/>
<feColorMatrix type="matrix" values="0 0 0 0 0 0 0 0 0 0 0 0 0 0 0 0 0 0 0.25 0"/>
<feBlend mode="normal" in2="shape" result="effect1_innerShadow_574_8792"/>
</filter>
<linearGradient id="paint0_linear_574_8792" x1="21.5" y1="16" x2="21.5" y2="41" gradientUnits="userSpaceOnUse">
<stop offset="0.362063" stop-color="#0CE2FF"/>
<stop offset="0.939224" stop-color="white" stop-opacity="0.83"/>
</linearGradient>
</defs>
</svg>
