<svg width="160" height="163" viewBox="0 0 160 163" fill="none" xmlns="http://www.w3.org/2000/svg">
<rect x="159.5" y="0.5" width="162" height="159" transform="rotate(90 159.5 0.5)" fill="#22B928" stroke="black"/>
<rect x="151" y="6" width="57" height="145" transform="rotate(90 151 6)" fill="#2E2E2E"/>
<path d="M133.358 19.16C137.08 19.3505 140 22.424 140 26.1509L140 41.9528C140 45.6374 137.144 48.6912 133.467 48.9372L20.4674 56.5002C16.4265 56.7707 13 53.5658 13 49.5158L13 20.3674C13 16.3609 16.3565 13.1718 20.3578 13.3766L133.358 19.16Z" fill="url(#paint0_linear_1163_12054)"/>
<path d="M24 13.5L24 56.2562L19 56.5V56.5C15.6086 56.2174 13 53.3824 13 49.9792L13 20.3254C13 16.3347 16.3312 13.1514 20.3179 13.3326L24 13.5Z" fill="#FFFEFE"/>
<path d="M113.273 104.761L106 104.761L106 103.114L109.821 100.486L109.821 100.443L106 100.443L106 98.4687L113.273 98.4687L113.273 100.145L109.466 102.73L109.466 102.787L113.273 102.787L113.273 104.761ZM110.545 112.485L110.545 110.482C110.711 110.468 110.862 110.43 110.996 110.369C111.131 110.309 111.247 110.227 111.344 110.12C111.444 110.016 111.52 109.889 111.572 109.74C111.626 109.591 111.653 109.422 111.653 109.232C111.653 108.901 111.573 108.62 111.412 108.391C111.251 108.163 111.02 107.991 110.719 107.872C110.419 107.756 110.058 107.698 109.636 107.698C109.191 107.698 108.818 107.757 108.518 107.876C108.219 107.996 107.995 108.17 107.843 108.398C107.694 108.625 107.619 108.898 107.619 109.218C107.619 109.4 107.642 109.564 107.687 109.708C107.734 109.853 107.802 109.978 107.889 110.085C107.977 110.191 108.082 110.277 108.205 110.344C108.331 110.412 108.472 110.459 108.628 110.482L108.614 112.485C108.306 112.461 107.992 112.375 107.673 112.226C107.355 112.077 107.062 111.865 106.792 111.59C106.524 111.318 106.309 110.981 106.146 110.578C105.982 110.176 105.901 109.708 105.901 109.175C105.901 108.508 106.044 107.909 106.33 107.379C106.617 106.851 107.038 106.433 107.594 106.125C108.151 105.82 108.831 105.667 109.636 105.667C110.446 105.667 111.128 105.823 111.682 106.136C112.238 106.448 112.658 106.87 112.942 107.4C113.229 107.93 113.372 108.522 113.372 109.175C113.372 109.635 113.309 110.057 113.184 110.443C113.058 110.829 112.875 111.168 112.634 111.459C112.394 111.75 112.1 111.984 111.749 112.162C111.399 112.339 110.998 112.447 110.545 112.485Z" fill="white"/>
<path d="M63.5455 96.2585L63.5455 94.2557C63.7112 94.2415 63.8615 94.2036 63.9964 94.142C64.1314 94.0829 64.2474 94 64.3445 93.8935C64.4439 93.7893 64.5196 93.6626 64.5717 93.5135C64.6262 93.3643 64.6534 93.1951 64.6534 93.0057C64.6534 92.6742 64.5729 92.3937 64.4119 92.1641C64.2509 91.9368 64.0201 91.764 63.7195 91.6456C63.4188 91.5296 63.0578 91.4716 62.6364 91.4716C62.1913 91.4716 61.8184 91.5308 61.5178 91.6491C61.2195 91.7699 60.9946 91.9439 60.843 92.1712C60.6939 92.3984 60.6193 92.6719 60.6193 92.9915C60.6193 93.1738 60.6418 93.3371 60.6868 93.4815C60.7341 93.6259 60.8016 93.7514 60.8892 93.858C60.9768 93.9645 61.0821 94.0509 61.2053 94.1172C61.3307 94.1858 61.4716 94.232 61.6278 94.2557L61.6136 96.2585C61.3059 96.2348 60.9922 96.1484 60.6726 95.9993C60.3554 95.8501 60.0618 95.6383 59.7919 95.3636C59.5244 95.0914 59.3089 94.754 59.1456 94.3516C58.9822 93.9491 58.9006 93.4815 58.9006 92.9489C58.9006 92.2812 59.0438 91.6823 59.3303 91.152C59.6167 90.6241 60.0381 90.2062 60.5945 89.8984C61.1508 89.593 61.8314 89.4403 62.6364 89.4403C63.446 89.4403 64.1278 89.5966 64.6818 89.9091C65.2382 90.2216 65.6584 90.643 65.9425 91.1733C66.2289 91.7036 66.3722 92.2955 66.3722 92.9489C66.3722 93.4081 66.3094 93.8307 66.1839 94.2166C66.0585 94.6025 65.875 94.9411 65.6335 95.2322C65.3944 95.5234 65.0997 95.7578 64.7493 95.9354C64.3989 96.1129 63.9976 96.2206 63.5455 96.2585ZM62.6364 104.2C61.8267 104.2 61.1437 104.042 60.5874 103.727C60.0334 103.413 59.6132 102.988 59.3267 102.453C59.0426 101.918 58.9006 101.321 58.9006 100.663C58.9006 99.9999 59.0438 99.401 59.3303 98.8659C59.6191 98.3333 60.0405 97.9095 60.5945 97.5946C61.1508 97.2821 61.8314 97.1259 62.6364 97.1259C63.446 97.1259 64.1278 97.2821 64.6818 97.5946C65.2382 97.9095 65.6584 98.3333 65.9425 98.8659C66.2289 99.401 66.3722 99.9999 66.3722 100.663C66.3722 101.321 66.2289 101.918 65.9425 102.453C65.6584 102.988 65.2382 103.413 64.6818 103.727C64.1278 104.042 63.446 104.2 62.6364 104.2ZM62.6364 102.169C63.072 102.169 63.4389 102.11 63.7372 101.994C64.0379 101.881 64.2652 101.712 64.419 101.487C64.5753 101.264 64.6534 100.99 64.6534 100.663C64.6534 100.336 64.5753 100.06 64.419 99.8354C64.2652 99.6129 64.0379 99.4436 63.7372 99.3276C63.4389 99.214 63.072 99.1571 62.6364 99.1571C62.2008 99.1571 61.8326 99.214 61.532 99.3276C61.2337 99.4436 61.0064 99.6129 60.8501 99.8354C60.6963 100.06 60.6193 100.336 60.6193 100.663C60.6193 100.99 60.6963 101.264 60.8501 101.487C61.0064 101.712 61.2337 101.881 61.532 101.994C61.8326 102.11 62.2008 102.169 62.6364 102.169ZM66.2727 105.113L66.2727 107.571L62.1534 109.261L62.1534 109.346L66.2727 111.037L66.2727 113.494L59 113.494L59 111.562L63.2045 111.562L63.2045 111.505L59.0568 109.886L59.0568 108.721L63.233 107.102L63.233 107.045L59 107.045L59 105.113L66.2727 105.113Z" fill="white"/>
<path d="M90.2727 104.761L83 104.761L83 103.114L86.821 100.486L86.821 100.443L83 100.443L83 98.4687L90.2727 98.4687L90.2727 100.145L86.4659 102.73L86.4659 102.787L90.2727 102.787L90.2727 104.761ZM86.6364 112.741C85.8267 112.741 85.1437 112.583 84.5874 112.268C84.0334 111.954 83.6132 111.529 83.3267 110.994C83.0426 110.459 82.9006 109.862 82.9006 109.204C82.9006 108.541 83.0438 107.942 83.3303 107.407C83.6191 106.874 84.0405 106.451 84.5945 106.136C85.1508 105.823 85.8314 105.667 86.6364 105.667C87.446 105.667 88.1278 105.823 88.6818 106.136C89.2382 106.451 89.6584 106.874 89.9425 107.407C90.2289 107.942 90.3722 108.541 90.3722 109.204C90.3722 109.862 90.2289 110.459 89.9425 110.994C89.6584 111.529 89.2382 111.954 88.6818 112.268C88.1278 112.583 87.446 112.741 86.6364 112.741ZM86.6364 110.71C87.072 110.71 87.4389 110.652 87.7372 110.536C88.0379 110.422 88.2652 110.253 88.419 110.028C88.5753 109.805 88.6534 109.531 88.6534 109.204C88.6534 108.877 88.5753 108.601 88.419 108.376C88.2652 108.154 88.0379 107.985 87.7372 107.869C87.4389 107.755 87.072 107.698 86.6364 107.698C86.2008 107.698 85.8326 107.755 85.532 107.869C85.2337 107.985 85.0064 108.154 84.8501 108.376C84.6963 108.601 84.6193 108.877 84.6193 109.204C84.6193 109.531 84.6963 109.805 84.8501 110.028C85.0064 110.253 85.2337 110.422 85.532 110.536C85.8326 110.652 86.2008 110.71 86.6364 110.71Z" fill="white"/>
<path d="M6 76.4687L13.2727 76.4687L13.2727 78.4432L7.59091 78.4432L7.59091 81.3835L6 81.3835L6 76.4687ZM13.2727 84.1561L6 84.1561L6 82.1816L13.2727 82.1816L13.2727 84.1561ZM13.2727 85.0918L13.2727 87.5492L9.15341 89.2395L9.15341 89.3248L13.2727 91.0151L13.2727 93.4725L6 93.4725L6 91.5407L10.2045 91.5407L10.2045 91.4838L6.05682 89.8645L6.05682 88.6998L10.233 87.0804L10.233 87.0236L6 87.0236L6 85.0918L13.2727 85.0918ZM13.2727 96.3826L6 96.3826L6 94.4082L13.2727 94.4082L13.2727 96.3826ZM11.6818 97.1195L13.2727 97.1195L13.2727 103.441L11.6818 103.441L11.6818 101.253L6 101.253L6 99.307L11.6818 99.307L11.6818 97.1195ZM11 110.096C11.2367 110.077 11.4214 109.989 11.554 109.83C11.6866 109.674 11.7528 109.436 11.7528 109.116C11.7528 108.913 11.728 108.746 11.6783 108.615C11.6309 108.488 11.5658 108.393 11.483 108.331C11.4001 108.27 11.3054 108.238 11.1989 108.235C11.1113 108.231 11.032 108.246 10.9609 108.282C10.8923 108.319 10.8295 108.379 10.7727 108.459C10.7183 108.54 10.6686 108.643 10.6236 108.768C10.5786 108.894 10.5384 109.043 10.5028 109.216L10.375 109.812C10.2898 110.215 10.1773 110.559 10.0376 110.846C9.89796 111.132 9.73343 111.366 9.54403 111.549C9.35701 111.731 9.14631 111.865 8.91193 111.95C8.67756 112.038 8.42187 112.083 8.14488 112.085C7.66667 112.083 7.26184 111.963 6.9304 111.726C6.59896 111.489 6.34683 111.151 6.174 110.711C6.00118 110.273 5.91477 109.746 5.91477 109.13C5.91477 108.498 6.00828 107.947 6.19531 107.475C6.38234 107.007 6.66998 106.642 7.05824 106.382C7.44886 106.124 7.94839 105.993 8.55682 105.991L8.55682 107.866C8.33428 107.878 8.14725 107.934 7.99574 108.033C7.84422 108.132 7.7294 108.272 7.65128 108.452C7.57315 108.634 7.53409 108.851 7.53409 109.102C7.53409 109.313 7.56013 109.489 7.61221 109.631C7.6643 109.773 7.7365 109.881 7.82883 109.954C7.92116 110.028 8.02651 110.065 8.14488 110.068C8.25615 110.065 8.35322 110.029 8.43608 109.958C8.52131 109.889 8.59706 109.775 8.66335 109.617C8.73201 109.458 8.79593 109.244 8.85511 108.974L9.01136 108.25C9.15104 107.606 9.38423 107.098 9.71094 106.726C10.04 106.357 10.4886 106.173 11.0568 106.176C11.5185 106.173 11.9221 106.297 12.2678 106.545C12.6158 106.796 12.8868 107.143 13.081 107.586C13.2751 108.031 13.3722 108.541 13.3722 109.116C13.3722 109.703 13.2739 110.211 13.0774 110.64C12.8809 111.068 12.6039 111.398 12.2464 111.63C11.8913 111.865 11.4759 111.983 11 111.985L11 110.096ZM6 114.683L13.2727 112.538L13.2727 114.739L8.79829 115.734L8.79829 115.79L13.2727 116.969L13.2727 118.702L8.78409 119.881L8.78409 119.938L13.2727 120.933L13.2727 123.134L6 120.989L6 119.1L10.0625 117.864L10.0625 117.808L6 116.572L6 114.683ZM13.2727 125.748L6 125.748L6 123.773L13.2727 123.773L13.2727 125.748ZM11.6818 126.485L13.2727 126.485L13.2727 132.806L11.6818 132.806L11.6818 130.618L6 130.618L6 128.672L11.6818 128.672L11.6818 126.485ZM10.5455 139.997L10.5455 137.994C10.7112 137.98 10.8615 137.942 10.9964 137.88C11.1314 137.821 11.2474 137.738 11.3445 137.632C11.4439 137.528 11.5196 137.401 11.5717 137.252C11.6262 137.103 11.6534 136.933 11.6534 136.744C11.6534 136.413 11.5729 136.132 11.4119 135.902C11.2509 135.675 11.0201 135.502 10.7195 135.384C10.4188 135.268 10.0578 135.21 9.63636 135.21C9.19129 135.21 8.81842 135.269 8.51775 135.387C8.21946 135.508 7.99455 135.682 7.84304 135.909C7.69389 136.137 7.61932 136.41 7.61932 136.73C7.61932 136.912 7.64181 137.075 7.68679 137.22C7.73414 137.364 7.80161 137.49 7.8892 137.596C7.9768 137.703 8.08215 137.789 8.20525 137.855C8.33073 137.924 8.47159 137.97 8.62784 137.994L8.61363 139.997C8.30587 139.973 7.99218 139.887 7.67258 139.738C7.35535 139.588 7.06179 139.377 6.7919 139.102C6.52438 138.83 6.30895 138.492 6.14559 138.09C5.98224 137.687 5.90057 137.22 5.90057 136.687C5.90057 136.02 6.04379 135.421 6.33025 134.89C6.61671 134.362 7.03811 133.944 7.59446 133.637C8.1508 133.331 8.83144 133.179 9.63636 133.179C10.446 133.179 11.1278 133.335 11.6818 133.647C12.2382 133.96 12.6584 134.381 12.9425 134.912C13.2289 135.442 13.3722 136.034 13.3722 136.687C13.3722 137.146 13.3094 137.569 13.1839 137.955C13.0585 138.341 12.875 138.679 12.6335 138.971C12.3944 139.262 12.0997 139.496 11.7493 139.674C11.3989 139.851 10.9976 139.959 10.5455 139.997ZM6 140.893L13.2727 140.893L13.2727 142.867L10.4318 142.867L10.4318 145.481L13.2727 145.481L13.2727 147.455L6 147.455L6 145.481L8.84091 145.481L8.84091 142.867L6 142.867L6 140.893Z" fill="white"/>
<rect x="77.75" y="121.75" width="19.5" height="19.5" rx="3.75" fill="#2E2E2E" stroke="black" stroke-width="0.5"/>
<rect x="99.75" y="121.75" width="19.5" height="19.5" rx="3.75" fill="#2E2E2E" stroke="black" stroke-width="0.5"/>
<rect x="82.6" y="126.6" width="9.8" height="9.8" rx="1.9" fill="white" stroke="black" stroke-width="0.2"/>
<rect x="104.6" y="126.6" width="9.8" height="9.8" rx="1.9" fill="white" stroke="black" stroke-width="0.2"/>
<rect x="74.75" y="121.25" width="19.5" height="19.5" rx="3.75" transform="rotate(90 74.75 121.25)" fill="#2E2E2E" stroke="black" stroke-width="0.5"/>
<rect x="59.6" y="126.6" width="9.8" height="9.8" rx="1.9" fill="white" stroke="black" stroke-width="0.2"/>
<defs>
<linearGradient id="paint0_linear_1163_12054" x1="140" y1="35" x2="13" y2="35" gradientUnits="userSpaceOnUse">
<stop offset="0.322415" stop-color="#FFF4F4"/>
<stop offset="1" stop-color="white" stop-opacity="0.26"/>
</linearGradient>
</defs>
</svg>
