<svg width="821" height="208" viewBox="0 0 821 208" fill="none" xmlns="http://www.w3.org/2000/svg">
<path d="M230.104 158C225.519 158 221.335 156.938 217.552 154.813C213.769 152.689 210.732 149.874 208.439 146.369C206.146 142.864 205 139.04 205 134.898V43.1865C205 40.4251 207.239 38.1865 210 38.1865H226.308C229.069 38.1865 231.308 40.4251 231.308 43.1865V60.5907C231.308 63.3521 233.546 65.5907 236.308 65.5907H263.276C266.038 65.5907 268.276 67.8293 268.276 70.5907V84.9676C268.276 87.729 266.038 89.9676 263.276 89.9676H236.308C233.546 89.9676 231.308 92.2062 231.308 94.9676V128.623C231.308 131.384 233.546 133.623 236.308 133.623H263.276C266.038 133.623 268.276 135.862 268.276 138.623V153C268.276 155.761 266.038 158 263.276 158H230.104Z" fill="#010101"/>
<path d="M289.085 158C286.323 158 284.085 155.761 284.085 153V88.693C284.085 84.5505 285.231 80.7267 287.524 77.2215C289.816 73.7163 292.854 70.9016 296.637 68.7772C300.42 66.6529 304.604 65.5907 309.189 65.5907H359.212C361.973 65.5907 364.212 67.8293 364.212 70.5907V84.9676C364.212 87.729 361.973 89.9676 359.212 89.9676H315.392C312.631 89.9676 310.392 92.2062 310.392 94.9676V153C310.392 155.761 308.154 158 305.392 158H289.085Z" fill="#010101"/>
<path d="M586.1 158C581.514 158 577.273 156.938 573.375 154.813C569.478 152.689 566.383 149.821 564.09 146.21C561.798 142.598 560.651 138.668 560.651 134.42V66.8653C560.651 62.5104 561.798 58.5803 564.09 55.0751C566.383 51.4637 569.478 48.5959 573.375 46.4715C577.273 44.3472 581.514 43.285 586.1 43.285H659.005C663.59 43.285 667.774 44.3472 671.557 46.4715C675.454 48.5959 678.549 51.4637 680.842 55.0751C683.249 58.5803 684.453 62.5104 684.453 66.8653V134.42C684.453 138.668 683.249 142.598 680.842 146.21C678.549 149.821 675.454 152.689 671.557 154.813C667.774 156.938 663.59 158 659.005 158H586.1ZM587.303 128.145C587.303 130.907 589.542 133.145 592.303 133.145H652.457C655.219 133.145 657.457 130.907 657.457 128.145V73.1399C657.457 70.3785 655.219 68.1399 652.457 68.1399H592.303C589.542 68.1399 587.303 70.3785 587.303 73.1399V128.145Z" fill="#148DFE"/>
<path d="M750.687 158C747.926 158 745.687 155.761 745.687 153V73.1399C745.687 70.3785 743.449 68.1399 740.687 68.1399H702.198C699.437 68.1399 697.198 65.9013 697.198 63.1399V48.285C697.198 45.5236 699.437 43.285 702.198 43.285H816C818.761 43.285 821 45.5235 821 48.285V63.1399C821 65.9013 818.761 68.1399 816 68.1399H777.511C774.75 68.1399 772.511 70.3785 772.511 73.1399V153C772.511 155.761 770.272 158 767.511 158H750.687Z" fill="#148DFE"/>
<path fill-rule="evenodd" clip-rule="evenodd" d="M382.95 65.5907C380.189 65.5907 377.95 67.8292 377.95 70.5907V153C377.95 155.761 380.189 158 382.95 158H399.258C402.019 158 404.258 155.761 404.258 153V70.5907C404.258 67.8293 402.019 65.5907 399.258 65.5907H382.95Z" fill="#010101"/>
<path d="M382.95 59.8549C380.189 59.8549 377.95 57.6163 377.95 54.8549V40.3186C377.95 37.5572 380.189 35.3186 382.95 35.3186H399.258C402.019 35.3186 404.258 37.5572 404.258 40.3186V54.8549C404.258 57.6163 402.019 59.8549 399.258 59.8549H382.95Z" fill="#148DFE"/>
<path fill-rule="evenodd" clip-rule="evenodd" d="M511.985 35C516.57 35 520.754 36.0622 524.537 38.1865C528.435 40.3109 531.53 43.1788 533.822 46.7902C536.23 50.2953 537.433 54.2254 537.433 58.5803V88.3743C537.433 89.7552 537.319 91.0829 537.089 92.3575C537.078 92.4764 537.064 92.5948 537.049 92.7127C536.805 94.6017 537.046 96.6005 538.097 98.1892C539.015 99.5776 539.825 101.086 540.528 102.714C541.675 105.369 542.248 108.025 542.248 110.68V134.42C542.248 138.668 541.044 142.598 538.637 146.21C536.344 149.821 533.249 152.689 529.352 154.813C525.569 156.938 521.328 158 516.628 158H423.446C420.685 158 418.446 155.761 418.446 153V70.5907C418.446 67.8292 420.685 65.5907 423.446 65.5907H440.098C442.859 65.5907 445.098 67.8293 445.098 70.5907V82.2591C445.098 85.0205 447.336 87.2591 450.098 87.2591H505.438C508.199 87.2591 510.438 85.0205 510.438 82.2591V64.8434C510.438 62.0865 508.206 59.8498 505.449 59.8434L455.655 59.7285C452.898 59.7221 450.667 57.4854 450.667 54.7285V40.2927C450.667 37.5414 452.889 35.3071 455.641 35.2928L511.985 35ZM515.252 128.145C515.252 130.907 513.014 133.145 510.252 133.145H450.098C447.336 133.145 445.098 130.907 445.098 128.145V117.114C445.098 114.353 447.336 112.114 450.098 112.114H510.252C513.014 112.114 515.252 114.353 515.252 117.114V128.145Z" fill="#148DFE"/>
<path d="M445.098 40.3186C445.098 37.5572 442.859 35.3186 440.098 35.3186H423.446C420.685 35.3186 418.446 37.5572 418.446 40.3186V54.8549C418.446 57.6163 420.685 59.8549 423.446 59.8549H440.098C442.859 59.8549 445.098 57.6163 445.098 54.8549V40.3186Z" fill="#010101"/>
<g filter="url(#filter0_d_0_1)">
<path fill-rule="evenodd" clip-rule="evenodd" d="M151.654 5C151.654 2.23264 149.406 -0.00839483 146.638 2.36406e-05L73.7012 0.221904H56.113C21.371 0.221904 4 17.1386 4 52.0978V78.1543V87.1913V89.6626V95.5253C4 130.267 21.1539 147.638 56.113 147.638H65.67H93.6408H125.597C142.968 147.638 151.654 156.344 151.654 173.695V184.515V194.771C151.654 197.533 153.892 199.771 156.654 199.771H181.396C184.157 199.771 186.396 197.533 186.396 194.771V182.189V165.009C186.396 130.05 169.242 112.876 134.5 112.876L107.792 113.311L70.7556 112.876H64.3986C47.6298 112.876 39.57 105.035 39.0029 88.7329C38.8332 88.7413 38.6624 88.7456 38.4906 88.7456C32.8732 88.7456 28.3194 84.1918 28.3194 78.5744C28.3194 72.957 32.8732 68.4032 38.4906 68.4032C38.5746 68.4032 38.6585 68.4043 38.742 68.4063V61.0205C38.742 43.6494 47.4275 34.9639 64.7986 34.9639H73.7012H96.1638V25.6621C93.157 24.2338 91.0781 21.169 91.0781 17.6187C91.0781 12.7035 95.0627 8.71894 99.9779 8.71894C104.893 8.71894 108.878 12.7035 108.878 17.6187C108.878 21.1689 106.799 24.2336 103.792 25.662V34.9639H146.654C149.415 34.9639 151.654 32.7253 151.654 29.9639V5Z" fill="#010101"/>
</g>
<circle cx="73.5539" cy="76.2902" r="10.9269" fill="#010101"/>
<circle cx="122.627" cy="76.2902" r="10.9269" fill="#148DFE"/>
<g filter="url(#filter1_d_0_1)">
<path fill-rule="evenodd" clip-rule="evenodd" d="M151.654 39.9639C151.654 37.2024 153.892 34.9639 156.654 34.9639H181.396C184.157 34.9639 186.396 37.2024 186.396 39.9639V62.2812V78.6716V85.5009V93.6961C186.396 122.379 163.448 147.875 129.55 147.875H113.16H90.6379H71.6554C47.4275 147.875 38.742 156.561 38.742 173.932V187.745V194.988C38.742 197.75 36.5035 199.988 33.742 199.988H9.14307C6.41074 199.988 4.1844 197.795 4.14362 195.063L4 185.44L4.21714 165.464C4.21714 130.722 21.1539 113.133 56.113 113.133L64.7986 112.818L115.343 113.253H125.597C142.111 113.253 150.776 105.099 151.59 89.7427C151.893 89.7678 152.199 89.7806 152.508 89.7806C158.543 89.7806 163.435 84.8885 163.435 78.8537C163.435 72.8189 158.543 67.9268 152.508 67.9268C152.22 67.9268 151.935 67.9379 151.654 67.9597V62.2812V39.9639Z" fill="#148DFE"/>
</g>
<defs>
<filter id="filter0_d_0_1" x="0" y="0" width="190.396" height="207.771" filterUnits="userSpaceOnUse" color-interpolation-filters="sRGB">
<feFlood flood-opacity="0" result="BackgroundImageFix"/>
<feColorMatrix in="SourceAlpha" type="matrix" values="0 0 0 0 0 0 0 0 0 0 0 0 0 0 0 0 0 0 127 0" result="hardAlpha"/>
<feOffset dy="4"/>
<feGaussianBlur stdDeviation="2"/>
<feComposite in2="hardAlpha" operator="out"/>
<feColorMatrix type="matrix" values="0 0 0 0 0 0 0 0 0 0 0 0 0 0 0 0 0 0 0.25 0"/>
<feBlend mode="normal" in2="BackgroundImageFix" result="effect1_dropShadow_0_1"/>
<feBlend mode="normal" in="SourceGraphic" in2="effect1_dropShadow_0_1" result="shape"/>
</filter>
<filter id="filter1_d_0_1" x="0" y="34.9639" width="190.396" height="173.024" filterUnits="userSpaceOnUse" color-interpolation-filters="sRGB">
<feFlood flood-opacity="0" result="BackgroundImageFix"/>
<feColorMatrix in="SourceAlpha" type="matrix" values="0 0 0 0 0 0 0 0 0 0 0 0 0 0 0 0 0 0 127 0" result="hardAlpha"/>
<feOffset dy="4"/>
<feGaussianBlur stdDeviation="2"/>
<feComposite in2="hardAlpha" operator="out"/>
<feColorMatrix type="matrix" values="0 0 0 0 0 0 0 0 0 0 0 0 0 0 0 0 0 0 0.25 0"/>
<feBlend mode="normal" in2="BackgroundImageFix" result="effect1_dropShadow_0_1"/>
<feBlend mode="normal" in="SourceGraphic" in2="effect1_dropShadow_0_1" result="shape"/>
</filter>
</defs>
</svg>
