<svg width="93" height="179" viewBox="0 0 93 179" fill="none" xmlns="http://www.w3.org/2000/svg">
<rect x="90" y="145" width="90" height="141" transform="rotate(180 90 145)" fill="#22B928"/>
<rect x="83.5" y="81.5" width="74" height="74" transform="rotate(180 83.5 81.5)" fill="#3BB0D6" stroke="black"/>
<circle cx="45" cy="44" r="10.5" transform="rotate(180 45 44)" fill="#D9D9D9" stroke="black"/>
<line x1="44.5" y1="55" x2="44.5" y2="33" stroke="black"/>
<rect x="77" y="138" width="20" height="20" rx="4" transform="rotate(180 77 138)" fill="#2E2E2E"/>
<rect x="35" y="138" width="20" height="20" rx="4" transform="rotate(180 35 138)" fill="#2E2E2E"/>
<rect x="56" y="138" width="20" height="20" rx="4" transform="rotate(180 56 138)" fill="#2E2E2E"/>
<circle cx="45" cy="97" r="7" transform="rotate(180 45 97)" fill="white"/>
<rect x="71" y="179" width="8" height="51" transform="rotate(180 71 179)" fill="#D9D9D9"/>
<rect x="50" y="179" width="8" height="51" transform="rotate(180 50 179)" fill="#D9D9D9"/>
<rect x="29" y="179" width="8" height="51" transform="rotate(180 29 179)" fill="#D9D9D9"/>
<path d="M15.3239 109.182V107.273H22.9091V109.182H20.2841V116H17.9489V109.182H15.3239ZM23.8178 116V114.295L27.0735 111.602C27.2894 111.423 27.4741 111.256 27.6275 111.099C27.7837 110.94 27.9031 110.777 27.9854 110.609C28.0707 110.442 28.1133 110.256 28.1133 110.051C28.1133 109.827 28.065 109.635 27.9684 109.476C27.8746 109.317 27.744 109.195 27.5763 109.109C27.4087 109.021 27.2156 108.977 26.9968 108.977C26.7781 108.977 26.5849 109.021 26.4173 109.109C26.2525 109.197 26.1246 109.327 26.0337 109.497C25.9428 109.668 25.8974 109.875 25.8974 110.119H23.6474C23.6474 109.506 23.7852 108.977 24.0607 108.534C24.3363 108.091 24.7255 107.75 25.2283 107.511C25.7312 107.273 26.3207 107.153 26.9968 107.153C27.6957 107.153 28.3008 107.266 28.8121 107.49C29.3263 107.712 29.7227 108.024 30.0011 108.428C30.2823 108.831 30.4229 109.304 30.4229 109.847C30.4229 110.182 30.3533 110.516 30.2141 110.848C30.0749 111.178 29.8249 111.543 29.4641 111.943C29.1033 112.344 28.5906 112.821 27.9258 113.375L27.1076 114.057V114.108H30.5167V116H23.8178Z" fill="white"/>
<path d="M61.3239 110.182V108.273H68.9091V110.182H66.2841V117H63.9489V110.182H61.3239ZM74.0962 108.273V117H71.7269V110.455H71.6758L69.7667 111.597V109.585L71.9144 108.273H74.0962Z" fill="white"/>
<path d="M46.017 112.636C46.017 113.608 45.8281 114.428 45.4503 115.095C45.0724 115.76 44.5625 116.264 43.9205 116.608C43.2784 116.949 42.5625 117.119 41.7727 117.119C40.9773 117.119 40.2585 116.947 39.6165 116.604C38.9773 116.257 38.4688 115.751 38.0909 115.087C37.7159 114.419 37.5284 113.602 37.5284 112.636C37.5284 111.665 37.7159 110.847 38.0909 110.182C38.4688 109.514 38.9773 109.01 39.6165 108.669C40.2585 108.325 40.9773 108.153 41.7727 108.153C42.5625 108.153 43.2784 108.325 43.9205 108.669C44.5625 109.01 45.0724 109.514 45.4503 110.182C45.8281 110.847 46.017 111.665 46.017 112.636ZM43.5795 112.636C43.5795 112.114 43.5099 111.673 43.3707 111.315C43.2344 110.955 43.0313 110.682 42.7614 110.497C42.4943 110.31 42.1648 110.216 41.7727 110.216C41.3807 110.216 41.0497 110.31 40.7798 110.497C40.5128 110.682 40.3097 110.955 40.1705 111.315C40.0341 111.673 39.9659 112.114 39.9659 112.636C39.9659 113.159 40.0341 113.601 40.1705 113.962C40.3097 114.32 40.5128 114.592 40.7798 114.78C41.0497 114.964 41.3807 115.057 41.7727 115.057C42.1648 115.057 42.4943 114.964 42.7614 114.78C43.0313 114.592 43.2344 114.32 43.3707 113.962C43.5099 113.601 43.5795 113.159 43.5795 112.636ZM47.1133 117V108.273H50.8803C51.5281 108.273 52.0948 108.401 52.5806 108.656C53.0664 108.912 53.4442 109.271 53.7141 109.734C53.984 110.197 54.119 110.739 54.119 111.358C54.119 111.983 53.9798 112.524 53.7013 112.982C53.4258 113.439 53.038 113.791 52.538 114.038C52.0408 114.286 51.4599 114.409 50.7951 114.409H48.5451V112.568H50.3178C50.5962 112.568 50.8335 112.52 51.0295 112.423C51.2283 112.324 51.3803 112.183 51.4854 112.001C51.5934 111.82 51.6474 111.605 51.6474 111.358C51.6474 111.108 51.5934 110.895 51.4854 110.719C51.3803 110.54 51.2283 110.403 51.0295 110.31C50.8335 110.213 50.5962 110.165 50.3178 110.165H49.4826V117H47.1133Z" fill="white"/>
</svg>
