<svg width="226" height="218" viewBox="0 0 226 218" fill="none" xmlns="http://www.w3.org/2000/svg">

<rect x="0.5" y="0.5" width="225" height="213" fill="#4116EF" stroke="black"/>
<rect x="11.5" y="6.5" width="75" height="61" stroke="white"/>
<rect x="70.5" y="6.5" width="16" height="61" stroke="white"/>
<rect x="11.5" y="6.5" width="16" height="61" stroke="white"/>
<rect x="70.5" y="129.5" width="16" height="59" stroke="white"/>
<rect x="70.5" y="69.5" width="16" height="58" stroke="white"/>
<rect x="11.5" y="69.5" width="16" height="58" stroke="white"/>
<rect x="11.5" y="129.5" width="16" height="58" stroke="white"/>
<rect x="11.5" y="69.5" width="75" height="58" stroke="white"/>
<rect x="29.25" y="8.25" width="19.5" height="19.5" rx="3.75" fill="#DEFF11" stroke="black" stroke-width="0.5"/>
<rect x="51.25" y="8.25" width="19.5" height="19.5" rx="3.75" fill="#DEFF11" stroke="black" stroke-width="0.5"/>
<rect x="34.1" y="13.1" width="9.8" height="9.8" rx="1.9" fill="#FFF9F9" stroke="black" stroke-width="0.2"/>
<rect x="56.1" y="13.1" width="9.8" height="9.8" rx="1.9" fill="#FFF9F9" stroke="black" stroke-width="0.2"/>
<rect x="29.25" y="28.25" width="19.5" height="19.5" rx="3.75" fill="#DEFF11" stroke="black" stroke-width="0.5"/>
<rect x="51.25" y="28.25" width="19.5" height="19.5" rx="3.75" fill="#DEFF11" stroke="black" stroke-width="0.5"/>
<rect x="29.25" y="48.25" width="19.5" height="19.5" rx="3.75" fill="#DEFF11" stroke="black" stroke-width="0.5"/>
<rect x="51.25" y="48.25" width="19.5" height="19.5" rx="3.75" fill="#DEFF11" stroke="black" stroke-width="0.5"/>
<rect x="29.25" y="68.25" width="19.5" height="19.5" rx="3.75" fill="#DEFF11" stroke="black" stroke-width="0.5"/>
<rect x="51.25" y="68.25" width="19.5" height="19.5" rx="3.75" fill="#DEFF11" stroke="black" stroke-width="0.5"/>
<rect x="29.25" y="88.25" width="19.5" height="19.5" rx="3.75" fill="#DEFF11" stroke="black" stroke-width="0.5"/>
<rect x="51.25" y="88.25" width="19.5" height="19.5" rx="3.75" fill="#DEFF11" stroke="black" stroke-width="0.5"/>
<rect x="29.25" y="108.25" width="19.5" height="19.5" rx="3.75" fill="#DEFF11" stroke="black" stroke-width="0.5"/>
<rect x="51.25" y="108.25" width="19.5" height="19.5" rx="3.75" fill="#DEFF11" stroke="black" stroke-width="0.5"/>
<rect x="29.25" y="129.25" width="19.5" height="19.5" rx="3.75" fill="#DEFF11" stroke="black" stroke-width="0.5"/>
<rect x="51.25" y="129.25" width="19.5" height="19.5" rx="3.75" fill="#DEFF11" stroke="black" stroke-width="0.5"/>
<rect x="29.25" y="150.25" width="19.5" height="19.5" rx="3.75" fill="#DEFF11" stroke="black" stroke-width="0.5"/>
<rect x="51.25" y="150.25" width="19.5" height="19.5" rx="3.75" fill="#DEFF11" stroke="black" stroke-width="0.5"/>
<circle cx="17" cy="200" r="10" fill="white"/>
<rect x="29.25" y="171.25" width="19.5" height="19.5" rx="3.75" fill="#DEFF11" stroke="black" stroke-width="0.5"/>
<rect x="51.25" y="171.25" width="19.5" height="19.5" rx="3.75" fill="#DEFF11" stroke="black" stroke-width="0.5"/>
<rect x="34.1" y="176.1" width="9.8" height="9.8" rx="1.9" fill="white" stroke="black" stroke-width="0.2"/>
<rect x="56.1" y="176.1" width="9.8" height="9.8" rx="1.9" fill="white" stroke="black" stroke-width="0.2"/>
<rect x="127" y="15" width="27" height="51" fill="#434343"/>
<rect x="127" y="70" width="27" height="51" fill="#434343"/>
<rect x="154" y="34" width="7" height="14" fill="#D9D9D9"/>
<rect x="154" y="88" width="7" height="14" fill="#D9D9D9"/>
<rect x="113" y="19" width="14" height="6" fill="#D9D9D9"/>
<rect x="113" y="37" width="14" height="6" fill="#D9D9D9"/>
<rect x="113" y="55" width="14" height="7" fill="#D9D9D9"/>
<rect x="113" y="73" width="14" height="7" fill="#D9D9D9"/>
<rect x="113" y="90" width="14" height="7" fill="#D9D9D9"/>
<rect x="113" y="107" width="14" height="7" fill="#D9D9D9"/>
<path d="M154.5 144C154.5 138.753 158.753 134.5 164 134.5H202C207.247 134.5 211.5 138.753 211.5 144V215.5H154.5V144Z" fill="#434343" stroke="black"/>
<rect x="147.5" y="197.5" width="71" height="20" fill="#434343" stroke="black"/>
<rect x="172" y="128" width="21" height="6" fill="#D9D9D9"/>
<rect x="87.5" y="161.5" width="54" height="54" fill="#C1C1C1" stroke="black"/>
<rect x="103.5" y="177.5" width="23" height="23" fill="#FBFBFB" stroke="black"/>
<rect x="56.1" y="153.1" width="9.8" height="9.8" rx="1.9" fill="white" stroke="black" stroke-width="0.2"/>
<rect x="34.1" y="153.1" width="9.8" height="9.8" rx="1.9" fill="#FFFDFD" stroke="black" stroke-width="0.2"/>
<rect x="34.1" y="134.1" width="9.8" height="9.8" rx="1.9" fill="#FFFDFD" stroke="black" stroke-width="0.2"/>
<rect x="56.1" y="134.1" width="9.8" height="9.8" rx="1.9" fill="#FFFDFD" stroke="black" stroke-width="0.2"/>
<rect x="34.1" y="113.1" width="9.8" height="9.8" rx="1.9" fill="white" stroke="black" stroke-width="0.2"/>
<rect x="56.1" y="113.1" width="9.8" height="9.8" rx="1.9" fill="#FFFEFE" stroke="black" stroke-width="0.2"/>
<rect x="56.1" y="93.1" width="9.8" height="9.8" rx="1.9" fill="white" stroke="black" stroke-width="0.2"/>
<rect x="56.1" y="73.1" width="9.8" height="9.8" rx="1.9" fill="white" stroke="black" stroke-width="0.2"/>
<rect x="56.1" y="54.1" width="9.8" height="9.8" rx="1.9" fill="white" stroke="black" stroke-width="0.2"/>
<rect x="56.1" y="33.1" width="9.8" height="9.8" rx="1.9" fill="#FFFAFA" stroke="black" stroke-width="0.2"/>
<rect x="34.1" y="33.1" width="9.8" height="9.8" rx="1.9" fill="white" stroke="black" stroke-width="0.2"/>
<rect x="34.1" y="53.1" width="9.8" height="9.8" rx="1.9" fill="#FDFDFD" stroke="black" stroke-width="0.2"/>
<rect x="34.1" y="73.1" width="9.8" height="9.8" rx="1.9" fill="white" stroke="black" stroke-width="0.2"/>
<rect x="34.1" y="93.1" width="9.8" height="10.8" rx="1.9" fill="white" stroke="black" stroke-width="0.2"/>
<rect x="97" y="13" width="9" height="25" rx="4" fill="#D9D9D9"/>
<rect x="97" y="22" width="9" height="7" fill="#FFBD12"/>
<rect x="97" y="41" width="9" height="25" rx="4" fill="#D9D9D9"/>
<rect x="97" y="50" width="9" height="7" fill="#FFBD12"/>
<rect x="97" y="79" width="9" height="25" rx="4" fill="#D9D9D9"/>
<rect x="97" y="88" width="9" height="7" fill="#FFBD12"/>
<path d="M72.8807 31.8523C72.8807 31.2898 72.9773 30.7884 73.1705 30.348C73.3636 29.9105 73.6321 29.5625 73.9759 29.304C74.3224 29.0483 74.7244 28.9091 75.1818 28.8864V29.9602C74.9006 29.983 74.6577 30.0795 74.4531 30.25C74.2514 30.4205 74.0952 30.6435 73.9844 30.919C73.8736 31.1946 73.8182 31.5 73.8182 31.8352C73.8182 32.2102 73.8835 32.5426 74.0142 32.8324C74.1449 33.1222 74.3267 33.3494 74.5597 33.5142C74.7926 33.679 75.0625 33.7614 75.3693 33.7614C75.6903 33.7614 75.973 33.6818 76.2173 33.5227C76.4645 33.3636 76.6577 33.1307 76.7969 32.8239C76.9361 32.517 77.0057 32.142 77.0057 31.6989V31H77.9432V31.6989C77.9432 32.0455 78.0057 32.3494 78.1307 32.6108C78.2557 32.875 78.4318 33.081 78.6591 33.2287C78.8864 33.3793 79.1534 33.4545 79.4602 33.4545C79.7557 33.4545 80.0128 33.3892 80.2315 33.2585C80.4503 33.1278 80.6207 32.9432 80.7429 32.7045C80.8651 32.4688 80.9261 32.1903 80.9261 31.8693C80.9261 31.5682 80.8707 31.2841 80.7599 31.017C80.652 30.7528 80.4943 30.5369 80.2869 30.3693C80.0824 30.2017 79.8352 30.1108 79.5455 30.0966V29.0739C80.0028 29.0909 80.4034 29.2287 80.7472 29.4872C81.0938 29.7457 81.3636 30.0838 81.5568 30.5014C81.75 30.9219 81.8466 31.3835 81.8466 31.8864C81.8466 32.4261 81.7372 32.8892 81.5185 33.2756C81.3026 33.6619 81.017 33.9588 80.6619 34.1662C80.3068 34.3736 79.9233 34.4773 79.5114 34.4773C79.0199 34.4773 78.6009 34.348 78.2543 34.0895C77.9077 33.8338 77.6676 33.4858 77.5341 33.0455H77.4659C77.375 33.5966 77.1406 34.027 76.7628 34.3366C76.3878 34.6463 75.9233 34.8011 75.3693 34.8011C74.8949 34.8011 74.4688 34.6719 74.0909 34.4134C73.7159 34.1577 73.4205 33.8082 73.2045 33.3651C72.9886 32.9219 72.8807 32.4176 72.8807 31.8523ZM81.7273 37.0554L74.3807 39.6463V39.7486L81.7273 42.3395V43.4474L73 40.2429V39.152L81.7273 35.9474V37.0554ZM72.8807 47.6023C72.8807 47.0398 72.9773 46.5384 73.1705 46.098C73.3636 45.6605 73.6321 45.3125 73.9759 45.054C74.3224 44.7983 74.7244 44.6591 75.1818 44.6364V45.7102C74.9006 45.733 74.6577 45.8295 74.4531 46C74.2514 46.1705 74.0952 46.3935 73.9844 46.669C73.8736 46.9446 73.8182 47.25 73.8182 47.5852C73.8182 47.9602 73.8835 48.2926 74.0142 48.5824C74.1449 48.8722 74.3267 49.0994 74.5597 49.2642C74.7926 49.429 75.0625 49.5114 75.3693 49.5114C75.6903 49.5114 75.973 49.4318 76.2173 49.2727C76.4645 49.1136 76.6577 48.8807 76.7969 48.5739C76.9361 48.267 77.0057 47.892 77.0057 47.4489V46.75H77.9432V47.4489C77.9432 47.7955 78.0057 48.0994 78.1307 48.3608C78.2557 48.625 78.4318 48.831 78.6591 48.9787C78.8864 49.1293 79.1534 49.2045 79.4602 49.2045C79.7557 49.2045 80.0128 49.1392 80.2315 49.0085C80.4503 48.8778 80.6207 48.6932 80.7429 48.4545C80.8651 48.2188 80.9261 47.9403 80.9261 47.6193C80.9261 47.3182 80.8707 47.0341 80.7599 46.767C80.652 46.5028 80.4943 46.2869 80.2869 46.1193C80.0824 45.9517 79.8352 45.8608 79.5455 45.8466V44.8239C80.0028 44.8409 80.4034 44.9787 80.7472 45.2372C81.0938 45.4957 81.3636 45.8338 81.5568 46.2514C81.75 46.6719 81.8466 47.1335 81.8466 47.6364C81.8466 48.1761 81.7372 48.6392 81.5185 49.0256C81.3026 49.4119 81.017 49.7088 80.6619 49.9162C80.3068 50.1236 79.9233 50.2273 79.5114 50.2273C79.0199 50.2273 78.6009 50.098 78.2543 49.8395C77.9077 49.5838 77.6676 49.2358 77.5341 48.7955H77.4659C77.375 49.3466 77.1406 49.777 76.7628 50.0866C76.3878 50.3963 75.9233 50.5511 75.3693 50.5511C74.8949 50.5511 74.4688 50.4219 74.0909 50.1634C73.7159 49.9077 73.4205 49.5582 73.2045 49.1151C72.9886 48.6719 72.8807 48.1676 72.8807 47.6023Z" fill="#FFFBFB"/>
<path d="M73.3807 93.1307C73.3807 92.6307 73.4801 92.1804 73.679 91.7798C73.8778 91.3793 74.1506 91.0582 74.4972 90.8168C74.8438 90.5753 75.2386 90.4432 75.6818 90.4205V91.4432C75.2869 91.483 74.9602 91.6619 74.7017 91.9801C74.446 92.3011 74.3182 92.6847 74.3182 93.1307C74.3182 93.4886 74.402 93.8068 74.5696 94.0852C74.7372 94.3665 74.9673 94.5866 75.2599 94.7457C75.5554 94.9077 75.8892 94.9886 76.2614 94.9886C76.642 94.9886 76.9815 94.9048 77.2798 94.7372C77.581 94.5724 77.8182 94.3452 77.9915 94.0554C78.1648 93.7656 78.2528 93.4347 78.2557 93.0625C78.2585 92.7955 78.2173 92.5213 78.1321 92.2401C78.0497 91.9588 77.9432 91.7273 77.8125 91.5455L77.9318 90.5568L82.2273 91.0852V95.6193H81.2898V91.9716L78.7159 91.6648V91.7159C78.858 91.8949 78.9759 92.1193 79.0696 92.3892C79.1634 92.6591 79.2102 92.9403 79.2102 93.233C79.2102 93.767 79.0824 94.2429 78.8267 94.6605C78.5739 95.081 78.2273 95.4105 77.7869 95.6491C77.3466 95.8906 76.8438 96.0114 76.2784 96.0114C75.7216 96.0114 75.2244 95.8864 74.7869 95.6364C74.3523 95.3892 74.0085 95.0483 73.7557 94.6136C73.5057 94.179 73.3807 93.6847 73.3807 93.1307ZM82.2273 98.2156L74.8807 100.806V100.909L82.2273 103.5V104.608L73.5 101.403V100.312L82.2273 97.1076V98.2156Z" fill="#F9F7F7"/>
<path d="M73.5 142.25V139.557H82.2273V142.369C82.2273 143.216 82.0526 143.94 81.7031 144.543C81.3565 145.145 80.858 145.607 80.2074 145.928C79.5597 146.249 78.7841 146.409 77.8807 146.409C76.9716 146.409 76.1889 146.247 75.5327 145.923C74.8793 145.599 74.3764 145.128 74.0241 144.509C73.6747 143.889 73.5 143.136 73.5 142.25ZM74.4375 140.614V142.182C74.4375 142.903 74.5767 143.501 74.8551 143.976C75.1335 144.45 75.5298 144.804 76.044 145.037C76.5582 145.27 77.1705 145.386 77.8807 145.386C78.5852 145.386 79.1918 145.271 79.7003 145.041C80.2116 144.811 80.6037 144.467 80.8764 144.01C81.152 143.553 81.2898 142.983 81.2898 142.301V140.614H74.4375ZM79.5 155.205V154.148C79.804 154.085 80.071 153.976 80.3011 153.82C80.5312 153.666 80.7244 153.479 80.8807 153.257C81.0398 153.038 81.1591 152.795 81.2386 152.528C81.3182 152.261 81.358 151.983 81.358 151.693C81.358 151.165 81.2244 150.686 80.9574 150.257C80.6903 149.831 80.2969 149.491 79.777 149.239C79.2571 148.989 78.6193 148.864 77.8636 148.864C77.108 148.864 76.4702 148.989 75.9503 149.239C75.4304 149.491 75.0369 149.831 74.7699 150.257C74.5028 150.686 74.3693 151.165 74.3693 151.693C74.3693 151.983 74.4091 152.261 74.4886 152.528C74.5682 152.795 74.6861 153.038 74.8423 153.257C75.0014 153.479 75.196 153.666 75.4261 153.82C75.6591 153.976 75.9261 154.085 76.2273 154.148V155.205C75.7813 155.125 75.3821 154.98 75.0298 154.77C74.6776 154.56 74.3778 154.298 74.1307 153.986C73.8864 153.673 73.7003 153.322 73.5724 152.933C73.4446 152.547 73.3807 152.134 73.3807 151.693C73.3807 150.949 73.5625 150.287 73.9261 149.707C74.2898 149.128 74.8068 148.672 75.4773 148.339C76.1477 148.007 76.9432 147.841 77.8636 147.841C78.7841 147.841 79.5795 148.007 80.25 148.339C80.9205 148.672 81.4375 149.128 81.8011 149.707C82.1648 150.287 82.3466 150.949 82.3466 151.693C82.3466 152.134 82.2827 152.547 82.1548 152.933C82.027 153.322 81.8395 153.673 81.5923 153.986C81.348 154.298 81.0497 154.56 80.6974 154.77C80.348 154.98 79.9489 155.125 79.5 155.205ZM78.3324 160.526H77.3949V156.708H78.3324V160.526ZM82.2273 163.489H73.5V162.432H82.2273V163.489ZM82.2273 172.528H73.5V171.505L80.3523 166.75V166.664H73.5V165.608H82.2273V166.63L75.358 171.403V171.488H82.2273V172.528Z" fill="#F9F7F7"/>
<path d="M21.5 147.523C21.7869 147.429 22.044 147.305 22.2713 147.152C22.5014 147.001 22.6974 146.821 22.8594 146.611C23.0213 146.403 23.1449 146.168 23.2301 145.903C23.3153 145.639 23.358 145.349 23.358 145.034C23.358 144.517 23.2244 144.047 22.9574 143.624C22.6903 143.2 22.2969 142.864 21.777 142.614C21.2571 142.364 20.6193 142.239 19.8636 142.239C19.108 142.239 18.4702 142.365 17.9503 142.618C17.4304 142.871 17.0369 143.213 16.7699 143.645C16.5028 144.077 16.3693 144.563 16.3693 145.102C16.3693 145.602 16.4759 146.043 16.6889 146.423C16.9048 146.807 17.2088 147.105 17.6009 147.318C17.9957 147.534 18.4602 147.642 18.9943 147.642L18.9261 147.966V145.341H19.8636V148.665H18.9261C18.2074 148.665 17.5824 148.511 17.0511 148.205C16.5199 147.901 16.108 147.48 15.8153 146.943C15.5256 146.409 15.3807 145.795 15.3807 145.102C15.3807 144.33 15.5625 143.651 15.9261 143.065C16.2898 142.483 16.8068 142.028 17.4773 141.702C18.1477 141.378 18.9432 141.216 19.8636 141.216C20.554 141.216 21.1747 141.308 21.7259 141.493C22.2798 141.68 22.7514 141.945 23.1406 142.286C23.5298 142.626 23.8281 143.03 24.0355 143.496C24.2429 143.962 24.3466 144.474 24.3466 145.034C24.3466 145.494 24.277 145.923 24.1378 146.321C24.0014 146.722 23.8068 147.078 23.554 147.391C23.304 147.706 23.0043 147.969 22.6548 148.179C22.3082 148.389 21.9233 148.534 21.5 148.614V147.523ZM24.2273 157.395H15.5V156.373L22.3523 151.617V151.532H15.5V150.475H24.2273V151.498L17.358 156.27V156.355H24.2273V157.395ZM15.5 162.203V159.51H24.2273V162.322C24.2273 163.169 24.0526 163.893 23.7031 164.496C23.3565 165.098 22.858 165.56 22.2074 165.881C21.5597 166.202 20.7841 166.362 19.8807 166.362C18.9716 166.362 18.1889 166.2 17.5327 165.876C16.8793 165.553 16.3764 165.081 16.0241 164.462C15.6747 163.842 15.5 163.089 15.5 162.203ZM16.4375 160.567V162.135C16.4375 162.857 16.5767 163.455 16.8551 163.929C17.1335 164.403 17.5298 164.757 18.044 164.99C18.5582 165.223 19.1705 165.339 19.8807 165.339C20.5852 165.339 21.1918 165.224 21.7003 164.994C22.2116 164.764 22.6037 164.42 22.8764 163.963C23.152 163.506 23.2898 162.936 23.2898 162.254V160.567H16.4375Z" fill="#F9F7F7"/>
<path d="M21.5 90.5227C21.7869 90.429 22.044 90.3054 22.2713 90.152C22.5014 90.0014 22.6974 89.821 22.8594 89.6108C23.0213 89.4034 23.1449 89.1676 23.2301 88.9034C23.3153 88.6392 23.358 88.3494 23.358 88.0341C23.358 87.517 23.2244 87.0469 22.9574 86.6236C22.6903 86.2003 22.2969 85.8636 21.777 85.6136C21.2571 85.3636 20.6193 85.2386 19.8636 85.2386C19.108 85.2386 18.4702 85.3651 17.9503 85.6179C17.4304 85.8707 17.0369 86.2131 16.7699 86.6449C16.5028 87.0767 16.3693 87.5625 16.3693 88.1023C16.3693 88.6023 16.4759 89.0426 16.6889 89.4233C16.9048 89.8068 17.2088 90.1051 17.6009 90.3182C17.9957 90.5341 18.4602 90.642 18.9943 90.642L18.9261 90.9659V88.3409H19.8636V91.6648H18.9261C18.2074 91.6648 17.5824 91.5114 17.0511 91.2045C16.5199 90.9006 16.108 90.4801 15.8153 89.9432C15.5256 89.4091 15.3807 88.7955 15.3807 88.1023C15.3807 87.3295 15.5625 86.6506 15.9261 86.0653C16.2898 85.483 16.8068 85.0284 17.4773 84.7017C18.1477 84.3778 18.9432 84.2159 19.8636 84.2159C20.554 84.2159 21.1747 84.3082 21.7259 84.4929C22.2798 84.6804 22.7514 84.9446 23.1406 85.2855C23.5298 85.6264 23.8281 86.0298 24.0355 86.4957C24.2429 86.9616 24.3466 87.4744 24.3466 88.0341C24.3466 88.4943 24.277 88.9233 24.1378 89.321C24.0014 89.7216 23.8068 90.0781 23.554 90.3906C23.304 90.706 23.0043 90.9688 22.6548 91.179C22.3082 91.3892 21.9233 91.5341 21.5 91.6136V90.5227ZM24.2273 100.395H15.5V99.3725L22.3523 94.6168V94.5316H15.5V93.4748H24.2273V94.4975L17.358 99.2702V99.3555H24.2273V100.395ZM15.5 105.203V102.51H24.2273V105.322C24.2273 106.169 24.0526 106.893 23.7031 107.496C23.3565 108.098 22.858 108.56 22.2074 108.881C21.5597 109.202 20.7841 109.362 19.8807 109.362C18.9716 109.362 18.1889 109.2 17.5327 108.876C16.8793 108.553 16.3764 108.081 16.0241 107.462C15.6747 106.842 15.5 106.089 15.5 105.203ZM16.4375 103.567V105.135C16.4375 105.857 16.5767 106.455 16.8551 106.929C17.1335 107.403 17.5298 107.757 18.044 107.99C18.5582 108.223 19.1705 108.339 19.8807 108.339C20.5852 108.339 21.1918 108.224 21.7003 107.994C22.2116 107.764 22.6037 107.42 22.8764 106.963C23.152 106.506 23.2898 105.936 23.2898 105.254V103.567H16.4375Z" fill="#F9F7F7"/>
<path d="M21.5 30.5227C21.7869 30.429 22.044 30.3054 22.2713 30.152C22.5014 30.0014 22.6974 29.821 22.8594 29.6108C23.0213 29.4034 23.1449 29.1676 23.2301 28.9034C23.3153 28.6392 23.358 28.3494 23.358 28.0341C23.358 27.517 23.2244 27.0469 22.9574 26.6236C22.6903 26.2003 22.2969 25.8636 21.777 25.6136C21.2571 25.3636 20.6193 25.2386 19.8636 25.2386C19.108 25.2386 18.4702 25.3651 17.9503 25.6179C17.4304 25.8707 17.0369 26.2131 16.7699 26.6449C16.5028 27.0767 16.3693 27.5625 16.3693 28.1023C16.3693 28.6023 16.4759 29.0426 16.6889 29.4233C16.9048 29.8068 17.2088 30.1051 17.6009 30.3182C17.9957 30.5341 18.4602 30.642 18.9943 30.642L18.9261 30.9659V28.3409H19.8636V31.6648H18.9261C18.2074 31.6648 17.5824 31.5114 17.0511 31.2045C16.5199 30.9006 16.108 30.4801 15.8153 29.9432C15.5256 29.4091 15.3807 28.7955 15.3807 28.1023C15.3807 27.3295 15.5625 26.6506 15.9261 26.0653C16.2898 25.483 16.8068 25.0284 17.4773 24.7017C18.1477 24.3778 18.9432 24.2159 19.8636 24.2159C20.554 24.2159 21.1747 24.3082 21.7259 24.4929C22.2798 24.6804 22.7514 24.9446 23.1406 25.2855C23.5298 25.6264 23.8281 26.0298 24.0355 26.4957C24.2429 26.9616 24.3466 27.4744 24.3466 28.0341C24.3466 28.4943 24.277 28.9233 24.1378 29.321C24.0014 29.7216 23.8068 30.0781 23.554 30.3906C23.304 30.706 23.0043 30.9688 22.6548 31.179C22.3082 31.3892 21.9233 31.5341 21.5 31.6136V30.5227ZM24.2273 40.3952H15.5V39.3725L22.3523 34.6168V34.5316H15.5V33.4748H24.2273V34.4975L17.358 39.2702V39.3555H24.2273V40.3952ZM15.5 45.2031V42.5099H24.2273V45.3224C24.2273 46.169 24.0526 46.8935 23.7031 47.4957C23.3565 48.098 22.858 48.5597 22.2074 48.8807C21.5597 49.2017 20.7841 49.3622 19.8807 49.3622C18.9716 49.3622 18.1889 49.2003 17.5327 48.8764C16.8793 48.5526 16.3764 48.081 16.0241 47.4616C15.6747 46.8423 15.5 46.0895 15.5 45.2031ZM16.4375 43.5668V45.1349C16.4375 45.8565 16.5767 46.4545 16.8551 46.929C17.1335 47.4034 17.5298 47.7571 18.044 47.9901C18.5582 48.223 19.1705 48.3395 19.8807 48.3395C20.5852 48.3395 21.1918 48.2244 21.7003 47.9943C22.2116 47.7642 22.6037 47.4205 22.8764 46.9631C23.152 46.5057 23.2898 45.9361 23.2898 45.2543V43.5668H16.4375Z" fill="#F9F7F7"/>
<rect x="98" y="127" width="8" height="21" fill="#D9D9D9"/>
<rect x="98.5" y="130.5" width="7" height="13" fill="#E2E64D" stroke="black"/>
<rect x="200" y="57" width="9" height="25" rx="4" fill="#D9D9D9"/>
<rect x="200" y="66" width="9" height="7" fill="#FFBD12"/>
<rect x="186" y="57" width="9" height="25" rx="4" fill="#D9D9D9"/>
<rect x="186" y="66" width="9" height="7" fill="#FFBD12"/>
<rect x="182" y="23" width="9" height="22" fill="#D9D9D9"/>
<rect x="200" y="23" width="9" height="22" fill="#D9D9D9"/>
<rect x="182.5" y="29.5" width="8" height="10" fill="white" stroke="black"/>
<rect x="200.5" y="28.5" width="8" height="11" fill="#1F1F1F" stroke="black"/>
<g filter="url(#filter0_d_16_698)">
<rect x="183" y="30" width="7" height="9" fill="#FF0A0A"/>
</g>
<defs>
<filter id="filter0_d_16_698" x="179" y="30" width="15" height="17" filterUnits="userSpaceOnUse" color-interpolation-filters="sRGB">
<feFlood flood-opacity="0" result="BackgroundImageFix"/>
<feColorMatrix in="SourceAlpha" type="matrix" values="0 0 0 0 0 0 0 0 0 0 0 0 0 0 0 0 0 0 127 0" result="hardAlpha"/>
<feOffset dy="4"/>
<feGaussianBlur stdDeviation="2"/>
<feComposite in2="hardAlpha" operator="out"/>
<feColorMatrix type="matrix" values="0 0 0 0 0 0 0 0 0 0 0 0 0 0 0 0 0 0 0.25 0"/>
<feBlend mode="normal" in2="BackgroundImageFix" result="effect1_dropShadow_16_698"/>
<feBlend mode="normal" in="SourceGraphic" in2="effect1_dropShadow_16_698" result="shape"/>
</filter>
</defs>
</svg>
