<svg width="83" height="177" viewBox="0 0 83 177" fill="none" xmlns="http://www.w3.org/2000/svg">
<rect x="73.75" y="0.25" width="148.5" height="62.5" transform="rotate(90 73.75 0.25)" fill="#22B928" stroke="black" stroke-width="0.5"/>
<rect x="64" y="116" width="20" height="20" rx="4" transform="rotate(90 64 116)" fill="#2E2E2E"/>
<rect x="43" y="116" width="20" height="20" rx="4" transform="rotate(90 43 116)" fill="#2E2E2E"/>
<rect x="29" y="126" width="8" height="51" fill="#D9D9D9"/>
<rect x="49" y="126" width="8" height="51" fill="#D9D9D9"/>
<path d="M48.2699 108.318V106.727H54.5909V108.318H52.4034V114H50.4574V108.318H48.2699ZM58.9135 106.727V114H56.9391V108.545H56.8965L55.3056 109.497V107.821L57.0953 106.727H58.9135Z" fill="white"/>
<path d="M26.2699 108.318V106.727H32.5909V108.318H30.4034V114H28.4574V108.318H26.2699ZM33.3482 114V112.58L36.0613 110.335C36.2412 110.186 36.3951 110.046 36.5229 109.916C36.6531 109.784 36.7525 109.647 36.8212 109.508C36.8922 109.368 36.9277 109.213 36.9277 109.043C36.9277 108.856 36.8875 108.696 36.807 108.563C36.7289 108.431 36.62 108.329 36.4803 108.258C36.3406 108.184 36.1796 108.148 35.9973 108.148C35.815 108.148 35.6541 108.184 35.5144 108.258C35.3771 108.331 35.2705 108.439 35.1948 108.581C35.119 108.723 35.0811 108.896 35.0811 109.099H33.2061C33.2061 108.588 33.321 108.148 33.5506 107.778C33.7802 107.409 34.1046 107.125 34.5236 106.926C34.9426 106.727 35.4339 106.628 35.9973 106.628C36.5797 106.628 37.084 106.721 37.5101 106.908C37.9386 107.093 38.2689 107.353 38.5009 107.69C38.7353 108.026 38.8525 108.42 38.8525 108.872C38.8525 109.152 38.7944 109.43 38.6784 109.707C38.5624 109.981 38.3541 110.286 38.0534 110.619C37.7528 110.953 37.3255 111.351 36.7715 111.812L36.0897 112.381V112.423H38.9306V114H33.3482Z" fill="white"/>
<path d="M15 62.2344H18.6364V63.804C18.6364 64.0739 18.5831 64.31 18.4766 64.5124C18.37 64.7148 18.2203 64.8723 18.0273 64.9847C17.8344 65.0972 17.6089 65.1534 17.3509 65.1534C17.0904 65.1534 16.8649 65.0954 16.6744 64.9794C16.4838 64.8646 16.337 64.703 16.234 64.4947C16.131 64.2875 16.0795 64.0455 16.0795 63.7685V62.831H16.8466V63.5696C16.8466 63.6856 16.8667 63.7844 16.907 63.8661C16.9484 63.949 17.007 64.0123 17.0827 64.0561C17.1585 64.1011 17.2479 64.1236 17.3509 64.1236C17.455 64.1236 17.5438 64.1011 17.6172 64.0561C17.6918 64.0123 17.7486 63.949 17.7876 63.8661C17.8279 63.7844 17.848 63.6856 17.848 63.5696V63.2216H15V62.2344ZM18.6364 67.6676V68.6548H16.3068C16.0298 68.6548 15.7901 68.5885 15.5877 68.456C15.3865 68.3246 15.2308 68.1411 15.1207 67.9055C15.0118 67.67 14.9574 67.3965 14.9574 67.0852C14.9574 66.7715 15.0118 66.4969 15.1207 66.2614C15.2308 66.0258 15.3865 65.8423 15.5877 65.7109C15.7901 65.5807 16.0298 65.5156 16.3068 65.5156H18.6364V66.5028H16.392C16.2796 66.5028 16.179 66.5277 16.0902 66.5774C16.0026 66.6271 15.9339 66.6958 15.8842 66.7834C15.8345 66.8722 15.8097 66.9728 15.8097 67.0852C15.8097 67.1989 15.8345 67.2995 15.8842 67.3871C15.9339 67.4747 16.0026 67.5433 16.0902 67.593C16.179 67.6428 16.2796 67.6676 16.392 67.6676H18.6364ZM17.5 71.0843C17.6184 71.0748 17.7107 71.0304 17.777 70.9511C17.8433 70.873 17.8764 70.754 17.8764 70.5942C17.8764 70.4924 17.864 70.4089 17.8391 70.3438C17.8155 70.2799 17.7829 70.2326 17.7415 70.2018C17.7 70.171 17.6527 70.155 17.5994 70.1539C17.5556 70.1515 17.516 70.1592 17.4805 70.1769C17.4461 70.1959 17.4148 70.2255 17.3864 70.2657C17.3591 70.306 17.3343 70.3575 17.3118 70.4202C17.2893 70.4829 17.2692 70.5575 17.2514 70.6439L17.1875 70.9422C17.1449 71.1434 17.0887 71.3157 17.0188 71.4589C16.949 71.6021 16.8667 71.7193 16.772 71.8105C16.6785 71.9016 16.5732 71.9685 16.456 72.0111C16.3388 72.0549 16.2109 72.0774 16.0724 72.0786C15.8333 72.0774 15.6309 72.0176 15.4652 71.8992C15.2995 71.7809 15.1734 71.6116 15.087 71.3914C15.0006 71.1724 14.9574 70.9091 14.9574 70.6013C14.9574 70.2852 15.0041 70.0094 15.0977 69.7739C15.1912 69.5395 15.335 69.3572 15.5291 69.227C15.7244 69.098 15.9742 69.0329 16.2784 69.0317V69.9692C16.1671 69.9751 16.0736 70.0029 15.9979 70.0526C15.9221 70.1024 15.8647 70.1722 15.8256 70.2622C15.7866 70.3533 15.767 70.4616 15.767 70.5871C15.767 70.6924 15.7801 70.7806 15.8061 70.8517C15.8321 70.9227 15.8683 70.9765 15.9144 71.0132C15.9606 71.0499 16.0133 71.0689 16.0724 71.07C16.1281 71.0689 16.1766 71.0505 16.218 71.015C16.2607 70.9807 16.2985 70.9239 16.3317 70.8445C16.366 70.7652 16.398 70.6581 16.4276 70.5232L16.5057 70.161C16.5755 69.839 16.6921 69.5851 16.8555 69.3992C17.02 69.2146 17.2443 69.1228 17.5284 69.124C17.7592 69.1228 17.9611 69.1844 18.1339 69.3087C18.3079 69.4342 18.4434 69.6076 18.5405 69.8289C18.6375 70.0515 18.6861 70.3066 18.6861 70.5942C18.6861 70.8878 18.637 71.1417 18.5387 71.3559C18.4405 71.5702 18.302 71.7353 18.1232 71.8513C17.9457 71.9685 17.7379 72.0277 17.5 72.0289L17.5 71.0843ZM15 72.4541H18.6364V73.4413H17.2159V74.7481H18.6364V75.7354H15V74.7481H16.4205V73.4413H15L15 72.4541ZM17.1875 78.0081H16.4489V76.3035H17.1875V78.0081ZM16.8182 82.0999C16.4134 82.0999 16.0719 82.0212 15.7937 81.8637C15.5167 81.7063 15.3066 81.4938 15.1634 81.2263C15.0213 80.9588 14.9503 80.6605 14.9503 80.3314C14.9503 80 15.0219 79.7005 15.1651 79.433C15.3095 79.1666 15.5202 78.9548 15.7972 78.7973C16.0754 78.6411 16.4157 78.5629 16.8182 78.5629C17.223 78.5629 17.5639 78.6411 17.8409 78.7973C18.1191 78.9548 18.3292 79.1666 18.4712 79.433C18.6145 79.7005 18.6861 80 18.6861 80.3314C18.6861 80.6605 18.6145 80.9588 18.4712 81.2263C18.3292 81.4938 18.1191 81.7063 17.8409 81.8637C17.5639 82.0212 17.223 82.0999 16.8182 82.0999ZM16.8182 81.0843C17.036 81.0843 17.2195 81.0552 17.3686 80.9972C17.5189 80.9404 17.6326 80.8558 17.7095 80.7433C17.7876 80.6321 17.8267 80.4948 17.8267 80.3314C17.8267 80.1681 17.7876 80.0302 17.7095 79.9177C17.6326 79.8064 17.5189 79.7218 17.3686 79.6638C17.2195 79.607 17.036 79.5786 16.8182 79.5786C16.6004 79.5786 16.4163 79.607 16.266 79.6638C16.1168 79.7218 16.0032 79.8064 15.9251 79.9177C15.8481 80.0302 15.8097 80.1681 15.8097 80.3314C15.8097 80.4948 15.8481 80.6321 15.9251 80.7433C16.0032 80.8558 16.1168 80.9404 16.266 80.9972C16.4163 81.0552 16.6004 81.0843 16.8182 81.0843ZM18.6364 85.7029H15V84.8791L16.9105 83.5652V83.5439H15V82.5566H18.6364V83.3947L16.733 84.6873V84.7157H18.6364V85.7029ZM15 87.166H18.6364L18.6364 88.7356C18.6364 89.0055 18.5831 89.2417 18.4766 89.4441C18.37 89.6465 18.2203 89.8039 18.0273 89.9164C17.8344 90.0288 17.6089 90.085 17.3509 90.085C17.0904 90.085 16.8649 90.027 16.6744 89.911C16.4838 89.7962 16.337 89.6346 16.234 89.4263C16.131 89.2192 16.0795 88.9771 16.0795 88.7001V87.7626H16.8466V88.5012C16.8466 88.6172 16.8667 88.7161 16.907 88.7978C16.9484 88.8806 17.007 88.944 17.0827 88.9877C17.1585 89.0327 17.2479 89.0552 17.3509 89.0552C17.455 89.0552 17.5438 89.0327 17.6172 88.9877C17.6918 88.944 17.7486 88.8806 17.7876 88.7978C17.8279 88.7161 17.848 88.6172 17.848 88.5012V88.1532H15V87.166ZM18.6364 92.5993V93.5865H16.3068C16.0298 93.5865 15.7901 93.5202 15.5877 93.3876C15.3865 93.2562 15.2308 93.0727 15.1207 92.8372C15.0118 92.6016 14.9574 92.3282 14.9574 92.0169C14.9574 91.7032 15.0118 91.4286 15.1207 91.193C15.2308 90.9574 15.3865 90.774 15.5877 90.6426C15.7901 90.5124 16.0298 90.4473 16.3068 90.4473H18.6364V91.4345H16.392C16.2796 91.4345 16.179 91.4593 16.0902 91.5091C16.0026 91.5588 15.9339 91.6274 15.8842 91.715C15.8345 91.8038 15.8097 91.9044 15.8097 92.0169C15.8097 92.1305 15.8345 92.2311 15.8842 92.3187C15.9339 92.4063 16.0026 92.475 16.0902 92.5247C16.179 92.5744 16.2796 92.5993 16.392 92.5993H18.6364ZM17.5 96.0159C17.6184 96.0064 17.7107 95.962 17.777 95.8827C17.8433 95.8046 17.8764 95.6856 17.8764 95.5258C17.8764 95.424 17.864 95.3406 17.8391 95.2755C17.8155 95.2116 17.7829 95.1642 17.7415 95.1334C17.7 95.1027 17.6527 95.0867 17.5994 95.0855C17.5556 95.0831 17.516 95.0908 17.4805 95.1086C17.4461 95.1275 17.4148 95.1571 17.3864 95.1974C17.3591 95.2376 17.3343 95.2891 17.3118 95.3518C17.2893 95.4146 17.2692 95.4891 17.2514 95.5756L17.1875 95.8738C17.1449 96.0751 17.0887 96.2473 17.0188 96.3905C16.949 96.5338 16.8667 96.651 16.772 96.7421C16.6785 96.8332 16.5732 96.9001 16.456 96.9427C16.3388 96.9865 16.2109 97.009 16.0724 97.0102C15.8333 97.009 15.6309 96.9492 15.4652 96.8309C15.2995 96.7125 15.1734 96.5432 15.087 96.3231C15.0006 96.1041 14.9574 95.8407 14.9574 95.5329C14.9574 95.2169 15.0041 94.9411 15.0977 94.7055C15.1912 94.4711 15.335 94.2889 15.5291 94.1586C15.7244 94.0296 15.9742 93.9645 16.2784 93.9633V94.9008C16.1671 94.9068 16.0736 94.9346 15.9979 94.9843C15.9221 95.034 15.8647 95.1038 15.8256 95.1938C15.7866 95.2849 15.767 95.3933 15.767 95.5187C15.767 95.6241 15.7801 95.7123 15.8061 95.7833C15.8321 95.8543 15.8683 95.9082 15.9144 95.9449C15.9606 95.9816 16.0133 96.0005 16.0724 96.0017C16.1281 96.0005 16.1766 95.9822 16.218 95.9466C16.2607 95.9123 16.2985 95.8555 16.3317 95.7762C16.366 95.6969 16.398 95.5898 16.4276 95.4548L16.5057 95.0926C16.5755 94.7706 16.6921 94.5167 16.8555 94.3309C17.02 94.1462 17.2443 94.0545 17.5284 94.0557C17.7592 94.0545 17.9611 94.116 18.1339 94.2403C18.3079 94.3658 18.4434 94.5392 18.5405 94.7606C18.6375 94.9831 18.6861 95.2382 18.6861 95.5258C18.6861 95.8194 18.637 96.0733 18.5387 96.2876C18.4405 96.5018 18.302 96.6669 18.1232 96.7829C17.9457 96.9001 17.7379 96.9593 17.5 96.9605V96.0159ZM15 97.3857H18.6364V98.373H17.2159V99.6798H18.6364V100.667H15V99.6798H16.4205V98.373H15V97.3857ZM17.1875 102.94H16.4489V101.235H17.1875V102.94ZM16.8182 107.032C16.4134 107.032 16.0719 106.953 15.7937 106.795C15.5167 106.638 15.3066 106.425 15.1634 106.158C15.0213 105.89 14.9503 105.592 14.9503 105.263C14.9503 104.932 15.0219 104.632 15.1651 104.365C15.3095 104.098 15.5202 103.886 15.7972 103.729C16.0754 103.573 16.4157 103.495 16.8182 103.495C17.223 103.495 17.5639 103.573 17.8409 103.729C18.1191 103.886 18.3292 104.098 18.4712 104.365C18.6145 104.632 18.6861 104.932 18.6861 105.263C18.6861 105.592 18.6145 105.89 18.4712 106.158C18.3292 106.425 18.1191 106.638 17.8409 106.795C17.5639 106.953 17.223 107.032 16.8182 107.032ZM16.8182 106.016C17.036 106.016 17.2195 105.987 17.3686 105.929C17.5189 105.872 17.6326 105.787 17.7095 105.675C17.7876 105.564 17.8267 105.426 17.8267 105.263C17.8267 105.1 17.7876 104.962 17.7095 104.849C17.6326 104.738 17.5189 104.653 17.3686 104.595C17.2195 104.539 17.036 104.51 16.8182 104.51C16.6004 104.51 16.4163 104.539 16.266 104.595C16.1168 104.653 16.0032 104.738 15.9251 104.849C15.8481 104.962 15.8097 105.1 15.8097 105.263C15.8097 105.426 15.8481 105.564 15.9251 105.675C16.0032 105.787 16.1168 105.872 16.266 105.929C16.4163 105.987 16.6004 106.016 16.8182 106.016ZM15 107.488H18.6364V110.045H17.8409V108.475H17.2159V109.889H16.4205V108.475H15L15 107.488ZM15 110.408H18.6364V112.965H17.8409V111.395H17.2159V112.809H16.4205V111.395H15V110.408Z" fill="white"/>
<g clip-path="url(#clip0_1150_12078)">
<rect x="67.75" y="8.25" width="50.5" height="50.5" transform="rotate(90 67.75 8.25)" fill="#C1C1C1" stroke="black" stroke-width="0.5"/>
<rect x="51.75" y="23.25" width="19.5" height="19.5" transform="rotate(90 51.75 23.25)" fill="#3BB0D6" stroke="black" stroke-width="0.5"/>
</g>
<defs>
<clipPath id="clip0_1150_12078">
<rect width="62" height="83" fill="white" transform="matrix(0 1 -1 0 83 2)"/>
</clipPath>
</defs>
</svg>
