<svg width="253" height="123" viewBox="0 0 253 123" fill="none" xmlns="http://www.w3.org/2000/svg">
<rect x="212" y="123" width="212" height="123" transform="rotate(180 212 123)" fill="url(#paint0_linear_155_1001)"/>
<rect x="132" y="120" width="3" height="117" transform="rotate(180 132 120)" fill="#FFCE48"/>
<rect x="126" y="120" width="3" height="117" transform="rotate(180 126 120)" fill="#FFCE48"/>
<rect x="120" y="120" width="3" height="117" transform="rotate(180 120 120)" fill="#FFCE48"/>
<rect x="114" y="120" width="3" height="117" transform="rotate(180 114 120)" fill="#FFCE48"/>
<rect x="108" y="120" width="3" height="117" transform="rotate(180 108 120)" fill="#FFCE48"/>
<rect x="102" y="120" width="3" height="117" transform="rotate(180 102 120)" fill="#FFCE48"/>
<rect x="96" y="120" width="3" height="117" transform="rotate(180 96 120)" fill="#FFCE48"/>
<rect x="90" y="120" width="3" height="117" transform="rotate(180 90 120)" fill="#FFCE48"/>
<rect x="84" y="120" width="3" height="117" transform="rotate(180 84 120)" fill="#FFCE48"/>
<rect x="78" y="120" width="3" height="117" transform="rotate(180 78 120)" fill="#FFCE48"/>
<rect x="72" y="120" width="3" height="117" transform="rotate(180 72 120)" fill="#FFCE48"/>
<rect x="66" y="120" width="3" height="117" transform="rotate(180 66 120)" fill="#FFCE48"/>
<rect x="60" y="120" width="3" height="117" transform="rotate(180 60 120)" fill="#FFCE48"/>
<rect x="54" y="120" width="3" height="117" transform="rotate(180 54 120)" fill="#FFCE48"/>
<rect x="48" y="120" width="3" height="117" transform="rotate(180 48 120)" fill="#FFCE48"/>
<rect x="42" y="120" width="3" height="117" transform="rotate(180 42 120)" fill="#FFCE48"/>
<rect x="36" y="120" width="3" height="117" transform="rotate(180 36 120)" fill="#FFCE48"/>
<rect x="30" y="120" width="3" height="117" transform="rotate(180 30 120)" fill="#FFCE48"/>
<rect x="24" y="120" width="3" height="117" transform="rotate(180 24 120)" fill="#FFCE48"/>
<rect x="18" y="120" width="3" height="117" transform="rotate(180 18 120)" fill="#FFCE48"/>
<rect x="12" y="120" width="3" height="117" transform="rotate(180 12 120)" fill="#FFCE48"/>
<rect x="6" y="120" width="3" height="117" transform="rotate(180 6 120)" fill="#FFCE48"/>
<path fill-rule="evenodd" clip-rule="evenodd" d="M171.25 116L192.25 116C192.664 114.607 192.819 113.778 193 112.25C193 110.773 192.709 109.31 192.144 107.945C191.578 106.58 190.75 105.34 189.705 104.295C188.66 103.25 187.42 102.422 186.055 101.856C184.69 101.291 183.227 101 181.75 101C180.273 101 178.81 101.291 177.445 101.856C176.08 102.422 174.84 103.25 173.795 104.295C172.75 105.34 171.922 106.58 171.356 107.945C170.791 109.31 170.5 110.773 170.5 112.25C170.682 113.709 170.857 114.529 171.25 116Z" fill="#252525"/>
<rect x="208.948" y="52.0691" width="14.5" height="14.5" rx="3.75" transform="rotate(90 208.948 52.0691)" fill="#2E2E2E" stroke="black" stroke-width="0.5"/>
<rect x="208.846" y="36.0858" width="14.5" height="14.5" rx="3.75" transform="rotate(90 208.846 36.0858)" fill="#2E2E2E" stroke="black" stroke-width="0.5"/>
<rect x="149.75" y="61.25" width="14.5" height="14.5" rx="3.75" transform="rotate(90 149.75 61.25)" fill="#2E2E2E" stroke="black" stroke-width="0.5"/>
<rect x="149.648" y="45.2667" width="14.5" height="14.5" rx="3.75" transform="rotate(90 149.648 45.2667)" fill="#2E2E2E" stroke="black" stroke-width="0.5"/>
<rect x="251.051" y="56.2281" width="5.8" height="53.8" rx="1.9" transform="rotate(90 251.051 56.2281)" fill="url(#paint1_linear_155_1001)" stroke="black" stroke-width="0.2"/>
<rect x="208.797" y="68.25" width="14.5" height="14.5" rx="3.75" transform="rotate(90 208.797 68.25)" fill="#2E2E2E" stroke="black" stroke-width="0.5"/>
<rect x="250.9" y="72.409" width="5.8" height="53.8" rx="1.9" transform="rotate(90 250.9 72.409)" fill="url(#paint2_linear_155_1001)" stroke="black" stroke-width="0.2"/>
<rect x="251.971" y="40.2537" width="5.8" height="53.8" rx="1.9" transform="rotate(90 251.971 40.2537)" fill="url(#paint3_linear_155_1001)" stroke="black" stroke-width="0.2"/>
<circle cx="181.5" cy="20.5" r="14.25" transform="rotate(180 181.5 20.5)" fill="#B72F2F" stroke="black" stroke-width="0.5"/>
<g filter="url(#filter0_i_155_1001)">
<circle cx="181.5" cy="20.5" r="12.5" transform="rotate(180 181.5 20.5)" fill="url(#paint4_linear_155_1001)"/>
</g>
<rect x="138.25" y="48.25" width="8.5" height="8.5" rx="1.75" fill="white" stroke="black" stroke-width="0.5"/>
<rect x="138.25" y="64.25" width="8.5" height="8.5" rx="1.75" fill="white" stroke="black" stroke-width="0.5"/>
<rect x="158" y="44" width="8" height="38" fill="#EDDF5F"/>
<path d="M169.5 44C169.5 48.9706 166.971 51 162 51C157.029 51 155 48.9706 155 44C155 39.0294 157.029 36.5 162 36.5C166.971 36.5 169.5 39.0294 169.5 44Z" fill="#EDDF5F"/>
<path d="M169.5 80C169.5 84.9706 166.971 86.5 162 86.5C157.029 86.5 155 85.4706 155 80.5C155 75.5294 157.029 71 162 71C166.971 71 169.5 75.0294 169.5 80Z" fill="#EDDF5F"/>
<rect x="158" y="55" width="8" height="3" fill="#291C0F"/>
<rect x="155" y="42" width="14" height="3" fill="#714B27"/>
<path d="M155 78L169.344 78L169.5 81L155 81L155 78Z" fill="#DEFF11"/>
<rect x="158" y="68" width="8" height="3" fill="#FF7A00"/>
<rect x="160" y="34" width="4" height="3" fill="#D9D9D9"/>
<rect x="160" y="86" width="4" height="4" fill="#D9D9D9"/>
<path d="M182.88 55.3636L183.892 58.3253H183.933L184.945 55.3636H185.538L184.23 59H183.596L182.287 55.3636H182.88ZM188.903 56.5462H188.349C188.328 56.4278 188.288 56.3236 188.23 56.2337C188.172 56.1437 188.101 56.0674 188.017 56.0046C187.933 55.9419 187.839 55.8945 187.735 55.8626C187.632 55.8306 187.522 55.8146 187.406 55.8146C187.197 55.8146 187.009 55.8673 186.843 55.9727C186.679 56.078 186.549 56.2325 186.453 56.4361C186.358 56.6397 186.311 56.8883 186.311 57.1818C186.311 57.4777 186.358 57.7275 186.453 57.9311C186.549 58.1347 186.68 58.2886 186.845 58.3928C187.011 58.4969 187.197 58.549 187.405 58.549C187.519 58.549 187.628 58.5336 187.731 58.5028C187.835 58.4709 187.93 58.4241 188.014 58.3626C188.098 58.301 188.169 58.2259 188.227 58.1371C188.286 58.0471 188.327 57.9441 188.349 57.8281L188.903 57.8299C188.874 58.0086 188.816 58.1732 188.731 58.3235C188.647 58.4727 188.539 58.6017 188.406 58.7106C188.275 58.8183 188.124 58.9018 187.955 58.9609C187.786 59.0201 187.601 59.0497 187.401 59.0497C187.086 59.0497 186.806 58.9751 186.559 58.826C186.313 58.6757 186.119 58.4608 185.977 58.1815C185.836 57.9021 185.766 57.5689 185.766 57.1818C185.766 56.7936 185.837 56.4603 185.979 56.1822C186.121 55.9028 186.315 55.6886 186.561 55.5394C186.807 55.3891 187.087 55.3139 187.401 55.3139C187.594 55.3139 187.774 55.3417 187.941 55.3974C188.109 55.4518 188.26 55.5323 188.394 55.6388C188.527 55.7442 188.638 55.8732 188.726 56.0259C188.813 56.1774 188.872 56.3509 188.903 56.5462ZM192.58 56.5462H192.026C192.005 56.4278 191.965 56.3236 191.907 56.2337C191.849 56.1437 191.778 56.0674 191.694 56.0046C191.61 55.9419 191.516 55.8945 191.412 55.8626C191.309 55.8306 191.199 55.8146 191.083 55.8146C190.874 55.8146 190.686 55.8673 190.52 55.9727C190.356 56.078 190.225 56.2325 190.13 56.4361C190.035 56.6397 189.988 56.8883 189.988 57.1818C189.988 57.4777 190.035 57.7275 190.13 57.9311C190.225 58.1347 190.356 58.2886 190.522 58.3928C190.688 58.4969 190.874 58.549 191.081 58.549C191.196 58.549 191.305 58.5336 191.408 58.5028C191.512 58.4709 191.606 58.4241 191.69 58.3626C191.774 58.301 191.845 58.2259 191.903 58.1371C191.963 58.0471 192.003 57.9441 192.026 57.8281L192.58 57.8299C192.55 58.0086 192.493 58.1732 192.408 58.3235C192.324 58.4727 192.215 58.6017 192.083 58.7106C191.951 58.8183 191.801 58.9018 191.632 58.9609C191.462 59.0201 191.278 59.0497 191.078 59.0497C190.763 59.0497 190.482 58.9751 190.236 58.826C189.99 58.6757 189.796 58.4608 189.654 58.1815C189.513 57.9021 189.442 57.5689 189.442 57.1818C189.442 56.7936 189.513 56.4603 189.656 56.1822C189.798 55.9028 189.992 55.6886 190.238 55.5394C190.484 55.3891 190.764 55.3139 191.078 55.3139C191.271 55.3139 191.451 55.3417 191.618 55.3974C191.786 55.4518 191.937 55.5323 192.07 55.6388C192.204 55.7442 192.315 55.8732 192.402 56.0259C192.49 56.1774 192.549 56.3509 192.58 56.5462ZM184.457 63.4908C184.457 63.0457 184.515 62.6361 184.632 62.2621C184.75 61.888 184.921 61.543 185.146 61.2269H185.632C185.545 61.3441 185.463 61.4879 185.387 61.6584C185.311 61.8288 185.245 62.0159 185.188 62.2195C185.131 62.4219 185.087 62.632 185.055 62.8498C185.023 63.0664 185.007 63.2801 185.007 63.4908C185.007 63.7725 185.035 64.0578 185.091 64.3466C185.146 64.6354 185.221 64.9035 185.316 65.1509C185.411 65.3983 185.516 65.6001 185.632 65.7564H185.146C184.921 65.4403 184.75 65.0953 184.632 64.7212C184.515 64.3472 184.457 63.937 184.457 63.4908ZM187.261 64.7692V62.3686H187.738V64.7692H187.261ZM186.3 63.8068V63.3292H188.701V63.8068H186.3ZM190.543 63.4908C190.543 63.937 190.484 64.3472 190.367 64.7212C190.25 65.0953 190.079 65.4403 189.854 65.7564H189.367C189.455 65.6392 189.537 65.4954 189.612 65.3249C189.688 65.1545 189.755 64.968 189.811 64.7656C189.868 64.562 189.913 64.3513 189.945 64.1335C189.976 63.9157 189.992 63.7015 189.992 63.4908C189.992 63.2102 189.965 62.9255 189.909 62.6367C189.853 62.3479 189.778 62.0798 189.684 61.8324C189.589 61.585 189.483 61.3832 189.367 61.2269H189.854C190.079 61.543 190.25 61.888 190.367 62.2621C190.484 62.6361 190.543 63.0457 190.543 63.4908Z" fill="white"/>
<path d="M185.316 40.5124C185.282 40.4047 185.236 40.3082 185.178 40.223C185.121 40.1366 185.053 40.0632 184.973 40.0028C184.894 39.9413 184.803 39.8945 184.702 39.8626C184.601 39.8306 184.49 39.8146 184.37 39.8146C184.165 39.8146 183.98 39.8673 183.816 39.9727C183.651 40.078 183.521 40.2325 183.425 40.4361C183.33 40.6385 183.283 40.8865 183.283 41.18C183.283 41.4748 183.331 41.724 183.427 41.9276C183.523 42.1312 183.654 42.2856 183.821 42.391C183.988 42.4963 184.178 42.549 184.391 42.549C184.589 42.549 184.761 42.5088 184.908 42.4283C185.056 42.3478 185.17 42.2341 185.25 42.0874C185.332 41.9394 185.373 41.7654 185.373 41.5653L185.515 41.592H184.474V41.1392H185.904V41.5529C185.904 41.8583 185.839 42.1235 185.708 42.3484C185.579 42.5721 185.401 42.7449 185.172 42.8668C184.945 42.9888 184.684 43.0497 184.391 43.0497C184.062 43.0497 183.773 42.974 183.524 42.8224C183.277 42.6709 183.084 42.4561 182.946 42.1779C182.807 41.8986 182.738 41.5671 182.738 41.1836C182.738 40.8936 182.778 40.6332 182.859 40.4023C182.939 40.1715 183.052 39.9756 183.198 39.8146C183.345 39.6525 183.517 39.5288 183.714 39.4435C183.913 39.3571 184.131 39.3139 184.366 39.3139C184.563 39.3139 184.745 39.3429 184.915 39.4009C185.085 39.4589 185.237 39.5412 185.369 39.6477C185.503 39.7543 185.614 39.8809 185.701 40.0277C185.789 40.1733 185.848 40.3349 185.879 40.5124H185.316ZM189.535 39.3636V43H189.031L187.183 40.3331H187.149V43H186.6V39.3636H187.108L188.958 42.0341H188.992V39.3636H189.535ZM191.513 43H190.336V39.3636H191.55C191.906 39.3636 192.212 39.4364 192.468 39.582C192.724 39.7264 192.92 39.9342 193.056 40.2053C193.193 40.4751 193.262 40.7989 193.262 41.1765C193.262 41.5553 193.192 41.8808 193.054 42.1531C192.917 42.4253 192.718 42.6348 192.457 42.7816C192.197 42.9272 191.882 43 191.513 43ZM190.884 42.5206H191.483C191.76 42.5206 191.99 42.4685 192.173 42.3643C192.357 42.259 192.494 42.1069 192.585 41.908C192.676 41.708 192.722 41.4641 192.722 41.1765C192.722 40.8912 192.676 40.6491 192.585 40.4503C192.495 40.2514 192.361 40.1005 192.182 39.9975C192.003 39.8945 191.781 39.843 191.516 39.843H190.884V42.5206ZM185.464 47.4908C185.464 47.0457 185.523 46.6361 185.64 46.2621C185.757 45.888 185.929 45.543 186.153 45.2269H186.64C186.552 45.3441 186.471 45.4879 186.395 45.6584C186.319 45.8288 186.253 46.0159 186.196 46.2195C186.139 46.4219 186.095 46.632 186.063 46.8498C186.031 47.0664 186.015 47.2801 186.015 47.4908C186.015 47.7725 186.043 48.0578 186.098 48.3466C186.154 48.6354 186.229 48.9035 186.324 49.1509C186.419 49.3983 186.524 49.6001 186.64 49.7564H186.153C185.929 49.4403 185.757 49.0953 185.64 48.7212C185.523 48.3472 185.464 47.937 185.464 47.4908ZM188.807 47.2333V47.6932H187.194V47.2333H188.807ZM190.535 47.4908C190.535 47.937 190.476 48.3472 190.359 48.7212C190.242 49.0953 190.071 49.4403 189.846 49.7564H189.36C189.447 49.6392 189.529 49.4954 189.605 49.3249C189.68 49.1545 189.747 48.968 189.804 48.7656C189.86 48.562 189.905 48.3513 189.937 48.1335C189.969 47.9157 189.985 47.7015 189.985 47.4908C189.985 47.2102 189.957 46.9255 189.901 46.6367C189.846 46.3479 189.77 46.0798 189.676 45.8324C189.581 45.585 189.476 45.3832 189.36 45.2269H189.846C190.071 45.543 190.242 45.888 190.359 46.2621C190.476 46.6361 190.535 47.0457 190.535 47.4908Z" fill="white"/>
<path d="M188.038 75.1818C188.038 75.5701 187.967 75.9039 187.825 76.1832C187.683 76.4614 187.488 76.6757 187.241 76.826C186.994 76.9751 186.714 77.0497 186.401 77.0497C186.086 77.0497 185.805 76.9751 185.557 76.826C185.311 76.6757 185.117 76.4608 184.975 76.1815C184.833 75.9021 184.762 75.5689 184.762 75.1818C184.762 74.7936 184.833 74.4603 184.975 74.1822C185.117 73.9028 185.311 73.6886 185.557 73.5394C185.805 73.3891 186.086 73.3139 186.401 73.3139C186.714 73.3139 186.994 73.3891 187.241 73.5394C187.488 73.6886 187.683 73.9028 187.825 74.1822C187.967 74.4603 188.038 74.7936 188.038 75.1818ZM187.494 75.1818C187.494 74.8859 187.446 74.6367 187.351 74.4343C187.256 74.2307 187.126 74.0768 186.96 73.9727C186.795 73.8673 186.609 73.8146 186.401 73.8146C186.191 73.8146 186.004 73.8673 185.84 73.9727C185.675 74.0768 185.545 74.2307 185.449 74.4343C185.354 74.6367 185.307 74.8859 185.307 75.1818C185.307 75.4777 185.354 75.7275 185.449 75.9311C185.545 76.1335 185.675 76.2874 185.84 76.3928C186.004 76.4969 186.191 76.549 186.401 76.549C186.609 76.549 186.795 76.4969 186.96 76.3928C187.126 76.2874 187.256 76.1335 187.351 75.9311C187.446 75.7275 187.494 75.4777 187.494 75.1818ZM188.722 77V73.3636H190.018C190.301 73.3636 190.535 73.4151 190.721 73.5181C190.907 73.6211 191.046 73.762 191.138 73.9407C191.231 74.1183 191.277 74.3183 191.277 74.5408C191.277 74.7646 191.23 74.9658 191.137 75.1445C191.044 75.3221 190.905 75.4629 190.718 75.5671C190.532 75.6701 190.298 75.7216 190.016 75.7216H189.125V75.2564H189.966C190.145 75.2564 190.29 75.2256 190.401 75.1641C190.513 75.1013 190.594 75.0161 190.646 74.9084C190.699 74.8007 190.725 74.6781 190.725 74.5408C190.725 74.4035 190.699 74.2816 190.646 74.1751C190.594 74.0685 190.512 73.9851 190.4 73.9247C190.288 73.8643 190.142 73.8342 189.959 73.8342H189.27V77H188.722ZM185.464 81.4908C185.464 81.0457 185.523 80.6361 185.64 80.2621C185.757 79.888 185.929 79.543 186.153 79.2269H186.64C186.552 79.3441 186.471 79.4879 186.395 79.6584C186.319 79.8288 186.253 80.0159 186.196 80.2195C186.139 80.4219 186.095 80.632 186.063 80.8498C186.031 81.0664 186.015 81.2801 186.015 81.4908C186.015 81.7725 186.043 82.0578 186.098 82.3466C186.154 82.6354 186.229 82.9035 186.324 83.1509C186.419 83.3983 186.524 83.6001 186.64 83.7564H186.153C185.929 83.4403 185.757 83.0953 185.64 82.7212C185.523 82.3472 185.464 81.937 185.464 81.4908ZM188.807 81.2333V81.6932H187.194V81.2333H188.807ZM190.535 81.4908C190.535 81.937 190.476 82.3472 190.359 82.7212C190.242 83.0953 190.071 83.4403 189.846 83.7564H189.36C189.447 83.6392 189.529 83.4954 189.605 83.3249C189.68 83.1545 189.747 82.968 189.804 82.7656C189.86 82.562 189.905 82.3513 189.937 82.1335C189.969 81.9157 189.985 81.7015 189.985 81.4908C189.985 81.2102 189.957 80.9255 189.901 80.6367C189.846 80.3479 189.77 80.0798 189.676 79.8324C189.581 79.585 189.476 79.3832 189.36 79.2269H189.846C190.071 79.543 190.242 79.888 190.359 80.2621C190.476 80.6361 190.535 81.0457 190.535 81.4908Z" fill="white"/>
<path d="M202 7.75817L206.364 7.75817L206.364 9.47976C206.364 9.81072 206.3 10.0927 206.174 10.3256C206.049 10.5586 205.875 10.7362 205.652 10.8583C205.43 10.9819 205.175 11.0437 204.885 11.0437C204.595 11.0437 204.339 10.9812 204.118 10.8562C203.896 10.7312 203.724 10.5501 203.6 10.3129C203.477 10.0771 203.415 9.79155 203.415 9.45632L203.415 8.35902L204.154 8.35902L204.154 9.30717C204.154 9.48473 204.185 9.63104 204.246 9.74609C204.308 9.86257 204.394 9.94922 204.504 10.006C204.614 10.0643 204.741 10.0934 204.885 10.0934C205.03 10.0934 205.156 10.0643 205.264 10.006C205.374 9.94922 205.458 9.86257 205.518 9.74609C205.579 9.62962 205.609 9.48189 205.609 9.30291L205.609 8.68075L202 8.68075L202 7.75817ZM204.182 15.6529C203.706 15.6529 203.301 15.5627 202.967 15.3823C202.634 15.2033 202.379 14.959 202.202 14.6493C202.028 14.3411 201.94 13.9945 201.94 13.6096C201.94 13.2218 202.028 12.8738 202.205 12.5655C202.381 12.2573 202.636 12.0137 202.969 11.8347C203.303 11.6557 203.707 11.5662 204.182 11.5662C204.658 11.5662 205.063 11.6557 205.396 11.8347C205.73 12.0137 205.984 12.2573 206.159 12.5655C206.335 12.8738 206.423 13.2218 206.423 13.6096C206.423 13.9945 206.335 14.3411 206.159 14.6493C205.984 14.959 205.73 15.2033 205.396 15.3823C205.063 15.5627 204.658 15.6529 204.182 15.6529ZM204.182 14.7175C204.49 14.7175 204.75 14.6713 204.962 14.579C205.173 14.4881 205.334 14.3596 205.443 14.1934C205.553 14.0272 205.607 13.8326 205.607 13.6096C205.607 13.3865 205.553 13.1919 205.443 13.0257C205.334 12.8596 205.173 12.7303 204.962 12.638C204.75 12.5471 204.49 12.5016 204.182 12.5016C203.874 12.5016 203.614 12.5471 203.402 12.638C203.19 12.7303 203.03 12.8596 202.92 13.0257C202.811 13.1919 202.756 13.3865 202.756 13.6096C202.756 13.8326 202.811 14.0272 202.92 14.1934C203.03 14.3596 203.19 14.4881 203.402 14.579C203.614 14.6713 203.874 14.7175 204.182 14.7175ZM202 17.1545L206.364 15.9059L206.364 16.9137L203.332 17.636L203.332 17.6722L206.364 18.4691L206.364 19.332L203.325 20.1268L203.325 20.1651L206.364 20.8874L206.364 21.8952L202 20.6467L202 19.7475L204.853 18.9165L204.853 18.8825L202 18.0536L202 17.1545ZM202 22.389L206.364 22.389L206.364 25.3294L205.603 25.3294L205.603 23.3116L204.563 23.3116L204.563 25.1781L203.803 25.1781L203.803 23.3116L202.761 23.3116L202.761 25.3379L202 25.3379L202 22.389ZM202 26.0629L206.364 26.0629L206.364 27.7844C206.364 28.114 206.305 28.3952 206.187 28.6282C206.07 28.8626 205.905 29.0408 205.69 29.163C205.477 29.2866 205.227 29.3484 204.938 29.3484C204.648 29.3484 204.399 29.2859 204.19 29.1609C203.983 29.0359 203.824 28.8548 203.713 28.6175C203.602 28.3817 203.547 28.0962 203.547 27.761L203.547 26.6083L204.288 26.6083L204.288 27.6119C204.288 27.788 204.313 27.9343 204.361 28.0508C204.409 28.1673 204.482 28.2539 204.578 28.3107C204.675 28.369 204.795 28.3981 204.938 28.3981C205.083 28.3981 205.205 28.369 205.305 28.3107C205.404 28.2539 205.479 28.1665 205.531 28.0487C205.583 27.9322 205.609 27.7852 205.609 27.6076L205.609 26.9854L202 26.9854L202 26.0629ZM203.986 28.4194L202 29.5039L202 28.4854L203.986 27.4244L203.986 28.4194Z" fill="white"/>
<path d="M141 3.63512L145.364 3.63512L145.364 5.35671C145.364 5.68626 145.305 5.96751 145.187 6.20046C145.07 6.43484 144.905 6.6131 144.69 6.73526C144.477 6.85884 144.227 6.92063 143.938 6.92063C143.648 6.92063 143.399 6.85813 143.19 6.73313C142.983 6.60813 142.824 6.42702 142.713 6.18981C142.602 5.95401 142.547 5.6685 142.547 5.33327L142.547 4.18058L143.288 4.18058L143.288 5.18413C143.288 5.36026 143.313 5.50657 143.361 5.62305C143.409 5.73952 143.482 5.82617 143.578 5.88299C143.675 5.94123 143.795 5.97035 143.938 5.97035C144.083 5.97035 144.205 5.94123 144.305 5.88299C144.404 5.82617 144.479 5.73881 144.531 5.62092C144.583 5.50444 144.609 5.35742 144.609 5.17987L144.609 4.55771L141 4.55771L141 3.63512ZM142.986 5.99166L141 7.07617L141 6.05771L142.986 4.99663L142.986 5.99166ZM141 8.32475L141 7.33612L145.364 8.84251L145.364 10.0314L141 11.5357L141 10.5471L144.366 9.45401L144.366 9.41992L141 8.32475ZM142.715 8.26296L142.715 10.5982L141.995 10.5982L141.995 8.26296L142.715 8.26296ZM145.364 12.9835L141 12.9835L141 12.0609L145.364 12.0609L145.364 12.9835ZM145.364 17.3924L141 17.3924L141 16.5955L143.746 14.6971L143.746 14.6651L141 14.6651L141 13.7425L145.364 13.7425L145.364 14.5522L142.619 16.4357L142.619 16.4741L145.364 16.4741L145.364 17.3924ZM144.109 21.9105C144.281 21.8935 144.414 21.8203 144.509 21.6911C144.604 21.5618 144.652 21.3864 144.652 21.1648C144.652 21.0142 144.631 20.8871 144.588 20.7834C144.547 20.6797 144.489 20.6001 144.415 20.5447C144.342 20.4908 144.258 20.4638 144.164 20.4638C144.086 20.4609 144.018 20.4773 143.96 20.5128C143.901 20.5497 143.851 20.6001 143.808 20.6641C143.767 20.728 143.731 20.8018 143.7 20.8857C143.67 20.9695 143.644 21.0589 143.623 21.1541L143.529 21.5462C143.487 21.7365 143.43 21.9112 143.359 22.0703C143.288 22.2294 143.2 22.3672 143.097 22.4837C142.993 22.6001 142.871 22.6903 142.73 22.7543C142.589 22.8196 142.428 22.853 142.246 22.8544C141.979 22.853 141.748 22.7848 141.552 22.6499C141.357 22.5163 141.206 22.3232 141.098 22.0703C140.991 21.8189 140.938 21.5156 140.938 21.1605C140.938 20.8082 140.992 20.5014 141.1 20.2401C141.208 19.9801 141.368 19.777 141.58 19.6307C141.793 19.4858 142.056 19.4098 142.37 19.4027L142.37 20.2955C142.224 20.3054 142.102 20.3473 142.004 20.4212C141.907 20.4964 141.834 20.5966 141.784 20.7216C141.736 20.848 141.712 20.9908 141.712 21.1499C141.712 21.3061 141.734 21.4418 141.78 21.5568C141.825 21.6733 141.888 21.7635 141.969 21.8274C142.05 21.8913 142.143 21.9233 142.249 21.9233C142.347 21.9233 142.429 21.8942 142.496 21.8359C142.563 21.7791 142.619 21.6953 142.666 21.5845C142.713 21.4751 142.756 21.3409 142.794 21.1818L142.913 20.7067C143.003 20.3388 143.143 20.0483 143.333 19.8352C143.523 19.6222 143.78 19.5163 144.102 19.5178C144.366 19.5163 144.597 19.5866 144.795 19.7287C144.992 19.8722 145.146 20.0689 145.257 20.3189C145.368 20.5689 145.423 20.853 145.423 21.1712C145.423 21.495 145.368 21.7777 145.257 22.0192C145.146 22.2621 144.992 22.451 144.795 22.5859C144.597 22.7209 144.369 22.7905 144.109 22.7947L144.109 21.9105ZM141 23.475L145.364 23.475L145.364 26.4153L144.603 26.4153L144.603 24.3975L143.563 24.3976L143.563 26.264L142.803 26.264L142.803 24.3976L141.761 24.3976L141.761 26.4238L141 26.4238L141 23.475ZM145.364 30.7987L141 30.7987L141 30.0018L143.746 28.1033L143.746 28.0714L141 28.0714L141 27.1488L145.364 27.1488L145.364 27.9585L142.619 29.842L142.619 29.8803L145.364 29.8803L145.364 30.7987ZM144.109 33.9281C144.281 33.911 144.414 33.8379 144.509 33.7086C144.604 33.5794 144.652 33.4039 144.652 33.1824C144.652 33.0318 144.631 32.9047 144.588 32.801C144.547 32.6973 144.489 32.6177 144.415 32.5623C144.342 32.5083 144.258 32.4814 144.164 32.4814C144.086 32.4785 144.018 32.4949 143.96 32.5304C143.901 32.5673 143.851 32.6177 143.808 32.6816C143.767 32.7456 143.731 32.8194 143.7 32.9032C143.67 32.987 143.644 33.0765 143.623 33.1717L143.529 33.5637C143.487 33.7541 143.43 33.9288 143.359 34.0879C143.288 34.247 143.2 34.3848 143.097 34.5012C142.993 34.6177 142.871 34.7079 142.73 34.7718C142.589 34.8372 142.428 34.8706 142.246 34.872C141.979 34.8706 141.748 34.8024 141.552 34.6674C141.357 34.5339 141.206 34.3407 141.098 34.0879C140.991 33.8365 140.938 33.5332 140.938 33.1781C140.938 32.8258 140.992 32.519 141.1 32.2576C141.208 31.9977 141.368 31.7946 141.58 31.6483C141.793 31.5034 142.056 31.4274 142.37 31.4203L142.37 32.313C142.224 32.323 142.102 32.3649 142.004 32.4387C141.907 32.514 141.834 32.6142 141.784 32.7392C141.736 32.8656 141.712 33.0083 141.712 33.1674C141.712 33.3237 141.734 33.4593 141.78 33.5744C141.825 33.6909 141.888 33.7811 141.969 33.845C142.05 33.9089 142.143 33.9409 142.249 33.9409C142.347 33.9409 142.429 33.9118 142.496 33.8535C142.563 33.7967 142.619 33.7129 142.666 33.6021C142.713 33.4927 142.756 33.3585 142.794 33.1994L142.913 32.7243C143.003 32.3564 143.143 32.0659 143.333 31.8528C143.523 31.6397 143.78 31.5339 144.102 31.5353C144.366 31.5339 144.597 31.6042 144.795 31.7463C144.992 31.8897 145.146 32.0865 145.257 32.3365C145.368 32.5865 145.423 32.8706 145.423 33.1887C145.423 33.5126 145.368 33.7953 145.257 34.0368C145.146 34.2797 144.992 34.4686 144.795 34.6035C144.597 34.7385 144.369 34.8081 144.109 34.8123L144.109 33.9281ZM143.182 39.5025C142.706 39.5025 142.301 39.4123 141.967 39.2319C141.634 39.0529 141.379 38.8086 141.202 38.4989C141.028 38.1907 140.94 37.8441 140.94 37.4592C140.94 37.0714 141.028 36.7234 141.205 36.4151C141.381 36.1069 141.636 35.8633 141.969 35.6843C142.303 35.5053 142.707 35.4158 143.182 35.4158C143.658 35.4158 144.063 35.5053 144.396 35.6843C144.73 35.8633 144.984 36.1069 145.159 36.4151C145.335 36.7234 145.423 37.0714 145.423 37.4592C145.423 37.8441 145.335 38.1907 145.159 38.4989C144.984 38.8086 144.73 39.0529 144.396 39.2319C144.063 39.4123 143.658 39.5025 143.182 39.5025ZM143.182 38.5671C143.49 38.5671 143.75 38.521 143.962 38.4286C144.173 38.3377 144.334 38.2092 144.443 38.043C144.553 37.8768 144.607 37.6822 144.607 37.4592C144.607 37.2362 144.553 37.0415 144.443 36.8754C144.334 36.7092 144.173 36.5799 143.962 36.4876C143.75 36.3967 143.49 36.3512 143.182 36.3512C142.874 36.3512 142.614 36.3967 142.402 36.4876C142.19 36.5799 142.03 36.7092 141.92 36.8754C141.811 37.0415 141.756 37.2362 141.756 37.4592C141.756 37.6822 141.811 37.8768 141.92 38.043C142.03 38.2092 142.19 38.3377 142.402 38.4286C142.614 38.521 142.874 38.5671 143.182 38.5671ZM141 40.1859L145.364 40.1859L145.364 41.9075C145.364 42.237 145.305 42.5183 145.187 42.7512C145.07 42.9856 144.905 43.1639 144.69 43.286C144.477 43.4096 144.227 43.4714 143.938 43.4714C143.648 43.4714 143.399 43.4089 143.19 43.2839C142.983 43.1589 142.824 42.9778 142.713 42.7406C142.602 42.5048 142.547 42.2193 142.547 41.8841L142.547 40.7314L143.288 40.7314L143.288 41.7349C143.288 41.911 143.313 42.0574 143.361 42.1738C143.409 42.2903 143.482 42.377 143.578 42.4338C143.675 42.492 143.795 42.5211 143.938 42.5211C144.083 42.5211 144.205 42.492 144.305 42.4338C144.404 42.377 144.479 42.2896 144.531 42.1717C144.583 42.0552 144.609 41.9082 144.609 41.7306L144.609 41.1085L141 41.1085L141 40.1859ZM142.986 42.5424L141 43.627L141 42.6085L142.986 41.5474L142.986 42.5424Z" fill="white"/>
<defs>
<filter id="filter0_i_155_1001" x="169" y="8" width="25" height="29" filterUnits="userSpaceOnUse" color-interpolation-filters="sRGB">
<feFlood flood-opacity="0" result="BackgroundImageFix"/>
<feBlend mode="normal" in="SourceGraphic" in2="BackgroundImageFix" result="shape"/>
<feColorMatrix in="SourceAlpha" type="matrix" values="0 0 0 0 0 0 0 0 0 0 0 0 0 0 0 0 0 0 127 0" result="hardAlpha"/>
<feOffset dy="4"/>
<feGaussianBlur stdDeviation="2"/>
<feComposite in2="hardAlpha" operator="arithmetic" k2="-1" k3="1"/>
<feColorMatrix type="matrix" values="0 0 0 0 0 0 0 0 0 0 0 0 0 0 0 0 0 0 0.25 0"/>
<feBlend mode="normal" in2="shape" result="effect1_innerShadow_155_1001"/>
</filter>
<linearGradient id="paint0_linear_155_1001" x1="279.544" y1="113.5" x2="319.006" y2="245.7" gradientUnits="userSpaceOnUse">
<stop stop-color="#1ACF21"/>
<stop offset="1" stop-color="#0D6911"/>
</linearGradient>
<linearGradient id="paint1_linear_155_1001" x1="262.151" y1="81.128" x2="240.651" y2="98.128" gradientUnits="userSpaceOnUse">
<stop stop-color="#C8C8C8"/>
<stop offset="0.46" stop-color="white"/>
<stop offset="1" stop-color="#626262"/>
</linearGradient>
<linearGradient id="paint2_linear_155_1001" x1="262" y1="97.309" x2="240.5" y2="114.309" gradientUnits="userSpaceOnUse">
<stop stop-color="#C8C8C8"/>
<stop offset="0.46" stop-color="white"/>
<stop offset="1" stop-color="#626262"/>
</linearGradient>
<linearGradient id="paint3_linear_155_1001" x1="263.071" y1="65.1537" x2="241.571" y2="82.1537" gradientUnits="userSpaceOnUse">
<stop stop-color="#C8C8C8"/>
<stop offset="0.46" stop-color="white"/>
<stop offset="1" stop-color="#626262"/>
</linearGradient>
<linearGradient id="paint4_linear_155_1001" x1="181.5" y1="8" x2="181.5" y2="33" gradientUnits="userSpaceOnUse">
<stop offset="0.362063" stop-color="#FF0C0C"/>
<stop offset="0.939224" stop-color="white" stop-opacity="0.83"/>
</linearGradient>
</defs>
</svg>
