<svg width="1340" height="829" viewBox="0 0 1340 829" fill="none" xmlns="http://www.w3.org/2000/svg">
<path d="M63.6796 466.265L63.6796 362.985C63.6796 347.236 76.4468 334.469 92.1973 334.467L549.337 334.467V494.783L92.1973 494.783C76.4468 494.781 63.6796 482.014 63.6796 466.265Z" fill="#333E48"/>
<path d="M549.343 494.772V334.458H517.093V494.772H549.343Z" fill="#29323A"/>
<path d="M674.234 540.799L674.234 288.448L549.339 334.466L549.339 494.781L674.234 540.799Z" fill="#333E48"/>
<path d="M185.295 494.776V334.462H125.178V494.776H185.295Z" fill="#546975"/>
<path d="M674.234 540.799L674.234 288.448L694.851 288.448C704.871 288.448 712.995 296.572 712.995 306.592L712.995 522.651C712.995 532.672 704.871 540.795 694.851 540.795L674.234 540.799Z" fill="#7D868C"/>
<path d="M306.822 414.624C306.822 400.892 317.955 389.759 331.686 389.759H402.937C416.668 389.759 427.801 400.892 427.801 414.624C427.801 428.355 416.668 439.488 402.937 439.488L331.686 439.488C317.955 439.488 306.822 428.355 306.822 414.624Z" fill="#546975"/>
<path d="M356.923 417.683L356.923 411.564C356.923 401.931 364.732 394.121 374.365 394.121C383.998 394.121 391.807 401.93 391.807 411.564L391.807 417.683C391.807 427.316 383.998 435.125 374.365 435.125C364.73 435.123 356.923 427.316 356.923 417.683Z" fill="#FFD255"/>
<path d="M368.549 418.753L368.549 410.49C368.549 407.278 371.151 404.676 374.363 404.676C377.576 404.676 380.177 407.278 380.177 410.49L380.177 418.753C380.177 421.965 377.576 424.567 374.363 424.567C371.153 424.569 368.549 421.966 368.549 418.753Z" fill="white"/>
<path d="M712 523.117V302.937L1340 100V714L712 523.117Z" fill="url(#paint0_linear_129_975)"/>
<defs>
<linearGradient id="paint0_linear_129_975" x1="1341.3" y1="397.264" x2="712" y2="397.264" gradientUnits="userSpaceOnUse">
<stop stop-color="white" stop-opacity="0"/>
<stop offset="1" stop-color="#90ECF9"/>
</linearGradient>
</defs>
</svg>
