<svg width="158" height="99" viewBox="0 0 158 99" fill="none" xmlns="http://www.w3.org/2000/svg">
<rect x="115.25" y="0.75" width="97.5" height="114.5" transform="rotate(90 115.25 0.75)" fill="url(#paint0_linear_159_968)" stroke="black" stroke-width="0.5"/>
<path d="M51 94.4C25.9138 94.4 5.6 74.5091 5.6 50C5.6 25.4909 25.9138 5.6 51 5.6C76.0862 5.6 96.4 25.4909 96.4 50C96.4 74.5091 76.0862 94.4 51 94.4Z" stroke="white" stroke-width="1.2"/>
<path d="M53.2898 28.0874H54.2273V34.6328H53.2898V31.8885H45.5V30.8317H53.2898V28.0874ZM49.8636 43.2642C48.9432 43.2642 48.1477 43.098 47.4773 42.7656C46.8068 42.4332 46.2898 41.9773 45.9261 41.3977C45.5625 40.8182 45.3807 40.1563 45.3807 39.4119C45.3807 38.6676 45.5625 38.0057 45.9261 37.4261C46.2898 36.8466 46.8068 36.3906 47.4773 36.0582C48.1477 35.7259 48.9432 35.5597 49.8636 35.5597C50.7841 35.5597 51.5795 35.7259 52.25 36.0582C52.9205 36.3906 53.4375 36.8466 53.8011 37.4261C54.1648 38.0057 54.3466 38.6676 54.3466 39.4119C54.3466 40.1563 54.1648 40.8182 53.8011 41.3977C53.4375 41.9773 52.9205 42.4332 52.25 42.7656C51.5795 43.098 50.7841 43.2642 49.8636 43.2642ZM49.8636 42.2415C50.6193 42.2415 51.2571 42.1151 51.777 41.8622C52.2969 41.6122 52.6903 41.2727 52.9574 40.8438C53.2244 40.4176 53.358 39.9403 53.358 39.4119C53.358 38.8835 53.2244 38.4048 52.9574 37.9759C52.6903 37.5497 52.2969 37.2102 51.777 36.9574C51.2571 36.7074 50.6193 36.5824 49.8636 36.5824C49.108 36.5824 48.4702 36.7074 47.9503 36.9574C47.4304 37.2102 47.0369 37.5497 46.7699 37.9759C46.5028 38.4048 46.3693 38.8835 46.3693 39.4119C46.3693 39.9403 46.5028 40.4176 46.7699 40.8438C47.0369 41.2727 47.4304 41.6122 47.9503 41.8622C48.4702 42.1151 49.108 42.2415 49.8636 42.2415ZM54.2273 50.7685V51.8253H48.4489C47.8523 51.8253 47.3196 51.6847 46.8509 51.4034C46.3849 51.125 46.017 50.7315 45.7472 50.223C45.4801 49.7145 45.3466 49.1179 45.3466 48.4332C45.3466 47.7486 45.4801 47.152 45.7472 46.6435C46.017 46.1349 46.3849 45.7401 46.8509 45.4588C47.3196 45.1804 47.8523 45.0412 48.4489 45.0412H54.2273V46.098H48.5341C48.108 46.098 47.7287 46.1918 47.3963 46.3793C47.0668 46.5668 46.8068 46.8338 46.6165 47.1804C46.429 47.5298 46.3352 47.9474 46.3352 48.4332C46.3352 48.919 46.429 49.3366 46.6165 49.6861C46.8068 50.0355 47.0668 50.3026 47.3963 50.4872C47.7287 50.6747 48.108 50.7685 48.5341 50.7685H54.2273ZM51.5 60.9585V59.9016C51.804 59.8391 52.071 59.7298 52.3011 59.5735C52.5312 59.4201 52.7244 59.2326 52.8807 59.011C53.0398 58.7923 53.1591 58.5494 53.2386 58.2823C53.3182 58.0153 53.358 57.7369 53.358 57.4471C53.358 56.9187 53.2244 56.44 52.9574 56.011C52.6903 55.5849 52.2969 55.2454 51.777 54.9925C51.2571 54.7425 50.6193 54.6175 49.8636 54.6175C49.108 54.6175 48.4702 54.7425 47.9503 54.9925C47.4304 55.2454 47.0369 55.5849 46.7699 56.011C46.5028 56.44 46.3693 56.9187 46.3693 57.4471C46.3693 57.7369 46.4091 58.0153 46.4886 58.2823C46.5682 58.5494 46.6861 58.7923 46.8423 59.011C47.0014 59.2326 47.196 59.4201 47.4261 59.5735C47.6591 59.7298 47.9261 59.8391 48.2273 59.9016V60.9585C47.7813 60.8789 47.3821 60.734 47.0298 60.5238C46.6776 60.3136 46.3778 60.0522 46.1307 59.7397C45.8864 59.4272 45.7003 59.0763 45.5724 58.6871C45.4446 58.3008 45.3807 57.8874 45.3807 57.4471C45.3807 56.7028 45.5625 56.0408 45.9261 55.4613C46.2898 54.8817 46.8068 54.4258 47.4773 54.0934C48.1477 53.761 48.9432 53.5948 49.8636 53.5948C50.7841 53.5948 51.5795 53.761 52.25 54.0934C52.9205 54.4258 53.4375 54.8817 53.8011 55.4613C54.1648 56.0408 54.3466 56.7028 54.3466 57.4471C54.3466 57.8874 54.2827 58.3008 54.1548 58.6871C54.027 59.0763 53.8395 59.4272 53.5923 59.7397C53.348 60.0522 53.0497 60.3136 52.6974 60.5238C52.348 60.734 51.9489 60.8789 51.5 60.9585ZM45.5 62.6662H54.2273V63.723H50.3409V68.3764H54.2273V69.4332H45.5V68.3764H49.4034V63.723H45.5V62.6662Z" fill="white"/>
<rect x="98.75" y="58.25" width="14.5" height="14.5" rx="3.75" transform="rotate(-90 98.75 58.25)" fill="#2E2E2E" stroke="black" stroke-width="0.5"/>
<rect x="103.6" y="54.4" width="5.8" height="53.8" rx="1.9" transform="rotate(-90 103.6 54.4)" fill="url(#paint1_linear_159_968)" stroke="black" stroke-width="0.2"/>
<rect x="98.75" y="42.25" width="14.5" height="14.5" rx="3.75" transform="rotate(-90 98.75 42.25)" fill="#2E2E2E" stroke="black" stroke-width="0.5"/>
<rect x="103.6" y="38.4" width="5.8" height="53.8" rx="1.9" transform="rotate(-90 103.6 38.4)" fill="url(#paint2_linear_159_968)" stroke="black" stroke-width="0.2"/>
<rect x="98.75" y="74.25" width="14.5" height="14.5" rx="3.75" transform="rotate(-90 98.75 74.25)" fill="#2E2E2E" stroke="black" stroke-width="0.5"/>
<rect x="103.6" y="70.4" width="5.8" height="53.8" rx="1.9" transform="rotate(-90 103.6 70.4)" fill="url(#paint3_linear_159_968)" stroke="black" stroke-width="0.2"/>
<path d="M74.9906 65.8769C74.8836 65.5947 74.7482 65.3436 74.5844 65.1237C74.4233 64.9008 74.234 64.7134 74.0165 64.5614C73.8018 64.4093 73.5605 64.2968 73.2927 64.2239C73.0248 64.151 72.7334 64.1219 72.4184 64.1366C71.9019 64.1606 71.4384 64.3158 71.028 64.6022C70.6175 64.8886 70.2995 65.2973 70.0739 65.8282C69.8483 66.3592 69.7531 67.0021 69.7882 67.7569C69.8233 68.5118 69.9792 69.143 70.2559 69.6506C70.5326 70.1582 70.8928 70.5353 71.3366 70.782C71.7804 71.0288 72.2718 71.1396 72.811 71.1145C73.3105 71.0913 73.7454 70.9644 74.1158 70.7339C74.4889 70.5004 74.7727 70.1829 74.9673 69.7814C75.1647 69.3769 75.2509 68.9079 75.2261 68.3744L75.5528 68.4275L72.9307 68.5494L72.8871 67.6129L76.2074 67.4585L76.2509 68.395C76.2843 69.113 76.1601 69.7444 75.8783 70.2893C75.5993 70.8341 75.1984 71.2652 74.6757 71.5824C74.1556 71.8967 73.5494 72.0699 72.8569 72.1021C72.085 72.138 71.3984 71.9879 70.7969 71.6518C70.1982 71.3156 69.7202 70.8202 69.3627 70.1657C69.008 69.511 68.8093 68.7239 68.7666 67.8044C68.7345 67.1148 68.7979 66.4905 68.9568 65.9314C69.1183 65.3693 69.3604 64.8859 69.6828 64.4813C70.0053 64.0767 70.3944 63.76 70.8502 63.5312C71.306 63.3024 71.8134 63.175 72.3724 63.149C72.8322 63.1276 73.2639 63.1772 73.6677 63.2978C74.0741 63.4154 74.4393 63.5933 74.7632 63.8313C75.0899 64.0664 75.3663 64.3536 75.5925 64.6929C75.8186 65.0293 75.9812 65.4071 76.0803 65.8263L74.9906 65.8769ZM84.7258 62.6941L85.1311 71.412L84.1095 71.4595L79.0407 64.8355L78.9556 64.8394L79.2738 71.6843L78.2181 71.7334L77.8128 63.0155L78.8344 62.968L83.921 69.6083L84.0062 69.6043L83.6871 62.7424L84.7258 62.6941ZM89.9338 71.1887L87.2435 71.3138L86.8382 62.5959L89.6477 62.4653C90.4934 62.426 91.2251 62.5669 91.843 62.888C92.4607 63.2062 92.945 63.6828 93.2959 64.3178C93.6466 64.9499 93.843 65.7172 93.885 66.6196C93.9272 67.5277 93.8018 68.3171 93.5087 68.9876C93.2156 69.6554 92.7678 70.1796 92.1655 70.5602C91.5631 70.9381 90.8192 71.1475 89.9338 71.1887ZM88.2557 70.3282L89.8221 70.2554C90.543 70.2219 91.1339 70.055 91.5949 69.7549C92.0558 69.4548 92.3907 69.0425 92.5996 68.518C92.8084 67.9935 92.8963 67.3766 92.8633 66.6671C92.8306 65.9633 92.6875 65.3628 92.434 64.8655C92.1804 64.3654 91.8188 63.9897 91.3493 63.7385C90.8796 63.4845 90.3042 63.3733 89.6231 63.405L87.9374 63.4833L88.2557 70.3282Z" fill="white"/>
<path d="M76.6289 51.4216C76.6717 52.3411 76.5426 53.1434 76.2417 53.8286C75.9408 54.5137 75.5093 55.0514 74.9473 55.4416C74.3853 55.8317 73.7325 56.0441 72.989 56.0787C72.2455 56.1132 71.5758 55.9623 70.98 55.626C70.3842 55.2897 69.9047 54.7944 69.5415 54.1401C69.1784 53.4858 68.9754 52.6989 68.9327 51.7794C68.8899 50.86 69.019 50.0577 69.3199 49.3725C69.6208 48.6873 70.0523 48.1497 70.6143 47.7595C71.1763 47.3693 71.8291 47.157 72.5726 47.1224C73.3161 47.0879 73.9858 47.2387 74.5816 47.5751C75.1774 47.9114 75.6569 48.4067 76.02 49.061C76.3832 49.7153 76.5862 50.5022 76.6289 51.4216ZM75.6073 51.4691C75.5722 50.7143 75.4163 50.083 75.1396 49.5755C74.8657 49.0677 74.5083 48.6905 74.0674 48.4436C73.6293 48.1967 73.1464 48.0854 72.6185 48.11C72.0907 48.1345 71.6187 48.2901 71.2026 48.5768C70.7893 48.8634 70.4685 49.2722 70.24 49.8032C70.0145 50.3342 69.9192 50.9771 69.9543 51.7319C69.9894 52.4868 70.1439 53.1181 70.4178 53.6258C70.6945 54.1334 71.0519 54.5107 71.4899 54.7576C71.9309 55.0045 72.4152 55.1156 72.9431 55.0911C73.4709 55.0665 73.9415 54.911 74.3547 54.6245C74.7709 54.3378 75.0917 53.929 75.3173 53.398C75.5457 52.867 75.6424 52.224 75.6073 51.4691ZM78.6066 55.698L78.2013 46.9802L81.147 46.8432C81.8309 46.8114 82.3957 46.9089 82.8414 47.1356C83.2898 47.3593 83.6287 47.6749 83.8581 48.0823C84.0874 48.4897 84.2141 48.9502 84.238 49.4639C84.2618 49.9775 84.1785 50.4492 83.9881 50.879C83.8004 51.3086 83.4953 51.6584 83.0728 51.9283C82.65 52.1954 82.0996 52.3447 81.4213 52.3762L79.31 52.4744L79.2664 51.5379L81.3437 51.4413C81.812 51.4196 82.1842 51.3212 82.4605 51.1463C82.7368 50.9713 82.9323 50.7432 83.0472 50.462C83.1649 50.1778 83.2155 49.8612 83.1993 49.5122C83.1831 49.1631 83.1033 48.854 82.96 48.5848C82.8195 48.3154 82.6023 48.1094 82.3084 47.9666C82.0144 47.8211 81.6304 47.7593 81.1565 47.7813L79.3006 47.8676L79.6623 55.649L78.6066 55.698Z" fill="white"/>
<path d="M67.9847 31.4379L70.914 38.6562L71.0162 38.6515L73.2631 31.1925L74.3699 31.141L71.5741 40.0077L70.4843 40.0584L66.8779 31.4894L67.9847 31.4379ZM82.4599 33.4952L81.4042 33.5442C81.3276 33.2435 81.206 32.9818 81.0392 32.7592C80.8753 32.5365 80.679 32.3522 80.4504 32.2064C80.2245 32.0576 79.9763 31.9497 79.7059 31.8827C79.4354 31.8156 79.1555 31.7888 78.866 31.8023C78.3382 31.8268 77.8662 31.9824 77.4501 32.2691C77.0368 32.5556 76.7159 32.9645 76.4875 33.4955C76.2619 34.0265 76.1667 34.6694 76.2018 35.4242C76.2369 36.1791 76.3914 36.8104 76.6652 37.3181C76.9419 37.8257 77.2993 38.203 77.7374 38.4499C78.1783 38.6968 78.6627 38.8079 79.1906 38.7834C79.48 38.7699 79.7563 38.7173 80.0193 38.6254C80.2824 38.5335 80.5196 38.4045 80.7308 38.2382C80.9448 38.069 81.123 37.8659 81.2656 37.6289C81.4109 37.389 81.5077 37.1171 81.5562 36.8134L82.6118 36.7643C82.5531 37.2136 82.4269 37.619 82.2333 37.9807C82.0396 38.3423 81.7925 38.6539 81.4918 38.9153C81.191 39.1738 80.8491 39.376 80.4663 39.5218C80.0863 39.6674 79.6763 39.7505 79.2365 39.7709C78.493 39.8055 77.8233 39.6546 77.2275 39.3183C76.6317 38.982 76.1522 38.4867 75.789 37.8324C75.4259 37.1781 75.2229 36.3912 75.1802 35.4717C75.1374 34.5523 75.2665 33.7499 75.5674 33.0648C75.8683 32.3796 76.2997 31.8419 76.8618 31.4518C77.4238 31.0616 78.0766 30.8493 78.8201 30.8147C79.2599 30.7943 79.6758 30.8389 80.0677 30.9487C80.4624 31.0583 80.8216 31.2293 81.1452 31.4617C81.4688 31.6912 81.7437 31.9771 81.9701 32.3192C82.1963 32.6585 82.3595 33.0505 82.4599 33.4952ZM91.1809 33.0897L90.1252 33.1388C90.0487 32.838 89.927 32.5764 89.7602 32.3537C89.5963 32.131 89.4 31.9467 89.1714 31.8009C88.9455 31.6522 88.6974 31.5443 88.4269 31.4772C88.1565 31.4102 87.8765 31.3834 87.587 31.3968C87.0592 31.4214 86.5872 31.577 86.1711 31.8636C85.7578 32.1502 85.437 32.559 85.2086 33.0901C84.983 33.621 84.8877 34.2639 84.9228 35.0188C84.9579 35.7736 85.1124 36.4049 85.3863 36.9126C85.663 37.4202 86.0204 37.7975 86.4585 38.0445C86.8994 38.2913 87.3838 38.4025 87.9116 38.3779C88.2011 38.3645 88.4773 38.3118 88.7404 38.2199C89.0034 38.1281 89.2406 37.999 89.4519 37.8328C89.6658 37.6636 89.8441 37.4605 89.9866 37.2235C90.1319 36.9835 90.2288 36.7117 90.2772 36.408L91.3329 36.3589C91.2741 36.8081 91.148 37.2136 90.9543 37.5752C90.7607 37.9369 90.5135 38.2484 90.2128 38.5098C89.912 38.7684 89.5702 38.9706 89.1873 39.1163C88.8073 39.262 88.3974 39.345 87.9575 39.3655C87.214 39.4001 86.5443 39.2492 85.9485 38.9128C85.3527 38.5765 84.8732 38.0812 84.5101 37.4269C84.1469 36.7726 83.944 35.9857 83.9012 35.0663C83.8585 34.1468 83.9875 33.3445 84.2884 32.6593C84.5893 31.9742 85.0208 31.4365 85.5828 31.0463C86.1448 30.6562 86.7976 30.4438 87.5411 30.4093C87.981 30.3888 88.3969 30.4335 88.7888 30.5432C89.1835 30.6528 89.5427 30.8238 89.8663 31.0562C90.1898 31.2858 90.4647 31.5716 90.6911 31.9137C90.9173 32.253 91.0806 32.645 91.1809 33.0897Z" fill="white"/>
<defs>
<linearGradient id="paint0_linear_159_968" x1="164.5" y1="0.500001" x2="203.526" y2="154.195" gradientUnits="userSpaceOnUse">
<stop stop-color="#FF1111"/>
<stop offset="0.396837" stop-color="#FF0B0B"/>
<stop offset="0.794992" stop-color="#990A0A"/>
</linearGradient>
<linearGradient id="paint1_linear_159_968" x1="114.5" y1="79.5" x2="93" y2="96.5" gradientUnits="userSpaceOnUse">
<stop stop-color="#C8C8C8"/>
<stop offset="0.46" stop-color="white"/>
<stop offset="1" stop-color="#626262"/>
</linearGradient>
<linearGradient id="paint2_linear_159_968" x1="114.5" y1="63.5" x2="93" y2="80.5" gradientUnits="userSpaceOnUse">
<stop stop-color="#C8C8C8"/>
<stop offset="0.46" stop-color="white"/>
<stop offset="1" stop-color="#626262"/>
</linearGradient>
<linearGradient id="paint3_linear_159_968" x1="114.5" y1="95.5" x2="93" y2="112.5" gradientUnits="userSpaceOnUse">
<stop stop-color="#C8C8C8"/>
<stop offset="0.46" stop-color="white"/>
<stop offset="1" stop-color="#626262"/>
</linearGradient>
</defs>
</svg>
