<svg width="185" height="96" viewBox="0 0 185 96" fill="none" xmlns="http://www.w3.org/2000/svg">
<g clip-path="url(#clip0_16_411)">
<rect x="14" y="8" width="128" height="79" fill="#22B928"/>
<path d="M49.5 44H118M51.5 71H118" stroke="#76FF0A" stroke-width="5"/>
<path d="M100.259 51.4545H98.2557C98.2415 51.2888 98.2036 51.1385 98.142 51.0036C98.0829 50.8686 98 50.7526 97.8935 50.6555C97.7893 50.5561 97.6626 50.4804 97.5135 50.4283C97.3643 50.3738 97.1951 50.3466 97.0057 50.3466C96.6742 50.3466 96.3937 50.4271 96.1641 50.5881C95.9368 50.7491 95.764 50.9799 95.6456 51.2805C95.5296 51.5812 95.4716 51.9422 95.4716 52.3636C95.4716 52.8087 95.5308 53.1816 95.6491 53.4822C95.7699 53.7805 95.9439 54.0054 96.1712 54.157C96.3984 54.3061 96.6719 54.3807 96.9915 54.3807C97.1738 54.3807 97.3371 54.3582 97.4815 54.3132C97.6259 54.2659 97.7514 54.1984 97.858 54.1108C97.9645 54.0232 98.0509 53.9179 98.1172 53.7947C98.1858 53.6693 98.232 53.5284 98.2557 53.3722L100.259 53.3864C100.235 53.6941 100.148 54.0078 99.9993 54.3274C99.8501 54.6446 99.6383 54.9382 99.3636 55.2081C99.0914 55.4756 98.754 55.6911 98.3516 55.8544C97.9491 56.0178 97.4815 56.0994 96.9489 56.0994C96.2812 56.0994 95.6823 55.9562 95.152 55.6697C94.6241 55.3833 94.2062 54.9619 93.8984 54.4055C93.593 53.8492 93.4403 53.1686 93.4403 52.3636C93.4403 51.554 93.5966 50.8722 93.9091 50.3182C94.2216 49.7618 94.643 49.3416 95.1733 49.0575C95.7036 48.7711 96.2955 48.6278 96.9489 48.6278C97.4081 48.6278 97.8307 48.6906 98.2166 48.8161C98.6025 48.9415 98.9411 49.125 99.2322 49.3665C99.5234 49.6056 99.7578 49.9003 99.9354 50.2507C100.113 50.6011 100.221 51.0024 100.259 51.4545ZM108.2 52.3636C108.2 53.1733 108.042 53.8563 107.727 54.4126C107.413 54.9666 106.988 55.3868 106.453 55.6733C105.918 55.9574 105.321 56.0994 104.663 56.0994C104 56.0994 103.401 55.9562 102.866 55.6697C102.333 55.3809 101.91 54.9595 101.595 54.4055C101.282 53.8492 101.126 53.1686 101.126 52.3636C101.126 51.554 101.282 50.8722 101.595 50.3182C101.91 49.7618 102.333 49.3416 102.866 49.0575C103.401 48.7711 104 48.6278 104.663 48.6278C105.321 48.6278 105.918 48.7711 106.453 49.0575C106.988 49.3416 107.413 49.7618 107.727 50.3182C108.042 50.8722 108.2 51.554 108.2 52.3636ZM106.169 52.3636C106.169 51.928 106.11 51.5611 105.994 51.2628C105.881 50.9621 105.712 50.7348 105.487 50.581C105.264 50.4247 104.99 50.3466 104.663 50.3466C104.336 50.3466 104.06 50.4247 103.835 50.581C103.613 50.7348 103.444 50.9621 103.328 51.2628C103.214 51.5611 103.157 51.928 103.157 52.3636C103.157 52.7992 103.214 53.1674 103.328 53.468C103.444 53.7663 103.613 53.9936 103.835 54.1499C104.06 54.3037 104.336 54.3807 104.663 54.3807C104.99 54.3807 105.264 54.3037 105.487 54.1499C105.712 53.9936 105.881 53.7663 105.994 53.468C106.11 53.1674 106.169 52.7992 106.169 52.3636ZM109.113 48.7273H111.571L113.261 52.8466H113.346L115.037 48.7273H117.494V56H115.562V51.7955H115.505L113.886 55.9432H112.721L111.102 51.767H111.045V56H109.113V48.7273Z" fill="white"/>
<path d="M108.358 17H106.227L108.628 9.72727H111.327L113.727 17H111.597L110.006 11.7301H109.949L108.358 17ZM107.96 14.1307H111.966V15.608H107.96V14.1307Z" fill="white"/>
<path d="M105.469 82V74.7273H108.622C109.176 74.7273 109.641 74.8018 110.018 74.951C110.397 75.1001 110.682 75.3108 110.874 75.5831C111.068 75.8554 111.165 76.1761 111.165 76.5455C111.165 76.813 111.106 77.0568 110.987 77.277C110.871 77.4972 110.708 77.6818 110.497 77.831C110.286 77.9777 110.04 78.0795 109.759 78.1364V78.2074C110.071 78.2192 110.355 78.2985 110.611 78.4453C110.866 78.5897 111.07 78.7898 111.222 79.0455C111.373 79.2988 111.449 79.5971 111.449 79.9403C111.449 80.3381 111.345 80.692 111.136 81.0021C110.93 81.3123 110.637 81.5561 110.256 81.7337C109.875 81.9112 109.42 82 108.892 82H105.469ZM107.443 80.4233H108.366C108.698 80.4233 108.946 80.3617 109.112 80.2386C109.278 80.1132 109.361 79.9285 109.361 79.6847C109.361 79.5142 109.322 79.3698 109.244 79.2514C109.165 79.133 109.054 79.0431 108.91 78.9815C108.768 78.92 108.596 78.8892 108.395 78.8892H107.443V80.4233ZM107.443 77.6676H108.253C108.426 77.6676 108.578 77.6404 108.711 77.5859C108.844 77.5315 108.946 77.4534 109.02 77.3516C109.096 77.2474 109.134 77.1207 109.134 76.9716C109.134 76.7467 109.053 76.575 108.892 76.4567C108.731 76.3359 108.527 76.2756 108.281 76.2756H107.443V77.6676Z" fill="white"/>
<rect x="118" y="38" width="20" height="20" rx="4" fill="#2E2E2E"/>
<rect x="118" y="60" width="20" height="20" rx="4" fill="#2E2E2E"/>
<rect x="127.5" y="52.5" width="8" height="51" transform="rotate(-90 127.5 52.5)" fill="#D9D9D9"/>
<rect x="127.5" y="74.5" width="8" height="51" transform="rotate(-90 127.5 74.5)" fill="#D9D9D9"/>
<path d="M144.67 83.6733V78.4176H146.261V83.6733H144.67ZM142.838 81.8409V80.25H148.094V81.8409H142.838Z" fill="#FFFEFE"/>
<rect x="118" y="15" width="20" height="20" rx="4" fill="#2E2E2E"/>
<rect x="128" y="29" width="8" height="51" transform="rotate(-90 128 29)" fill="#D9D9D9"/>
<line x1="32" y1="71.5" x2="48" y2="71.5" stroke="#F5EDED"/>
<line x1="32" y1="71.5" x2="48" y2="71.5" stroke="#F5EDED"/>
<g clip-path="url(#clip1_16_411)">
<path d="M55.5 22.5H113.5L118.5 25" stroke="#76FF0A" stroke-width="5"/>
</g>
</g>
<rect x="22.5" y="0.5" width="32" height="91" fill="url(#paint0_linear_16_411)" stroke="black"/>
<rect x="25.5" y="14.5" width="26" height="65" fill="#7D7D7D" stroke="black"/>
<rect x="25.5" y="60.5" width="26" height="19" fill="#363434" stroke="black"/>
<line x1="31" y1="63.5" x2="47" y2="63.5" stroke="#818181"/>
<line x1="31" y1="67.5" x2="47" y2="67.5" stroke="#818181"/>
<line x1="31" y1="71.5" x2="47" y2="71.5" stroke="#818181"/>
<line x1="31" y1="75.5" x2="47" y2="75.5" stroke="#818181"/>
<defs>
<linearGradient id="paint0_linear_16_411" x1="38.5" y1="0" x2="38.5" y2="92" gradientUnits="userSpaceOnUse">
<stop offset="0.252489" stop-color="#494747"/>
<stop offset="1" stop-color="#272626"/>
</linearGradient>
<clipPath id="clip0_16_411">
<rect width="185" height="88" fill="white" transform="translate(0 8)"/>
</clipPath>
<clipPath id="clip1_16_411">
<rect width="98" height="89" fill="white" transform="translate(20 15)"/>
</clipPath>
</defs>
</svg>
