<svg width="468" height="127" viewBox="0 0 468 127" fill="none" xmlns="http://www.w3.org/2000/svg">
<rect x="427.62" y="99.999" width="144" height="87" transform="rotate(-180 427.62 99.999)" fill="#1ACF21"/>
<path d="M327.62 57.499C327.62 52.2523 331.873 47.999 337.12 47.999C342.367 47.999 346.62 52.2523 346.62 57.499C346.62 62.7457 342.367 66.999 337.12 66.999C331.873 66.999 327.62 62.7457 327.62 57.499Z" fill="white"/>
<rect x="409.483" y="80.2161" width="14.5" height="14.5" rx="3.75" transform="rotate(-90 409.483 80.2161)" fill="#2E2E2E" stroke="black" stroke-width="0.5"/>
<rect x="409.876" y="64.2207" width="14.5" height="14.5" rx="3.75" transform="rotate(-90 409.876 64.2207)" fill="#2E2E2E" stroke="black" stroke-width="0.5"/>
<rect x="410.27" y="48.2256" width="14.5" height="14.5" rx="3.75" transform="rotate(-90 410.27 48.2256)" fill="#2E2E2E" stroke="black" stroke-width="0.5"/>
<rect x="285.87" y="58.7671" width="14.5" height="14.5" rx="3.75" transform="rotate(-90 285.87 58.7671)" fill="#2E2E2E" stroke="black" stroke-width="0.5"/>
<rect x="286.108" y="74.749" width="14.5" height="14.5" rx="3.75" transform="rotate(-90 286.108 74.749)" fill="#2E2E2E" stroke="black" stroke-width="0.5"/>
<rect x="243.77" y="54.7989" width="5.8" height="53.8" rx="1.9" transform="rotate(-90 243.77 54.7989)" fill="url(#paint0_linear_106_1009)" stroke="black" stroke-width="0.2"/>
<rect x="242.986" y="70.7806" width="5.8" height="53.8" rx="1.9" transform="rotate(-90 242.986 70.7806)" fill="url(#paint1_linear_106_1009)" stroke="black" stroke-width="0.2"/>
<path d="M285.685 97L284.436 92.6364H285.444L286.166 95.6683H286.203L286.999 92.6364H287.862L288.657 95.6747H288.695L289.418 92.6364H290.426L289.177 97H288.278L287.447 94.147H287.413L286.584 97H285.685ZM291.232 97H290.243L291.75 92.6364H292.939L294.443 97H293.454L292.361 93.6335H292.327L291.232 97ZM291.17 95.2848H293.505V96.005H291.17V95.2848ZM294.269 93.397V92.6364H297.853V93.397H296.517V97H295.605V93.397H294.269ZM298.443 97V92.6364H301.383V93.397H299.365V94.4368H301.232V95.1974H299.365V96.2393H301.392V97H298.443ZM302.117 97V92.6364H303.838C304.168 92.6364 304.449 92.6953 304.682 92.8132C304.916 92.9297 305.095 93.0952 305.217 93.3097C305.34 93.5227 305.402 93.7734 305.402 94.0618C305.402 94.3516 305.34 94.6009 305.215 94.8097C305.09 95.017 304.908 95.1761 304.671 95.2869C304.435 95.3977 304.15 95.4531 303.815 95.4531H302.662V94.7116H303.666C303.842 94.7116 303.988 94.6875 304.104 94.6392C304.221 94.5909 304.308 94.5185 304.364 94.4219C304.423 94.3253 304.452 94.2053 304.452 94.0618C304.452 93.9169 304.423 93.7947 304.364 93.6953C304.308 93.5959 304.22 93.5206 304.102 93.4695C303.986 93.4169 303.839 93.3906 303.661 93.3906H303.039V97H302.117ZM304.473 95.0142L305.558 97H304.539L303.478 95.0142H304.473ZM307.443 97V92.6364H308.365V96.2393H310.236V97H307.443ZM310.847 97V92.6364H313.787V93.397H311.77V94.4368H313.636V95.1974H311.77V96.2393H313.796V97H310.847ZM315.309 92.6364L316.364 95.9517H316.404L317.461 92.6364H318.484L316.98 97H315.791L314.284 92.6364H315.309ZM319.009 97V92.6364H321.949V93.397H319.932V94.4368H321.798V95.1974H319.932V96.2393H321.958V97H319.009ZM322.683 97V92.6364H323.606V96.2393H325.476V97H322.683ZM329.843 93.8913C329.826 93.7195 329.753 93.5859 329.624 93.4908C329.494 93.3956 329.319 93.348 329.097 93.348C328.947 93.348 328.82 93.3693 328.716 93.4119C328.612 93.4531 328.533 93.5107 328.477 93.5845C328.423 93.6584 328.396 93.7422 328.396 93.8359C328.394 93.9141 328.41 93.9822 328.445 94.0405C328.482 94.0987 328.533 94.1491 328.597 94.1918C328.661 94.233 328.734 94.2692 328.818 94.3004C328.902 94.3303 328.992 94.3558 329.087 94.3771L329.479 94.4709C329.669 94.5135 329.844 94.5703 330.003 94.6413C330.162 94.7124 330.3 94.7997 330.416 94.9034C330.533 95.0071 330.623 95.1293 330.687 95.2699C330.752 95.4105 330.786 95.5717 330.787 95.7536C330.786 96.0206 330.717 96.2521 330.582 96.4482C330.449 96.6428 330.256 96.794 330.003 96.902C329.752 97.0085 329.448 97.0618 329.093 97.0618C328.741 97.0618 328.434 97.0078 328.173 96.8999C327.913 96.7919 327.71 96.6321 327.563 96.4205C327.418 96.2074 327.342 95.9439 327.335 95.63H328.228C328.238 95.7763 328.28 95.8984 328.354 95.9964C328.429 96.093 328.529 96.1662 328.654 96.2159C328.781 96.2642 328.923 96.2884 329.082 96.2884C329.239 96.2884 329.374 96.2656 329.489 96.2202C329.606 96.1747 329.696 96.1115 329.76 96.0305C329.824 95.9496 329.856 95.8565 329.856 95.7514C329.856 95.6534 329.827 95.571 329.769 95.5043C329.712 95.4375 329.628 95.3807 329.517 95.3338C329.408 95.2869 329.274 95.2443 329.114 95.206L328.639 95.0866C328.271 94.9972 327.981 94.8572 327.768 94.6669C327.555 94.4766 327.449 94.2202 327.45 93.8977C327.449 93.6335 327.519 93.4027 327.661 93.2053C327.805 93.0078 328.002 92.8537 328.252 92.7429C328.502 92.6321 328.786 92.5767 329.104 92.5767C329.428 92.5767 329.71 92.6321 329.952 92.7429C330.195 92.8537 330.384 93.0078 330.519 93.2053C330.653 93.4027 330.723 93.6314 330.727 93.8913H329.843ZM331.408 97V92.6364H334.348V93.397H332.33V94.4368H334.197V95.1974H332.33V96.2393H334.356V97H331.408ZM338.731 92.6364V97H337.934L336.036 94.2536H336.004V97H335.081V92.6364H335.891L337.775 95.3807H337.813V92.6364H338.731ZM341.861 93.8913C341.844 93.7195 341.771 93.5859 341.641 93.4908C341.512 93.3956 341.337 93.348 341.115 93.348C340.964 93.348 340.837 93.3693 340.734 93.4119C340.63 93.4531 340.55 93.5107 340.495 93.5845C340.441 93.6584 340.414 93.7422 340.414 93.8359C340.411 93.9141 340.427 93.9822 340.463 94.0405C340.5 94.0987 340.55 94.1491 340.614 94.1918C340.678 94.233 340.752 94.2692 340.836 94.3004C340.92 94.3303 341.009 94.3558 341.104 94.3771L341.496 94.4709C341.687 94.5135 341.861 94.5703 342.021 94.6413C342.18 94.7124 342.317 94.7997 342.434 94.9034C342.55 95.0071 342.641 95.1293 342.704 95.2699C342.77 95.4105 342.803 95.5717 342.805 95.7536C342.803 96.0206 342.735 96.2521 342.6 96.4482C342.467 96.6428 342.273 96.794 342.021 96.902C341.769 97.0085 341.466 97.0618 341.111 97.0618C340.758 97.0618 340.452 97.0078 340.19 96.8999C339.93 96.7919 339.727 96.6321 339.581 96.4205C339.436 96.2074 339.36 95.9439 339.353 95.63H340.246C340.256 95.7763 340.297 95.8984 340.371 95.9964C340.447 96.093 340.547 96.1662 340.672 96.2159C340.798 96.2642 340.941 96.2884 341.1 96.2884C341.256 96.2884 341.392 96.2656 341.507 96.2202C341.623 96.1747 341.714 96.1115 341.778 96.0305C341.842 95.9496 341.873 95.8565 341.873 95.7514C341.873 95.6534 341.844 95.571 341.786 95.5043C341.729 95.4375 341.646 95.3807 341.535 95.3338C341.425 95.2869 341.291 95.2443 341.132 95.206L340.657 95.0866C340.289 94.9972 339.998 94.8572 339.785 94.6669C339.572 94.4766 339.467 94.2202 339.468 93.8977C339.467 93.6335 339.537 93.4027 339.679 93.2053C339.822 93.0078 340.019 92.8537 340.269 92.7429C340.519 92.6321 340.803 92.5767 341.121 92.5767C341.445 92.5767 341.728 92.6321 341.969 92.7429C342.212 92.8537 342.401 93.0078 342.536 93.2053C342.671 93.4027 342.741 93.6314 342.745 93.8913H341.861ZM347.435 94.8182C347.435 95.294 347.345 95.6989 347.165 96.0327C346.986 96.3665 346.741 96.6214 346.432 96.7976C346.123 96.9723 345.777 97.0597 345.392 97.0597C345.004 97.0597 344.656 96.9716 344.348 96.7955C344.04 96.6193 343.796 96.3643 343.617 96.0305C343.438 95.6967 343.348 95.2926 343.348 94.8182C343.348 94.3423 343.438 93.9375 343.617 93.6037C343.796 93.2699 344.04 93.0156 344.348 92.8409C344.656 92.6648 345.004 92.5767 345.392 92.5767C345.777 92.5767 346.123 92.6648 346.432 92.8409C346.741 93.0156 346.986 93.2699 347.165 93.6037C347.345 93.9375 347.435 94.3423 347.435 94.8182ZM346.5 94.8182C346.5 94.5099 346.454 94.25 346.361 94.0384C346.27 93.8267 346.142 93.6662 345.976 93.5568C345.809 93.4474 345.615 93.3928 345.392 93.3928C345.169 93.3928 344.974 93.4474 344.808 93.5568C344.642 93.6662 344.513 93.8267 344.42 94.0384C344.329 94.25 344.284 94.5099 344.284 94.8182C344.284 95.1264 344.329 95.3864 344.42 95.598C344.513 95.8097 344.642 95.9702 344.808 96.0795C344.974 96.1889 345.169 96.2436 345.392 96.2436C345.615 96.2436 345.809 96.1889 345.976 96.0795C346.142 95.9702 346.27 95.8097 346.361 95.598C346.454 95.3864 346.5 95.1264 346.5 94.8182ZM348.119 97V92.6364H349.84C350.17 92.6364 350.451 92.6953 350.684 92.8132C350.918 92.9297 351.097 93.0952 351.219 93.3097C351.342 93.5227 351.404 93.7734 351.404 94.0618C351.404 94.3516 351.342 94.6009 351.217 94.8097C351.092 95.017 350.91 95.1761 350.673 95.2869C350.437 95.3977 350.152 95.4531 349.817 95.4531H348.664V94.7116H349.668C349.844 94.7116 349.99 94.6875 350.106 94.6392C350.223 94.5909 350.31 94.5185 350.366 94.4219C350.425 94.3253 350.454 94.2053 350.454 94.0618C350.454 93.9169 350.425 93.7947 350.366 93.6953C350.31 93.5959 350.222 93.5206 350.104 93.4695C349.988 93.4169 349.841 93.3906 349.663 93.3906H349.041V97H348.119ZM350.475 95.0142L351.56 97H350.541L349.48 95.0142H350.475Z" fill="white"/>
<path d="M385.378 95.999V91.6354H387.1C387.431 91.6354 387.713 91.6986 387.946 91.825C388.179 91.95 388.356 92.124 388.478 92.347C388.602 92.5686 388.664 92.8243 388.664 93.1141C388.664 93.4039 388.601 93.6595 388.476 93.8811C388.351 94.1027 388.17 94.2753 387.933 94.3989C387.697 94.5225 387.412 94.5843 387.076 94.5843H385.979V93.8449H386.927C387.105 93.8449 387.251 93.8144 387.366 93.7533C387.483 93.6908 387.569 93.6048 387.626 93.4955C387.684 93.3847 387.714 93.2575 387.714 93.1141C387.714 92.9692 387.684 92.8428 387.626 92.7348C387.569 92.6254 387.483 92.5409 387.366 92.4813C387.25 92.4202 387.102 92.3896 386.923 92.3896H386.301V95.999H385.378ZM393.273 93.8172C393.273 94.2931 393.183 94.6979 393.002 95.0317C392.823 95.3655 392.579 95.6205 392.269 95.7966C391.961 95.9713 391.615 96.0587 391.23 96.0587C390.842 96.0587 390.494 95.9706 390.186 95.7945C389.877 95.6183 389.634 95.3634 389.455 95.0296C389.276 94.6958 389.186 94.2916 389.186 93.8172C389.186 93.3414 389.276 92.9365 389.455 92.6027C389.634 92.2689 389.877 92.0146 390.186 91.8399C390.494 91.6638 390.842 91.5757 391.23 91.5757C391.615 91.5757 391.961 91.6638 392.269 91.8399C392.579 92.0146 392.823 92.2689 393.002 92.6027C393.183 92.9365 393.273 93.3414 393.273 93.8172ZM392.338 93.8172C392.338 93.509 392.291 93.249 392.199 93.0374C392.108 92.8257 391.98 92.6652 391.813 92.5558C391.647 92.4465 391.453 92.3918 391.23 92.3918C391.007 92.3918 390.812 92.4465 390.646 92.5558C390.48 92.6652 390.35 92.8257 390.258 93.0374C390.167 93.249 390.122 93.509 390.122 93.8172C390.122 94.1254 390.167 94.3854 390.258 94.597C390.35 94.8087 390.48 94.9692 390.646 95.0786C390.812 95.1879 391.007 95.2426 391.23 95.2426C391.453 95.2426 391.647 95.1879 391.813 95.0786C391.98 94.9692 392.108 94.8087 392.199 94.597C392.291 94.3854 392.338 94.1254 392.338 93.8172ZM394.775 95.999L393.526 91.6354H394.534L395.256 94.6673H395.292L396.089 91.6354H396.952L397.747 94.6737H397.785L398.508 91.6354H399.515L398.267 95.999H397.368L396.537 93.146H396.503L395.674 95.999H394.775ZM400.009 95.999V91.6354H402.949V92.396H400.932V93.4358H402.798V94.1965H400.932V95.2384H402.958V95.999H400.009ZM403.683 95.999V91.6354H405.405C405.734 91.6354 406.015 91.6943 406.248 91.8122C406.483 91.9287 406.661 92.0942 406.783 92.3087C406.907 92.5218 406.968 92.7725 406.968 93.0608C406.968 93.3506 406.906 93.5999 406.781 93.8087C406.656 94.0161 406.475 94.1752 406.238 94.286C406.002 94.3968 405.716 94.4521 405.381 94.4521H404.228V93.7107H405.232C405.408 93.7107 405.554 93.6865 405.671 93.6382C405.787 93.5899 405.874 93.5175 405.931 93.4209C405.989 93.3243 406.018 93.2043 406.018 93.0608C406.018 92.9159 405.989 92.7938 405.931 92.6943C405.874 92.5949 405.787 92.5196 405.669 92.4685C405.552 92.4159 405.405 92.3896 405.228 92.3896H404.606V95.999H403.683ZM406.04 94.0132L407.124 95.999H406.106L405.044 94.0132H406.04Z" fill="white"/>
<path d="M396.501 51.3627L397.513 54.3243H397.553L398.566 51.3627H399.159L397.85 54.999H397.216L395.907 51.3627H396.501ZM402.523 52.5452H401.969C401.948 52.4268 401.908 52.3227 401.85 52.2327C401.792 52.1427 401.721 52.0664 401.637 52.0036C401.553 51.9409 401.459 51.8936 401.355 51.8616C401.252 51.8296 401.142 51.8137 401.026 51.8137C400.817 51.8137 400.629 51.8663 400.464 51.9717C400.299 52.077 400.169 52.2315 400.073 52.4351C399.978 52.6387 399.931 52.8873 399.931 53.1808C399.931 53.4768 399.978 53.7265 400.073 53.9301C400.169 54.1337 400.3 54.2876 400.465 54.3918C400.631 54.4959 400.818 54.548 401.025 54.548C401.14 54.548 401.248 54.5326 401.351 54.5019C401.456 54.4699 401.55 54.4231 401.634 54.3616C401.718 54.3 401.789 54.2249 401.847 54.1361C401.906 54.0461 401.947 53.9432 401.969 53.8271L402.523 53.8289C402.494 54.0077 402.436 54.1722 402.351 54.3225C402.267 54.4717 402.159 54.6007 402.026 54.7096C401.895 54.8173 401.744 54.9008 401.575 54.96C401.406 55.0191 401.221 55.0487 401.021 55.0487C400.706 55.0487 400.426 54.9742 400.18 54.825C399.933 54.6747 399.739 54.4598 399.597 54.1805C399.456 53.9011 399.386 53.5679 399.386 53.1808C399.386 52.7926 399.457 52.4594 399.599 52.1812C399.741 51.9018 399.935 51.6876 400.181 51.5384C400.427 51.3881 400.707 51.3129 401.021 51.3129C401.214 51.3129 401.394 51.3408 401.561 51.3964C401.729 51.4508 401.88 51.5313 402.014 51.6379C402.147 51.7432 402.258 51.8722 402.346 52.0249C402.433 52.1765 402.492 52.3499 402.523 52.5452ZM406.2 52.5452H405.646C405.625 52.4268 405.585 52.3227 405.527 52.2327C405.469 52.1427 405.398 52.0664 405.314 52.0036C405.23 51.9409 405.136 51.8936 405.032 51.8616C404.929 51.8296 404.819 51.8137 404.703 51.8137C404.494 51.8137 404.306 51.8663 404.14 51.9717C403.976 52.077 403.846 52.2315 403.75 52.4351C403.655 52.6387 403.608 52.8873 403.608 53.1808C403.608 53.4768 403.655 53.7265 403.75 53.9301C403.846 54.1337 403.976 54.2876 404.142 54.3918C404.308 54.4959 404.494 54.548 404.701 54.548C404.816 54.548 404.925 54.5326 405.028 54.5019C405.132 54.4699 405.226 54.4231 405.31 54.3616C405.395 54.3 405.466 54.2249 405.524 54.1361C405.583 54.0461 405.624 53.9432 405.646 53.8271L406.2 53.8289C406.17 54.0077 406.113 54.1722 406.028 54.3225C405.944 54.4717 405.835 54.6007 405.703 54.7096C405.571 54.8173 405.421 54.9008 405.252 54.96C405.083 55.0191 404.898 55.0487 404.698 55.0487C404.383 55.0487 404.102 54.9742 403.856 54.825C403.61 54.6747 403.416 54.4598 403.274 54.1805C403.133 53.9011 403.063 53.5679 403.063 53.1808C403.063 52.7926 403.134 52.4594 403.276 52.1812C403.418 51.9018 403.612 51.6876 403.858 51.5384C404.104 51.3881 404.384 51.3129 404.698 51.3129C404.891 51.3129 405.071 51.3408 405.238 51.3964C405.406 51.4508 405.557 51.5313 405.69 51.6379C405.824 51.7432 405.935 51.8722 406.022 52.0249C406.11 52.1765 406.169 52.3499 406.2 52.5452ZM398.077 59.4898C398.077 59.0447 398.135 58.6352 398.253 58.2611C398.37 57.887 398.541 57.542 398.766 57.2259H399.252C399.165 57.3431 399.083 57.4869 399.007 57.6574C398.931 57.8279 398.865 58.0149 398.808 58.2185C398.752 58.4209 398.707 58.631 398.675 58.8488C398.643 59.0654 398.627 59.2791 398.627 59.4898C398.627 59.7715 398.655 60.0568 398.711 60.3456C398.766 60.6344 398.841 60.9026 398.936 61.1499C399.031 61.3973 399.136 61.5992 399.252 61.7554H398.766C398.541 61.4394 398.37 61.0943 398.253 60.7203C398.135 60.3462 398.077 59.936 398.077 59.4898ZM400.881 60.7682V58.3676H401.358V60.7682H400.881ZM399.92 59.8058V59.3282H402.321V59.8058H399.92ZM404.163 59.4898C404.163 59.936 404.104 60.3462 403.987 60.7203C403.87 61.0943 403.699 61.4394 403.474 61.7554H402.988C403.075 61.6382 403.157 61.4944 403.233 61.324C403.308 61.1535 403.375 60.9671 403.431 60.7646C403.488 60.561 403.533 60.3503 403.565 60.1325C403.597 59.9147 403.613 59.7005 403.613 59.4898C403.613 59.2093 403.585 58.9246 403.529 58.6357C403.473 58.3469 403.398 58.0788 403.304 57.8314C403.209 57.584 403.104 57.3822 402.988 57.2259H403.474C403.699 57.542 403.87 57.887 403.987 58.2611C404.104 58.6352 404.163 59.0447 404.163 59.4898Z" fill="white"/>
<path d="M398.936 36.5115C398.902 36.4037 398.856 36.3073 398.798 36.222C398.741 36.1356 398.673 36.0622 398.593 36.0019C398.514 35.9403 398.424 35.8936 398.322 35.8616C398.221 35.8296 398.11 35.8137 397.99 35.8137C397.785 35.8137 397.6 35.8663 397.436 35.9717C397.271 36.077 397.141 36.2315 397.045 36.4351C396.95 36.6375 396.903 36.8855 396.903 37.1791C396.903 37.4738 396.951 37.723 397.047 37.9266C397.143 38.1302 397.274 38.2847 397.441 38.39C397.608 38.4954 397.798 38.548 398.011 38.548C398.209 38.548 398.381 38.5078 398.528 38.4273C398.676 38.3468 398.79 38.2332 398.87 38.0864C398.952 37.9384 398.993 37.7644 398.993 37.5644L399.135 37.591H398.095V37.1382H399.524V37.5519C399.524 37.8573 399.459 38.1225 399.329 38.3474C399.199 38.5711 399.021 38.7439 398.792 38.8659C398.565 38.9878 398.305 39.0487 398.011 39.0487C397.682 39.0487 397.393 38.973 397.145 38.8215C396.897 38.67 396.704 38.4551 396.566 38.1769C396.427 37.8976 396.358 37.5661 396.358 37.1826C396.358 36.8926 396.398 36.6322 396.479 36.4014C396.559 36.1705 396.672 35.9746 396.818 35.8137C396.965 35.6515 397.137 35.5278 397.335 35.4426C397.533 35.3561 397.751 35.3129 397.986 35.3129C398.183 35.3129 398.366 35.3419 398.535 35.3999C398.705 35.4579 398.857 35.5402 398.989 35.6468C399.123 35.7533 399.234 35.8799 399.321 36.0267C399.409 36.1723 399.468 36.3339 399.499 36.5115H398.936ZM403.155 35.3627V38.999H402.651L400.803 36.3321H400.769V38.999H400.22V35.3627H400.728L402.578 38.0331H402.612V35.3627H403.155ZM405.133 38.999H403.956V35.3627H405.17C405.526 35.3627 405.832 35.4355 406.088 35.5811C406.344 35.7255 406.54 35.9332 406.676 36.2043C406.813 36.4742 406.882 36.7979 406.882 37.1755C406.882 37.5543 406.813 37.8798 406.674 38.1521C406.537 38.4243 406.338 38.6338 406.077 38.7806C405.817 38.9262 405.502 38.999 405.133 38.999ZM404.504 38.5196H405.103C405.38 38.5196 405.61 38.4675 405.793 38.3634C405.977 38.258 406.114 38.1059 406.205 37.907C406.296 37.707 406.342 37.4632 406.342 37.1755C406.342 36.8902 406.296 36.6482 406.205 36.4493C406.115 36.2504 405.981 36.0995 405.802 35.9965C405.624 35.8936 405.402 35.8421 405.136 35.8421H404.504V38.5196ZM399.085 43.4898C399.085 43.0447 399.143 42.6352 399.26 42.2611C399.378 41.887 399.549 41.542 399.774 41.2259H400.26C400.172 41.3431 400.091 41.4869 400.015 41.6574C399.939 41.8279 399.873 42.0149 399.816 42.2185C399.759 42.4209 399.715 42.631 399.683 42.8488C399.651 43.0654 399.635 43.2791 399.635 43.4898C399.635 43.7715 399.663 44.0568 399.718 44.3456C399.774 44.6344 399.849 44.9026 399.944 45.1499C400.039 45.3973 400.144 45.5992 400.26 45.7554H399.774C399.549 45.4394 399.378 45.0943 399.26 44.7203C399.143 44.3462 399.085 43.936 399.085 43.4898ZM402.427 43.2323V43.6922H400.814V43.2323H402.427ZM404.155 43.4898C404.155 43.936 404.097 44.3462 403.979 44.7203C403.862 45.0943 403.691 45.4394 403.466 45.7554H402.98C403.067 45.6382 403.149 45.4944 403.225 45.324C403.301 45.1535 403.367 44.9671 403.424 44.7646C403.48 44.561 403.525 44.3503 403.557 44.1325C403.589 43.9147 403.605 43.7005 403.605 43.4898C403.605 43.2093 403.577 42.9246 403.521 42.6357C403.466 42.3469 403.391 42.0788 403.296 41.8314C403.201 41.584 403.096 41.3822 402.98 41.2259H403.466C403.691 41.542 403.862 41.887 403.979 42.2611C404.097 42.6352 404.155 43.0447 404.155 43.4898Z" fill="white"/>
<path d="M401.658 71.1808C401.658 71.5691 401.587 71.9029 401.445 72.1823C401.303 72.4604 401.108 72.6747 400.861 72.825C400.614 72.9742 400.334 73.0487 400.021 73.0487C399.706 73.0487 399.425 72.9742 399.177 72.825C398.931 72.6747 398.737 72.4598 398.595 72.1805C398.453 71.9011 398.382 71.5679 398.382 71.1808C398.382 70.7926 398.453 70.4594 398.595 70.1812C398.737 69.9018 398.931 69.6876 399.177 69.5384C399.425 69.3881 399.706 69.3129 400.021 69.3129C400.334 69.3129 400.614 69.3881 400.861 69.5384C401.108 69.6876 401.303 69.9018 401.445 70.1812C401.587 70.4594 401.658 70.7926 401.658 71.1808ZM401.115 71.1808C401.115 70.8849 401.067 70.6357 400.971 70.4333C400.876 70.2297 400.746 70.0758 400.58 69.9717C400.416 69.8663 400.229 69.8137 400.021 69.8137C399.811 69.8137 399.624 69.8663 399.46 69.9717C399.295 70.0758 399.165 70.2297 399.069 70.4333C398.974 70.6357 398.927 70.8849 398.927 71.1808C398.927 71.4768 398.974 71.7265 399.069 71.9301C399.165 72.1325 399.295 72.2864 399.46 72.3918C399.624 72.4959 399.811 72.548 400.021 72.548C400.229 72.548 400.416 72.4959 400.58 72.3918C400.746 72.2864 400.876 72.1325 400.971 71.9301C401.067 71.7265 401.115 71.4768 401.115 71.1808ZM402.342 72.999V69.3627H403.638C403.921 69.3627 404.155 69.4142 404.341 69.5171C404.527 69.6201 404.666 69.761 404.758 69.9397C404.851 70.1173 404.897 70.3173 404.897 70.5399C404.897 70.7636 404.85 70.9648 404.757 71.1436C404.664 71.3211 404.525 71.462 404.338 71.5661C404.152 71.6691 403.918 71.7206 403.636 71.7206H402.745V71.2554H403.587C403.765 71.2554 403.91 71.2246 404.022 71.1631C404.133 71.1003 404.215 71.0151 404.267 70.9074C404.319 70.7997 404.345 70.6772 404.345 70.5399C404.345 70.4026 404.319 70.2806 404.267 70.1741C404.215 70.0676 404.132 69.9841 404.02 69.9237C403.909 69.8634 403.762 69.8332 403.579 69.8332H402.891V72.999H402.342ZM399.085 77.4898C399.085 77.0447 399.143 76.6352 399.26 76.2611C399.378 75.887 399.549 75.542 399.774 75.2259H400.26C400.172 75.3431 400.091 75.4869 400.015 75.6574C399.939 75.8279 399.873 76.0149 399.816 76.2185C399.759 76.4209 399.715 76.631 399.683 76.8488C399.651 77.0654 399.635 77.2791 399.635 77.4898C399.635 77.7715 399.663 78.0568 399.718 78.3456C399.774 78.6344 399.849 78.9026 399.944 79.1499C400.039 79.3973 400.144 79.5992 400.26 79.7554H399.774C399.549 79.4394 399.378 79.0943 399.26 78.7203C399.143 78.3462 399.085 77.936 399.085 77.4898ZM402.427 77.2323V77.6922H400.814V77.2323H402.427ZM404.155 77.4898C404.155 77.936 404.097 78.3462 403.979 78.7203C403.862 79.0943 403.691 79.4394 403.466 79.7554H402.98C403.067 79.6382 403.149 79.4944 403.225 79.324C403.301 79.1535 403.367 78.9671 403.424 78.7646C403.48 78.561 403.525 78.3503 403.557 78.1325C403.589 77.9147 403.605 77.7005 403.605 77.4898C403.605 77.2093 403.577 76.9246 403.521 76.6357C403.466 76.3469 403.391 76.0788 403.296 75.8314C403.201 75.584 403.096 75.3822 402.98 75.2259H403.466C403.691 75.542 403.862 75.887 403.979 76.2611C404.097 76.6352 404.155 77.0447 404.155 77.4898Z" fill="white"/>
<circle cx="366.12" cy="83.499" r="14.25" transform="rotate(-180 366.12 83.499)" fill="#FC1717" stroke="black" stroke-width="0.5"/>
<g filter="url(#filter0_i_106_1009)">
<circle cx="366.12" cy="83.499" r="12.5" transform="rotate(-180 366.12 83.499)" fill="url(#paint2_linear_106_1009)"/>
</g>
<rect x="285.87" y="58.7671" width="14.5" height="14.5" rx="3.75" transform="rotate(-90 285.87 58.7671)" fill="#2E2E2E" stroke="black" stroke-width="0.5"/>
<rect x="286.108" y="74.749" width="14.5" height="14.5" rx="3.75" transform="rotate(-90 286.108 74.749)" fill="#2E2E2E" stroke="black" stroke-width="0.5"/>
<rect x="243.77" y="54.7989" width="5.8" height="53.8" rx="1.9" transform="rotate(-90 243.77 54.7989)" fill="url(#paint3_linear_106_1009)" stroke="black" stroke-width="0.2"/>
<rect x="242.985" y="70.7806" width="5.8" height="53.8" rx="1.9" transform="rotate(-90 242.985 70.7806)" fill="url(#paint4_linear_106_1009)" stroke="black" stroke-width="0.2"/>
<rect x="396.62" y="17.999" width="8" height="38" transform="rotate(90 396.62 17.999)" fill="#EDDF5F"/>
<path d="M396.62 29.499C391.65 29.499 389.62 26.9696 389.62 21.999C389.62 17.0285 391.65 14.999 396.62 14.999C401.591 14.999 404.12 17.0285 404.12 21.999C404.12 26.9696 401.591 29.499 396.62 29.499Z" fill="#EDDF5F"/>
<path d="M360.62 29.499C355.65 29.499 354.12 26.9696 354.12 21.999C354.12 17.0285 355.15 14.999 360.12 14.999C365.091 14.999 369.62 17.0285 369.62 21.999C369.62 26.9696 365.591 29.499 360.62 29.499Z" fill="#EDDF5F"/>
<rect x="385.62" y="17.999" width="8" height="3" transform="rotate(90 385.62 17.999)" fill="#291C0F"/>
<rect x="398.62" y="14.999" width="14" height="3" transform="rotate(90 398.62 14.999)" fill="#714B27"/>
<path d="M362.62 14.999V29.3432L359.62 29.499V14.999H362.62Z" fill="#DEFF11"/>
<rect x="372.62" y="17.999" width="8" height="3" transform="rotate(90 372.62 17.999)" fill="#FF7A00"/>
<rect x="406.62" y="19.999" width="4" height="3" transform="rotate(90 406.62 19.999)" fill="#D9D9D9"/>
<path d="M354.12 19.999V23.999H347.62V19.999H354.12Z" fill="#D9D9D9"/>
<path d="M310.12 22.749C310.12 24.2264 310.411 25.6893 310.976 27.0542C311.542 28.4191 312.371 29.6593 313.415 30.704C314.46 31.7486 315.7 32.5773 317.065 33.1427C318.43 33.708 319.893 33.999 321.37 33.999C322.847 33.999 324.31 33.708 325.675 33.1427C327.04 32.5773 328.28 31.7486 329.325 30.704C330.37 29.6593 331.198 28.4191 331.764 27.0542C332.329 25.6893 332.62 24.2264 332.62 22.749L321.37 22.749L310.12 22.749Z" fill="#010101"/>
<path d="M310.87 18.999L331.87 18.999C332.263 20.4701 332.438 21.2898 332.62 22.749L310.12 22.749C310.301 21.2215 310.456 20.3921 310.87 18.999Z" fill="#010101"/>
<rect x="425.37" y="81.749" width="16.5" height="49.5" transform="rotate(-180 425.37 81.749)" stroke="white" stroke-width="0.5"/>
<rect x="301.37" y="75.749" width="16.5" height="32.5" transform="rotate(-180 301.37 75.749)" stroke="white" stroke-width="0.5"/>
<rect x="413.314" y="76.9432" width="5.8" height="53.8" rx="1.9" transform="rotate(-90 413.314 76.9432)" fill="url(#paint5_linear_106_1009)" stroke="black" stroke-width="0.2"/>
<rect x="413.707" y="60.9481" width="5.8" height="53.8" rx="1.9" transform="rotate(-90 413.707 60.9481)" fill="url(#paint6_linear_106_1009)" stroke="black" stroke-width="0.2"/>
<rect x="414.1" y="43.9527" width="5.8" height="53.8" rx="1.9" transform="rotate(-90 414.1 43.9527)" fill="url(#paint7_linear_106_1009)" stroke="black" stroke-width="0.2"/>
<path d="M303.905 66.9965V66.3627H306.891V66.9965H305.778V69.999H305.018V66.9965H303.905ZM308.944 66.3627V69.999H308.175V67.0924H308.154L307.321 67.6144V66.9326L308.221 66.3627H308.944Z" fill="white"/>
<path d="M303.053 50.9965V50.3627H306.04V50.9965H304.926V53.999H304.166V50.9965H303.053ZM306.51 53.999V53.445L307.804 52.2465C307.915 52.14 308.007 52.0441 308.081 51.9589C308.157 51.8737 308.215 51.7902 308.254 51.7085C308.293 51.6257 308.312 51.5363 308.312 51.4404C308.312 51.3339 308.288 51.2422 308.239 51.1652C308.191 51.0871 308.125 51.0273 308.041 50.9859C307.957 50.9433 307.861 50.922 307.755 50.922C307.643 50.922 307.546 50.9445 307.464 50.9894C307.381 51.0344 307.317 51.0989 307.272 51.183C307.227 51.267 307.204 51.367 307.204 51.483H306.475C306.475 51.2451 306.528 51.0386 306.636 50.8634C306.744 50.6882 306.895 50.5526 307.089 50.4568C307.283 50.3609 307.507 50.3129 307.76 50.3129C308.02 50.3129 308.247 50.3591 308.44 50.4514C308.634 50.5426 308.785 50.6692 308.893 50.8314C309.001 50.9936 309.054 51.1794 309.054 51.3889C309.054 51.5262 309.027 51.6618 308.973 51.7955C308.92 51.9293 308.824 52.0779 308.687 52.2412C308.55 52.4034 308.356 52.5981 308.106 52.8254L307.575 53.3456V53.3705H309.102V53.999H306.51Z" fill="white"/>
<rect x="407.37" y="29.749" width="59.5" height="15.5" transform="rotate(-180 407.37 29.749)" stroke="white" stroke-width="0.5"/>
<path d="M247 51.4424C182.865 46.4402 5 -34 7.5 23V65" stroke="#0A89FF" stroke-width="5"/>
<path d="M246 67.999C182.5 64.4998 46.5 -5.4997 46.5 34.5003V65.0001" stroke="#0A89FF" stroke-width="5"/>
<rect x="14" y="31" width="56" height="14" transform="rotate(90 14 31)" fill="#111111"/>
<rect x="54" y="31" width="56" height="14" transform="rotate(90 54 31)" fill="#111111"/>
<path d="M49.2896 87.0022L49.2896 126.002C49.2896 126.554 48.8418 127.002 48.2896 127.002H45.2896C44.7373 127.002 44.2896 126.554 44.2896 126.002L44.2896 87.0022H49.2896Z" fill="url(#paint8_linear_106_1009)"/>
<path d="M11.1636 86.9736L11.1636 125.974C11.1636 126.526 10.7159 126.974 10.1636 126.974H7.16357C6.61129 126.974 6.16357 126.526 6.16357 125.974L6.16357 86.9736H11.1636Z" fill="url(#paint9_linear_106_1009)"/>
<rect x="293" y="58.999" width="56" height="14" transform="rotate(-180 293 58.999)" fill="#111111"/>
<rect x="293" y="74.999" width="56" height="14" transform="rotate(-180 293 74.999)" fill="#111111"/>
<defs>
<filter id="filter0_i_106_1009" x="353.62" y="70.999" width="25" height="29" filterUnits="userSpaceOnUse" color-interpolation-filters="sRGB">
<feFlood flood-opacity="0" result="BackgroundImageFix"/>
<feBlend mode="normal" in="SourceGraphic" in2="BackgroundImageFix" result="shape"/>
<feColorMatrix in="SourceAlpha" type="matrix" values="0 0 0 0 0 0 0 0 0 0 0 0 0 0 0 0 0 0 127 0" result="hardAlpha"/>
<feOffset dy="4"/>
<feGaussianBlur stdDeviation="2"/>
<feComposite in2="hardAlpha" operator="arithmetic" k2="-1" k3="1"/>
<feColorMatrix type="matrix" values="0 0 0 0 0 0 0 0 0 0 0 0 0 0 0 0 0 0 0.25 0"/>
<feBlend mode="normal" in2="shape" result="effect1_innerShadow_106_1009"/>
</filter>
<linearGradient id="paint0_linear_106_1009" x1="254.67" y1="79.8989" x2="233.17" y2="96.8989" gradientUnits="userSpaceOnUse">
<stop stop-color="#C8C8C8"/>
<stop offset="0.46" stop-color="white"/>
<stop offset="1" stop-color="#626262"/>
</linearGradient>
<linearGradient id="paint1_linear_106_1009" x1="253.886" y1="95.8806" x2="232.386" y2="112.881" gradientUnits="userSpaceOnUse">
<stop stop-color="#C8C8C8"/>
<stop offset="0.46" stop-color="white"/>
<stop offset="1" stop-color="#626262"/>
</linearGradient>
<linearGradient id="paint2_linear_106_1009" x1="366.12" y1="70.999" x2="366.12" y2="95.999" gradientUnits="userSpaceOnUse">
<stop stop-color="#FF0004"/>
<stop offset="1" stop-color="#FF7274"/>
</linearGradient>
<linearGradient id="paint3_linear_106_1009" x1="254.67" y1="79.8989" x2="233.17" y2="96.8989" gradientUnits="userSpaceOnUse">
<stop stop-color="#C8C8C8"/>
<stop offset="0.46" stop-color="white"/>
<stop offset="1" stop-color="#626262"/>
</linearGradient>
<linearGradient id="paint4_linear_106_1009" x1="253.885" y1="95.8806" x2="232.385" y2="112.881" gradientUnits="userSpaceOnUse">
<stop stop-color="#C8C8C8"/>
<stop offset="0.46" stop-color="white"/>
<stop offset="1" stop-color="#626262"/>
</linearGradient>
<linearGradient id="paint5_linear_106_1009" x1="424.214" y1="102.043" x2="402.714" y2="119.043" gradientUnits="userSpaceOnUse">
<stop stop-color="#C8C8C8"/>
<stop offset="0.46" stop-color="white"/>
<stop offset="1" stop-color="#626262"/>
</linearGradient>
<linearGradient id="paint6_linear_106_1009" x1="424.607" y1="86.0481" x2="403.107" y2="103.048" gradientUnits="userSpaceOnUse">
<stop stop-color="#C8C8C8"/>
<stop offset="0.46" stop-color="white"/>
<stop offset="1" stop-color="#626262"/>
</linearGradient>
<linearGradient id="paint7_linear_106_1009" x1="425" y1="69.0527" x2="403.5" y2="86.0527" gradientUnits="userSpaceOnUse">
<stop stop-color="#C8C8C8"/>
<stop offset="0.46" stop-color="white"/>
<stop offset="1" stop-color="#626262"/>
</linearGradient>
<linearGradient id="paint8_linear_106_1009" x1="46.7896" y1="87.0022" x2="46.7896" y2="127.002" gradientUnits="userSpaceOnUse">
<stop stop-color="#CACACA"/>
<stop offset="1" stop-color="#646464"/>
</linearGradient>
<linearGradient id="paint9_linear_106_1009" x1="8.66357" y1="86.9736" x2="8.66357" y2="126.974" gradientUnits="userSpaceOnUse">
<stop stop-color="#CACACA"/>
<stop offset="1" stop-color="#646464"/>
</linearGradient>
</defs>
</svg>
