<?xml version="1.0" encoding="UTF-8"?>
<svg width="96" height="96" viewBox="0 0 96 96" fill="none" xmlns="http://www.w3.org/2000/svg">
  <circle cx="48" cy="48" r="44" fill="#F3F4F6" stroke="#E5E7EB" stroke-width="2"/>
  <path d="M48 32C45.7909 32 44 33.7909 44 36C44 38.2091 45.7909 40 48 40C50.2091 40 52 38.2091 52 36C52 33.7909 50.2091 32 48 32Z" fill="#9CA3AF"/>
  <path d="M48 44C50.2091 44 52 45.7909 52 48C52 50.2091 50.2091 52 48 52C45.7909 52 44 50.2091 44 48C44 45.7909 45.7909 44 48 44Z" fill="#9CA3AF"/>
  <path d="M48 56C45.7909 56 44 57.7909 44 60C44 62.2091 45.7909 64 48 64C50.2091 64 52 62.2091 52 60C52 57.7909 50.2091 56 48 56Z" fill="#9CA3AF"/>
</svg>
